<mxfile host="app.diagrams.net" agent="Mozilla/5.0 (X11; Ubuntu; Linux x86_64; rv:131.0) Gecko/20100101 Firefox/131.0" version="24.8.4">
  <diagram id="jrXY4hO8n29qiqvIHeQG" name="Page-1">
    <mxGraphModel dx="2905" dy="2158" grid="1" gridSize="10" guides="1" tooltips="1" connect="1" arrows="1" fold="1" page="0" pageScale="1" pageWidth="827" pageHeight="1169" math="0" shadow="0">
      <root>
        <mxCell id="0" />
        <mxCell id="1" parent="0" />
        <mxCell id="nSMvHfx7BpTb2uHLrpXf-3" value="" style="dashed=0;verticalAlign=top;fontStyle=0;whiteSpace=wrap;html=1;" vertex="1" parent="1">
          <mxGeometry x="-900" y="-670" width="220" height="270" as="geometry" />
        </mxCell>
        <mxCell id="nSMvHfx7BpTb2uHLrpXf-4" value="" style="shape=image;verticalLabelPosition=bottom;labelBackgroundColor=default;verticalAlign=top;aspect=fixed;imageAspect=0;image=https://upload.wikimedia.org/wikipedia/commons/thumb/b/b6/PubChem_logo.svg/2560px-PubChem_logo.svg.png;" vertex="1" parent="1">
          <mxGeometry x="-816.74" y="-670" width="136.74" height="40" as="geometry" />
        </mxCell>
        <mxCell id="nSMvHfx7BpTb2uHLrpXf-6" value="CC1=C(O)CCCC1" style="text;whiteSpace=wrap;fontFamily=Courier New;" vertex="1" parent="1">
          <mxGeometry x="-1000" y="-595" width="100" height="40" as="geometry" />
        </mxCell>
        <mxCell id="nSMvHfx7BpTb2uHLrpXf-12" value="" style="dashed=0;verticalAlign=top;fontStyle=0;whiteSpace=wrap;html=1;fillColor=none;" vertex="1" parent="1">
          <mxGeometry x="-880" y="-620" width="185" height="200" as="geometry" />
        </mxCell>
        <mxCell id="nSMvHfx7BpTb2uHLrpXf-11" value="" style="group" vertex="1" connectable="0" parent="1">
          <mxGeometry x="-790" y="-510" width="97.5" height="107.5" as="geometry" />
        </mxCell>
        <mxCell id="nSMvHfx7BpTb2uHLrpXf-10" value="" style="dashed=0;verticalAlign=top;fontStyle=0;whiteSpace=wrap;html=1;fillColor=none;" vertex="1" parent="nSMvHfx7BpTb2uHLrpXf-11">
          <mxGeometry width="77.5" height="77.5" as="geometry" />
        </mxCell>
        <mxCell id="nSMvHfx7BpTb2uHLrpXf-15" value="" style="shape=image;verticalLabelPosition=bottom;labelBackgroundColor=default;verticalAlign=top;aspect=fixed;imageAspect=0;image=data:image/png,iVBORw0KGgoAAAANSUhEUgAAASwAAAEsCAIAAAD2HxkiAAASiElEQVR4nO3da0xUZxrA8WcQURAURUWxXosKVWulWi/1VjX2IknbTWmT2ml2s5G0X3C77obdxITtNtlltzGyySYrfrCZssnuUhO3460NWu9W8VqLWrwrXioqKCrKIPPuhzMdWbzgwMx5Zob/L01D4XDmrT3/MzPnvO/UYYwRAHpitAcAdHRECCgjQkAZEQLKiBBQRoSAMiIElBEhoIwIAWVECCgjQkAZEQLKiBBQRoSAMiIElBEhoIwIAWVECCgjQkAZEQLKiBBQRoSAMiIElBEhoIwIAWVECCgjQkAZEQLKiBBQRoSAMiIElBEhoIwIAWVECCgjQkAZEQLKiBBQRoSAMiIElBEhoIwIAWVECCgjQkAZEQLKiBBQRoSAMiIElBEhoIwIAWVECCgjQkAZEQLKiBBQRoSAMiIElBEhoIwIAWVECCgjQkAZEQLKiBBQRoSAMiIElBEhoIwIAWVECCgjQkAZEQLKiBBQRoSAMiIElBEhoIwIAWVECCiLDWzzv/xFRGTkSHnjjUduc+GC/POfIiKzZ8v48Q/fxuORHTtk61apqpK6OklMlLQ0mTpVpk+XhITAhgREOhMQESNifvazx22zfbtvsyVLHvJTr9csX24GDPBt0+KvlBTz6afG4wlsVEAkC/CZsJ0aG+WXv5SSEt8/ZmTIxInSq5fU1sqBA/Ldd3Ltmvz2t/LNN1JaKomJto4NUGJvhL//va/AjAxZvlymTfu/n+7dKwsWyMGDsn69LFgg//qXrWMDlNh4Yaa8XJYuFRFJT5etW1sWKCLjx8vmzfLssyIi//63/Pe/9o0N0GNjhEuXitcrIvKPf0ifPg/fpkcP+ewzcThERJYssW9sgB67Irx7V1atEhHJyJA5cx63ZVaWTJ0qIrJ9u1RV2TE2QJVdEe7bJw0NIiJz57a+8Suv+L7YtSuEQwLCQ5suzHg8cu3aI39aV/eQb/7wg++LUaNa37/1tlBEjh4NdGhAxGlThGvWSO/egf1KTY3vi5SU1jf2b1NbG9ij4BE8Hs+HH35YV1c3f/78Nx4z0QLtVlNTs23bttdff/3Jf8XG94SWrl1b3zg+3vdFfX2oxtORLFmypEePHitWrFi5cuWbb76ZkZFx7Ngx7UFFIa/X+/nnn2dkZLz99tsB/Qm36Zlw7lz5298e+dMDB+Tdd1t+s3t33xe3brW+/5s3fV8kJwc+ONx36tSphQsXrlmzRkRiY2P79+9fVVVVWVk5duzYTz/99IMPPoiNtfdGcfTasGHDRx99VFFRISKzZ892WFf4n1BgE2zaPG2tpMT3zaKi1h/lP//xbfzXvwY2PPzk1q1bBQUFXbt2FZG4uLjZs2fX1tYaY9asWdOvXz/rP/3IkSPXrl2rPdKId+LEiZycHOuPdODAgS6XK9A92BXh99/7vvnzn7f+KL/7nW/jsrLAhgdjvF5vaWnpoEGDRMThcOTk5Jw9e7bFNmVlZZmZmdZxM2fOnMOHD6sMNdI1P9N169atoKDgzp07bdiPXRE2NZlevYyISU01jY2tPEpmphExcXHmxo3AhtfhlZeXT5kyxapr/PjxO3bseNSWHo+nqKioR48eItK5c+e8vLzr16/bOdSI5vV6XS6X9ZrCOtOdO3euzXuzcRXFr37l+/5nnz3u11ev9m327ruBja1ju3DhQm5ubkxMjIikpaUVFxc3NTW1+ltXr17Ny8vr1KmTiKSkpBQVFd27d8+G0Ua08vLyyZMnW2e6CRMm7Ny5s507tDHCkydNQoJvvdKRIw//3bNnzcCBRsTExpoDB3zfbGgwkyeboiLD8fEwDQ0NRUVFSUlJ1tu/vLy8urq6gPawb9++aT9N5c3Kytq6dWuIhhrpzp8/73Q6rYsuaWlpLpfL6/W2f7f2rif8+999P+rd26xYYRoa7v/o3j3zxRfmqad8GxQU3P+Ry+X7ZlaW2bYtsAFHO7fbPXToUKuf7OzsU6dOtWdXQ4YM8e/q9OnTwRtmxKuvry8sLLTOdPHx8fn5+YGe6R7D9kW9f/qTcTh8GyQlmRkzTE6OmTXLpKTcX9r7m9+YFicYt9sMGeL7aXa24fgw5sCBAzNmzLCayczM/Oqrr9q/z9u3bxcWFiYmJvoPtZs3b7Z/t5EuiGe6h7I9QmPM5s1m0qSHr6wfO9asW/fw36qvN4WFJjHRiJj4eJOfb4J3Koos165d87+R69WrV9DfyDV/0TVgwIBgveiKRPv3758+fbqV37hx47Zs2RKKRwkwwq+/Nl9/bQ4efNw2tbW+zc6cedxmp0+bFSvMH/9ofv1r84c/mOXLTWVl6wM4f944nb7n0gEDjMvV8jkzqlmXNJOTk61Lmrm5uVeuXAnRY+3evXvSpEnW8ffCCy98++23IXqg8GTnJasAIwwTu3fffy6dMMG0+/JURCgrKxv10/T3OXPmVFRUhPoRm5qaml+Idzqdly5dCvWDqrP/5k1kRmiM8XqNy2X69TMixuEwTqeJ3uOjsrIyOzvbym/48OGrV6+289GtW9JdunTx35K+e/eunQOwk/1nOhPBEVpu3TIFBaZLFyNiunUzBQWmTVMWwlZtbW1+fr4VQHJycmFhoVYAx48f90/OSk9PLy0tVRlG6FRWVs6bN8/6FxwxYoSdZ7oIj9By/LjJyfG9Ok1PN1FxfFgvBfv27SsiMTExTqfzxx9/1B6U2bBhw5gxY6wjdfbs2YcOHdIeURBYZ7q4uDj/ma6h+c2z0IuKCC0bN5oxY3wpzpplIvn42LRp09ixY61jfcaMGQf88xbCQGNjY3Fxce/evUUkNjY2Nze3urpae1Bt9OCZ7vLly/YPI4oiNMY0NpriYtOnj2/OTW6uibTjo6qqyn974Kmnngrb2wPWbRJrJZR1m6Sx1SnBYab5mW7mzJkHH3/NP5SiK0JLTY3JyzOxsUbE9OxpiopanzIeBm7fvu2fkp+QkFBQUFBfX689qFYcPXr0lZ8+ECgjI2Pdo+7xhplz5845nc72LD4KrmiM0HL0qHn1Vd+r05EjHzkHIAw8uPjozONvsYYZt9s9bNgw/4SSEydOaI/okR4807Vt8VFwRW+EFrfbPP30/flu4Xd87Nmz58UXX7SO4Oeff3779u3aI2oLaxJ59+7d/ffWboTZMrQnWWapJdojNMbcvWv+/GeTlGRELk2eHNypt+1x8eJF/+Kj/v37P+Hio3AWtv9Ge/bsab7MMtzOdB0gQsvFi95f/OLloUOt42PFihWKx0fz5w1r8VG4PW+0x969e5s/t29TXfjStmWWNuswERpjjNm3b99U6+O9RbKyslSOjxbvoE6ePGn/GELNeu03ePBgxXe5Dy6zDNszXceK0OJ2u63jw+aFcy2uJa5fv96ex9ViXQWJj4+3/3pvZJ3pOmKE5v8XziUkJIR64VwU3FVrM5vvfB45cuTll18O7jLLUOugEVpsOD4enF8SusVH4Wzz5s3PPfec1cbEiRN37doV9IcI9TLL0OnQEVp27do1ceJE//ERxIVzGzZsGD16tH+m5ffffx+sPUcia45Yampq0GfDejwe/5ku1MssQ4EIjQnB8XHs2DH/moPhw4dH35qDNmu+LiQxMbH9C6NaLD6KxDMdEd538+ZN/8K5Nh8fzXcS9avv2iwoJ6moOdMRYUtt/k8bupdb0arNT2JBfzrVRYQPF+jbueZvLDvgJ7K0WaBv56LyTEeEj/SEFzYjZfFROHvCC5s2XGJVQYStePD48N/is/lmY9R7zC2+6D7TEeETOXLkSIvJLlrTbqJei8kuFRUVWtNubEOEAVi5cqX/k5gtYTglPwrU19d/8skn3bp1ExErP4fDMX/+/KqqKu2hhQQRBubOnTuLFy9OTExMSkrSXYoR9c6fPz9jxoyePXumpaW1//98FM4cxhhBIKqrq1NTU/v06VNdXa09lihXUlLy/vvvv/feeyUlJdpjCaEY7QEAHR0RAsqIEFBGhIAyIgy+xYsXjxkzxu12aw8EkYEIg6+qqqqioqK2tlZ7IIgMRAgoI0JAGRECyogQUEaEgDIiBJQRIaCMCAFlRAgoI0JAGRECyogQUEaEgDIiBJQRIaCMCAFlRAgoI0JAGRECyogQUEaEgDIiBJQRIaCMCAFlRAgoI0JAGRECyogQUEaEgDIiBJQRIaCMCAFlRAgoI0JAGRECyogQUEaEgDIiBJQRIaCMCAFlRAgoI0JAGRECyogQUEaEgDIiBJQRIaCMCAFlRAgoI0JAGRECyogQUEaEgDIiBJQRIaCMCINvyJAh48aNS0lJ0R4IIgMRBt/HH3+8f//+7Oxs7YEgMhAhoIwIA1ZXVyciN2/e1B5I9KusrPT/PYoRYcA8Ho//7wipq1evisi1a9e0BxJaRAgoI8KAde7cWUS8Xu8777zD82HolJeXf/HFFyKSkJCgPZbQIsKADR8+fNKkSSJSWlqanJxcUlKiPaJoU19fP3fu3IkTJ9bU1DgcjqVLl2qPKMQM2mTx4sWxsbHWn2F2dvapU6e0RxQl3G73kCFDrD/Y1NTUbdu2aY8o5Iiw7a5fv75o0aKkpCQRiYuLy8vLq6ur0x5UBNu3b9+0adOs/MaNG7ds2TLtEdmECNvrwoULubm5MTExIpKWllZcXNzU1KQ9qAhz5cqVvLy8Tp06iUhKSkpRUdG9e/e0B2UfIgyO8vLyKVOmWGfx8ePH79ixQ3tEkcHj8RQVFXXv3l1EOnfunJeXd/36de1B2Y0Ig8br9ZaWlg4aNEhEHA5HTk7O2bNntQcV1srKyjIzM60z15w5cw4fPqw9Ih1EGGS3bt0qKCjo2rWriHTr1q2goODOnTvagwo7P/zww2uvvWblN3LkyLVr12qPSBMRhsS5c+ecTqd1kA0cONDlcmmPKFzU1NTk5+fHxcWJSM+ePQsLCxsaGrQHpYwIQ+ibb7559tlnrRRfeuml7777TntEmhobG4uLi/v06SMiMTExTqezurpae1BhgQhDq6mpyeVy9e3b13/kXb58WXtQCjZu3Mj56FGI0A4d+TXY8ePHc3JyrPwGDRrEK/MHEaF9ml+NGDFixJo1a7RHFFpco3pCRGi3srKyZ555Jrqvy3u9XpfL1a9fP+tujdPpvHTpkvagwhcRKrDuUPfo0SMq71CXl5dPnjzZOstMmDBh586d2iMKd0So5urVq1E2V+v8+fNOp9PhcFgz+Fwul9fr1R5UBCBCZS1mLW/ZskV7RG1RX19fWFhozWWPj4/Pz89nLvuTI8Kw0Hz9TnZ29unTp7VHFAC32z106FBWdbUZEYYL68kkMTExgp5M9u/fP3369Eh/GldHhOGl+duqAQMGhO3bquh7Q6uICMPR7t27rU/QCMMLjNF9aVcFEYap8LzVVlZWNmrUKP9NzoqKCu0RRQMiDGvWpJMuXbqoTzqprKycN2+ef7rP6tWrVYYRlYgwAjSffpmenl5aWmrno9fW1vonviYnJ3eoia/2IMKIsXHjxjFjxlgpzpo169ChQ6F+RJaA2IMII0nzJXmxsbG5ubmhW5K3adOmsWPHWs3PnDnz4MGDIXogEGHkqampycvLsz71tGfPnkVFRY2NjUHcPx8LYDMijFRHjx599dVX/R/Tsm7duvbv8/bt2/7FRwkJCSw+sgcRRja32/3000/7p4ydOHGibfvho+IUEWHEe/CjO2/cuBHQHvbs2dP8Q1O3b98eoqHioYgwSly8eDE3N9eaR9a7d+8nnEfGx4eHAyKMKnv37p06dar1nJaVlfWY/5tKQ0OD//nT+h9pBPr8iWAhwmhjvbsbPHiw/43imTNnWmzjdruHDRvm3+DkyZMqQ4WFCKPT7du3/Quj4uLipk2bZt1RXLVqlXWbUUQyMzPXr1+vPVIYhzFGEKXOnj27cOHCL7/8UkRiY2NTU1MvXLggIl27dl26dOmCBQus95DQRYTRb9myZYsWLaqvr7f+cfTo0atWrUpPT9cdFfyIsEPweDwLFy68e/fuW2+95V8MgTBBhICyGO0BAB0dEQLKiBBQRoSAMiIElBEhoIwIAWVECCgjQkAZEQLKiBBQRoSAMiIElBEhoIwIAWVECCgjQkAZEQLKiBBQRoSAMiIElBEhoIwIAWVECCgjQkAZEQLKiBBQRoSAMiIElBEhoIwIAWVECCgjQkAZEQLKiBBQRoSAMiIElBEhoIwIAWVECCgjQkAZEQLKiBBQRoSAMiIElBEhoIwIAWVECCgjQkAZEQLKiBBQRoSAMiIElBEhoIwIAWVECCgjQkAZEQLKiBBQRoSAMiIElBEhoIwIAWVECCgjQkAZEQLKiBBQRoSAMiIElBEhoIwIAWVECCgjQkDZ/wAulhnfSh1EFQAAAABJRU5ErkJggg==;" vertex="1" parent="nSMvHfx7BpTb2uHLrpXf-11">
          <mxGeometry x="3.75" y="3.75" width="70" height="70" as="geometry" />
        </mxCell>
        <mxCell id="nSMvHfx7BpTb2uHLrpXf-14" value="" style="group" vertex="1" connectable="0" parent="1">
          <mxGeometry x="-790" y="-610" width="97.5" height="130" as="geometry" />
        </mxCell>
        <mxCell id="nSMvHfx7BpTb2uHLrpXf-16" value="" style="dashed=0;verticalAlign=top;fontStyle=0;whiteSpace=wrap;html=1;fillColor=none;" vertex="1" parent="nSMvHfx7BpTb2uHLrpXf-14">
          <mxGeometry y="-3.75" width="77.5" height="77.5" as="geometry" />
        </mxCell>
        <mxCell id="nSMvHfx7BpTb2uHLrpXf-9" value="" style="shape=image;verticalLabelPosition=bottom;labelBackgroundColor=default;verticalAlign=top;aspect=fixed;imageAspect=0;image=data:image/png,iVBORw0KGgoAAAANSUhEUgAAASwAAAEsCAIAAAD2HxkiAAAV+klEQVR4nO3da0xUZxoH8HeG4SoXRbwAKiqg4hVRwVu9Yq3KhzYp7qepSdOdtLvN2G2qpNk2o00/YJu1U3ez7jSp3Wl2a0LTpDtGbQp4RUVEK17wjgKioFyUiwgj8+6HdxxwpDAznDPPmZn/L6SZyrk8Cv8z75zzvOeoOOcMAOioqQsACHQIIQAxhBCAGEIIQAwhBCCGEAIQQwgBiCGEAMQQQgBiCCEAMYQQgBhCCEAMIQQghhACEEMIAYghhADEEEIAYgghADGEEIAYQghADCEEIIYQAhBDCAGIIYQAxBBCAGIIIQAxhBCAGEIIQAwhBCCGEAIQQwgBiCGEAMQQQgBiCCEAMYQQgBhCCEAMIQQghhACEEMIAYghhADEEEIAYgghADGEEIAYQghADCEEIIYQAhBDCAGIIYQAxBBCAGIIIQAxhBCAGEIIQExDXUB/rFbW1MQaG1lYGBs9mkVHUxcEICM33wnHjrV/mUwuLb9tm335jIzBF/7tN7Z1K0tPZ6GhLD6ezZrFUlNZTAyLjmavv85272YdHe5VC+AL3AxhQ4P9y8U8tLbal3/wYKDFamrYH/7A5s1jX37JKioY5y98t62N/e9/7E9/YikpzGRy/i6Aj1PAcLSigq1bx+7f7/2TmBiWlsZGjWIdHez+fXb1qj149fXs3XfZmTPsX/9iGgVUDiAF6l/lqiq2YgV79Mj+v0uWsG3b2PLlLDi4d5m6OrZnD9uxw/72++23zGZje/Z4v1gAOZCeHX32jGm1vQn89FN2/DjLzn4hgYyxxET26aesooIlJdn/5Lvv2I8/erNSAPmQhvA//2EnT9pfv/ce++wzplL97sLJyay4mA0bZv/fDz5gVqvsFQLIjzSEf/+7/UV8PNuxY/Dlk5PZZ5/ZX9+7x376Sa7CALyILoQXL7Jz5+yvN21iUVEurfXHP/a+Gf7733LUBeBldCE8caL39caNrq4VFcU2bLC/PnWK2WwSVwXgdXQhLC21vwgNZTNnurHiggX2F62trLJS4qoAvM7TSxStrezevcEXG+CafnW1/UVqqvPp0IH1TWx1tXsBBlAeT0O4fTvbvn1Ie25utr8YMcK9Ffsu39IypBrAi6qqqhoaGrKystRqTBt4Ad0/R2ur/YWLp2Qc+vZzO64xgoK1trbm5OSkpKQsXrw4Jibm22+/pa5IWTx9J5w4kcXHD77YnTsv9KP1FRpqf9Hd7d6uu7p6X4eHu7cueN1HH3309ddfP3v2jDGmUqna29vfeeed/Pz8H3/8MT09nbo6ZeBuYcz+9be/ubT8X/5iXz4x0flbCxfav5WZ6V4NR470lvHTT+6tC15UWVn56quvil+z0NDQHTt21NfXL1myxPEnBoOhs7OTukx6dMPR2Fj7i7o691bsu7xjI6Akzc3NmzdvnjVr1q+//hoVFZWbm9va2rp169YxY8aUlJQcP358xowZXV1d27dvnzJlyvfff09dLzG6EM6ZY39RVzfIRCcnjkv8KlXvRkAZrFbrN998M3Xq1F27dqlUKp1OV1VVVVBQEBIS4lhm6dKlly5dOnTo0OzZs2trazdt2rRq1aoLFy4Qlk3MvTdOCYejP//s4ahywQL7WtOmubEWyK+wsHDm8ytGq1evvnjx4sDL9/T0mM3mUaNGMcbUarVWq21oaPBOqYpCF8KmJh4WZv/u66+7WsDly701bN7seuEgq+vXr+fm5or4paamFhQUuL5uc3NzXl6eeKscMWJEfn5+V1eXfKUqEF0IOeebNtm/GxTEy8td2uCbb9pXUan41atuVA7yaGtrMxgMoaGhjLHIyEiDwfD06VMPtnP16tX169eLGE+dOnX//v2Sl6pYpCH87TceFGRfID2dP3o0yNb++9/eApzePEtK+D/+wa1W1/4aIAExmBwzZoxjMFlfXz/EbRYWFk6fPl1EMTs7+/Lly5KUqnCkIeSc//WvvducP59XVfW/mM3Gd+/mGo19ydhYXlfX+92eHj5/PmeMT53KA+kISujIkSOOq3xZWVmlpaVSbbm7u9toNMbExDDGgoOD9Xr9o0GPzj6OOoRdXXz16t7NhoXxP/+ZFxVx8QG9s5PfvMlNJp6Z2btMaCi3WJy3Y7Hw5GT7AtnZvLLSvb8XuKy2tlar1apUKsbYuHHjzGazzWaTfC+NjY16vT4oKIgxNnLkSKPR+OzZM8n3ohDUIeScP33KN27s3bLjS6Xq5w9jYnhxcf/b6e7mRiOPjuaM8eBgrtfzx4/d+9vBgDo6OgwGQ3h4OGMsIiIiLy+vra1N1j2ePXv2lVdeEe+3GRkZx44dk3V3VBQQQqGwkM+c2U/qHF9qNddqXxiF9uvhQ67X2z9qxsVxo5H77xHUa2w2W0FBQVJSEmNMpVLl5ubeuXPHa3u3WCwTJ04UUczJybl9+7bXdu0dKu7WbTw/+cT+Yv16tnjx4MsfPGifvBsTw7ZsGWThnh52+jT75RdWXs4aGlhjIwsPZ6NGsaQklp3N1q51qVtVOHeObd7MSkoYYywjg339NVu61NV14UVnz5794IMPSkpKGGPz5s0zGo1Lvf6P2dnZuWvXrs8//7y9vT08PFyv13/yySeRkZFeLkMu1EcBOVksPCnJ/kaak8P97ggqt3v37ul0OjHzKD4+3mQy0X4wu3v3ruPjaGJiokwfR73Pr0PIOe/o4Pn5PDKSM8YjInheHpf5Y4x/EKcoo6Oj2fNTlI8V8wH79OnTCxcuFG8hmZmZJ0+epK5oqPw9hEJtLddq7Wd6xo3jZjP3iyOoTCwWS3Jysvgtz8nJuXnzJnVFzmw2m9lsHjt2LGNMpVJptdr79+9TF+W5wAihUFrKs7Lso9OsLH7qFHVBinPlypV169aJ+E2bNu3AgQPUFQ2kvb3d0awzbNgwj5t1yAVSCDnnPT3cbOZjxvSebh1yk4d/aGpq0uv1Go2GMTZixAij0Wj1kfajGzduONpWU1JS3GpbVYgAC6HQ1sYNBh4ayhnjkZHcYOC+eQSVhNVqNZlMYiqDRqPR6XQPHjygLsptxcXFs2bNElEUE6OoK3JDQIZQuH6d5+baR6epqdwHj6BDV1RU5Lu/u05892gSwCEUiop6mwRWr+aDTYHzG34wiutXc3Ozz42rAz6EnHOrlZtMPC6OM8Y1Gq7T8YcPqWuSkd+czxiAb51hQgifa2rq7XeLjeVGo/9NjPKzM/uDUv61FgEhfFFlJV+7tvf2GQcPUhckGadr3KcC4wqNkrsOHBDC/lgsfPLk3n63W7eoCxoSf+32cp3ovxMTo5TQf+cEIfwdnZ3888/5sGFiluOJL7+Ue9qOHJ48eZKfny8ancPDw70w+UjJysvLHa3nGRkZx48fp67IDiEcUF0d1+mepqREBAeLI2hPTw91Ta7y+xlAHug7J0v8s3hzTtbvQQgHd+n06czMTPFjk/ZWDjIJkLmwHvP+7OSBIYQuEUfQCRMmsOezWqurq6mL6kdA3RViiLxznw5XIIRuEEfQsLAwcQRV1KMUAvD+SJIoLS3NysqiHeYghG6rqanRarXixzZ+/HglnGwMzDsFSkWOeze6BSH00OHDh+c8fxLGihUrzp8/T1JGIN8zV1pS3cXYAwih58QRdPTo0YziUQq4e7wchnI/f48hhEPV0tLiCMPw4cPz8/PlPoLiOSpyc/fJNkOEEErj2rVrGzZsED+2KVOm7Nu3T6YdiSeKiR2tXLmyoqJCph0FuO7ubpPJFBcX55gY9VC2tn6EUEqFhYUzZsxwnCC5dOmShBt/+YSQhBuHfokbDohLPrGxsTJd8kEIJSbHpQIx+UhcGhGTj5RzaSQQVFZWrl27Vhz+0tLSDkrd1o8QykKqi+ZOk49yc3NramokrxZcYbFYJk+e7Oh3uyVdWz9CKKNz584tW7ZM/Njmzp179OhRt1YvKytbtGiRWH3BggUnTpyQqU5wUVdXl2NiVEhIiFQToxBC2VkslkmTJjmOoFW/9/i3Purq6hwdVQkJCb7VOO736urqnG5MPsSfDkLoDWJKUVRUlGNKUWtr6xCXBFpnzpxZ/PxxLPPnzy8pKfF4Uwih9zi9v73c7+bBeyYQcmrrX7ZsWVlZmQfbQQi9zemTnniUQt9Pj+np6e5+egRCoq1f9LsxxpYvX97S0uLWFhBCAj09PXv27BHnPNVq9cyZM8UHjNGjRyvtzgvgolOnTiUkJIgcajSaf/7zn66vixCSEVf/QkJCkpKSNBoNJh/5gZ07dzou57q+lpsPCQWpffjhh1999dW77767e/du6lpAAt3d3WJo6nqy1HLWA4OLjY1ljI0cOZK6EJCGaOV3C0IIQAwhBCCGEAIQQwgBiCGEAMQQQt9gs9neeOONN998k7oQkJ6GugBwic1m+/nnn8UERfAzeCcEIIYQAhBDCAGIIYQAxBBCAGIIIQAxhBCAGEIIQAwhBCCGEAIQQwgBiCGEAMQQQgBiCCEAMYQQgBhCCEAMIQQghhACEEMIAYghhADEEEIAYgghADGEEIAYQghADCEEIIYQAhBDCAGIIYQAxBBCAGIIIQAxhBCAGEIIQAwhBCCGEAIQQwgBiCGEAMQQQgBiCCEAMYQQgBhCCEAMIQQghhACEEMIAYghhADEEEIAYgghADGEEIAYQghADCEEIIYQAhBDCAGIIYQAxBBCAGIIIQAxhBCAGEIIQAwhBCCGEAIQQwgBiCGEAMQQQgBiCCEAMYQQgBhCCEAMIQQghhACEEMIAYghhADEEEIAYgghADGEEIAYQghATENdALhErVZv2bIlKCiIuhCQHkLoG9Rq9RdffEFdBcgCw1EAYgghADGEEIAYQghADCEEIIYQEquqqnL8F/xAdXW1u6sghGRqa2vfeuut7777LjExce/evWvWrKmsrKQuCjxntVrffvvtyZMnM8ZGjRrlxpocvK6tre3jjz8OCwtjjEVGRm7YsCE6OpoxFhISsmXLlsePH1MXCG774YcfwsPDRaZiYmL27dvn+roIoVfZbLaCgoIJEyYwxlQqVW5ubnV1Nee8sbFRr9eLhpiRI0cajcZnz55RFwsuqa2t1Wq1KpWKMRYUFKTT6Xp6etzaAkLoPWfOnFm8eLE4WM6fP//EiRNOC5w9e/aVV14RC8ydO/fo0aMkdYKLOjo6DAaDeAOMiIh47733mpqaPNgOQugNdXV1Op1OrVYzxhISEkwm0wAHS4vFMnHiRBHFnJyc27dve7FScIkY0SQlJTlGNHfu3PF4awihvLq6uoxGY1RUlPjIp9frW1tbB13ryZMn+fn5kZGRjLHw8PC8vLy2tjYvVAuuKC8vX7JkiThKzps37/jx40PcIEIoI4vFIs6Vife0W7duubX63bt3HR82EhMTzWazzWaTqVRwxb179xwjmvj4eJPJJMlHd4RQFpWVlWvXrhXxS0tL++WXXzze1OnTpxcuXCg2tWDBgpMnT0pYJ7iou7vbaDSKk9jBwcF6vV7Ck9gIocSampoc5zljY2MlOc9ps9nMZvPYsWPFJxCtVnv//n1JqgVXWCyW5ORkx4jm5s2b0m4fIZRMd3e3yWSKi4sTB0udTvfw4UMJt9/e3m4wGEJDQxljw4YNMxgMnZ2dEm4fXnblypXXXntNxG/atGkHDhyQYy8IoTQKCwtnzJghflrZ2dkXL16UaUc3btzIzc0VO0pJSSkoKJBpRwFOjGg0Go1jRGO1WmXaF0I4VNevX3ekIjU11TupKC4unjVrltjpqlWrLly44IWdBgir1eoY0Wg0Gp1O9+DBA1n3iBB6rqWlJS8vT4wPIyMjDQbD06dPvbZ38bsiehS987sSCIqKirx/dEMIPdHT02M2m8eMGcMYU6vVWq22vr6epJLm5mbHqGnEiBGyjpr8G+E4HyF025EjR9LT08VPKysrq7S0lLoifuXKlXXr1omSpk6dKtP5A3/18hkvb45oOELolr6tuuPGjVPa1XO5z6T7HzGiIb/2gxC6xKlV12AwPHnyhLqofsh6TdnP9O2CyMzMPHXqFFUlCOEgpG3V9Q7RXSUaBuLi4jAxyonS+gERwoFI3qrrTeXl5UuXLhXFZ2Rk+FbxMuno6FBgZzxC2L+XW3XdnampBH3fxsUHReW/jctHsXPEEEJn/vexqu/hPyIiQiGHf2/qO1s6IyPj2LFj1BW9ACF8gR+fYFT4qV2Z+MR9QxBCO++06pIrLS3NyspyXOQkPCUoNzGiiYmJcYxoHj16RF1U/xBCr7bqKoFy2n3kU1hYmJaW5uinv3z5MnVFAwnoEHq/VVc52traHG0i3m98lc/Vq1fXr1/vaB7av38/dUWDC9wQkrTqKg3JFBCZNDc35+XlhYSEiDba/Pz8rq4u6qJcEoghxJQ8J0VFRTNnzhT/IKtXr5ZvMqRMxABbTCgRA2zfGtEEVgjJW3UV6+WRubS3BZBPcXHx7NmzxRFk5cqVFRUV1BW5LVBCqJBWXYV7+QY5Sj5HdfPmTceIZvz48WazmboiDwVECJXTqusTKisr+16tOXjwIHVFzsSIRjzMww9ut+PnIVRaq64PGeJNU2XidOO53Nzcmpoa6qKGym9DqMxWXd8ibh/ueGIUeQdfWVnZokWLxHHBn27B6p8hVGyrri/q+yANql72viOahIQEPxvR+FsIFd6q67vOnDnTd1ZXSUmJd/YrHsshHuYhRjSuPMzDt/hPCH2iVdenvfxwRbknRlkslkmTJjlGNFVVVbLujoo/hNCHWnX9gLjThzgzKe70IceZyXPnzi1btkzEz+8f1ejzISwsLJw+fbqvtOr6jZqaGq1WK/7ZpZ0YFYAjGh8OoS+26vqZw4cPz5kzR/wIli9ffv78+aFsLWBHND4ZQt9t1fU/ohVp9OjRjr7NhoYGD7bj9DCPS5cuSV6qYvlYCF9u1fXsRw7S6vtEgOHDh+fn57velHvt2rUNGzaI+E2ZMmXfvn2ylqpAvhTCQ4cO+Xqrrn+7du1aTk6O63ES0RUjGhHdwBzR+EYIq6urHacBfLpVNxC4MrCUahDrH5QeQj9r1Q0QfU+xBAUFzZ07t+8VxZ07d4pvMcZWrFgxxNM5fkC5IfTLVt2A0tjY+P7774uwqVSqjRs3HjlyRFzrF2fUMKIRlBvCbdu2iZ/WokWLysrKqMsBD+3du9fxvucI5Jo1a1paWqhLUwrlhrC+vj4tLc1Hb30NTrZu3RocHMwYS0pKwiHViYpzzpSKcy4a58EPdHd3d3Z2Or0rAmNM0SEECARq6gIAAh1CCEAMIQQghhACEEMIAYghhADEEEIAYgghADGEEIAYQghADCEEIIYQAhBDCAGIIYQAxBBCAGIIIQAxhBCAGEIIQAwhBCCGEAIQQwgBiCGEAMQQQgBiCCEAMYQQgBhCCEAMIQQghhACEEMIAYghhADEEEIAYgghADGEEIAYQghADCEEIIYQAhBDCAGIIYQAxBBCAGIIIQAxhBCAGEIIQAwhBCCGEAIQQwgBiCGEAMQQQgBiCCEAMYQQgBhCCEAMIQQg9n9vRhLot6xucwAAAABJRU5ErkJggg==;" vertex="1" parent="nSMvHfx7BpTb2uHLrpXf-14">
          <mxGeometry x="3.75" width="70" height="70" as="geometry" />
        </mxCell>
        <mxCell id="nSMvHfx7BpTb2uHLrpXf-13" value="&lt;div&gt;&lt;pre style=&quot;font-family:&#39;JetBrains Mono&#39;,monospace;font-size:9.8pt;&quot;&gt;&lt;font face=&quot;Courier New&quot; style=&quot;background-color: rgb(255, 255, 255);&quot; color=&quot;#1e1f22&quot;&gt;expand_pubchem&lt;/font&gt;&lt;/pre&gt;&lt;/div&gt;" style="text;whiteSpace=wrap;html=1;" vertex="1" parent="nSMvHfx7BpTb2uHLrpXf-14">
          <mxGeometry x="-80" y="60" width="140" height="70" as="geometry" />
        </mxCell>
        <mxCell id="nSMvHfx7BpTb2uHLrpXf-51" style="edgeStyle=orthogonalEdgeStyle;rounded=0;orthogonalLoop=1;jettySize=auto;html=1;exitX=0.5;exitY=1;exitDx=0;exitDy=0;entryX=0.5;entryY=0;entryDx=0;entryDy=0;" edge="1" parent="1" source="nSMvHfx7BpTb2uHLrpXf-16" target="nSMvHfx7BpTb2uHLrpXf-10">
          <mxGeometry relative="1" as="geometry" />
        </mxCell>
        <mxCell id="5G6M97Ru5O6IGqaMy1Rf-37" value="Users" style="outlineConnect=0;fontColor=#232F3E;gradientColor=none;fillColor=#232F3E;strokeColor=none;dashed=0;verticalLabelPosition=bottom;verticalAlign=top;align=center;html=1;fontSize=12;fontStyle=0;aspect=fixed;pointerEvents=1;shape=mxgraph.aws4.users;" parent="1" vertex="1">
          <mxGeometry x="-1040" y="-595" width="40" height="40" as="geometry" />
        </mxCell>
        <mxCell id="nSMvHfx7BpTb2uHLrpXf-62" style="edgeStyle=orthogonalEdgeStyle;rounded=0;orthogonalLoop=1;jettySize=auto;html=1;" edge="1" parent="1" source="5G6M97Ru5O6IGqaMy1Rf-37">
          <mxGeometry relative="1" as="geometry">
            <mxPoint x="-790" y="-575" as="targetPoint" />
          </mxGeometry>
        </mxCell>
        <mxCell id="nSMvHfx7BpTb2uHLrpXf-65" value="" style="dashed=0;verticalAlign=top;fontStyle=0;whiteSpace=wrap;html=1;" vertex="1" parent="1">
          <mxGeometry x="-280" y="-850" width="560" height="560" as="geometry" />
        </mxCell>
        <mxCell id="nSMvHfx7BpTb2uHLrpXf-69" value="" style="dashed=0;verticalAlign=top;fontStyle=0;whiteSpace=wrap;html=1;fillColor=#FFFFFF;" vertex="1" parent="1">
          <mxGeometry x="-250" y="-750" width="260" height="440" as="geometry" />
        </mxCell>
        <mxCell id="nSMvHfx7BpTb2uHLrpXf-74" value="" style="shape=image;verticalLabelPosition=bottom;labelBackgroundColor=default;verticalAlign=top;aspect=fixed;imageAspect=0;image=data:image/png,iVBORw0KGgoAAAANSUhEUgAAASwAAAEsCAIAAAD2HxkiAAAU6ElEQVR4nO3dWVCUV/rH8afZQUAWFxRQ3FA0QaNiXIKoseLGmPGCi0zspDIXVMqp6jg1lfRUzUy1SS7si/lXWjMzCWPV1LRXBCtTpolLghpxZ3NJEAEXFFBRFEQEZOvzvzhtSwiGfnt7uvv9fcpKUfp29xH89vKec95ohBAEAHyCuAcAoHaIEIAZIgRghggBmCFCAGaIEIAZIgRghggBmCFCAGaIEIAZIgRghggBmCFCAGaIEIAZIgRghggBmCFCAGaIEIAZIgRghggBmCFCAGaIEIAZIgRghggBmCFCAGaIEIAZIgRghggBmCFCAGaIEIAZIgRghggBmCFCAGaIEIAZIgRghggBmCFCAGaIEIAZIgRghggBmCFCAGaIEIAZIgRghggBmCFCAGaIEIAZIgRghggBmCFCAGaIEIAZIgRghggBmCFCAGaIEIAZIgRghggBmCFCAGaIEIAZIgRghggBmCFCAGaIEIAZIgRghggBmCFCAGaIEIAZIgRghggBmIW4egePH9OpU9TcTO3tFB5OiYmUmUmZmaTRuGN4AIHPhQjLyshgoKNHaWBg+B8lJdG2bfTHP1J0tCuDA1ADjRBC8Y2EoL/8hYxGGnrb+Hh6+pR6ep7/zpQpdPAgzZvnhmECBC6nPhP+6U+0cycJQRoNbd1KpaXU309tbdTdTXfu0L/+RcnJRESNjZSdTXV17h0xQIBR/kp48CDl5pIQFB5ORUW0efMIx3R20m9+Q6WlRERZWXT6NIWGumGwAIFI4SuhEPTRR7Z3oX//+8gFElFMDFkslJpKRFRRQUVFrg0SIJApjPD4cbp8mYho5kzatu3XjoyNpU8/tX39z386NTYAVVAY4eHDti+2bqWg0W6bl2c7O3ruHLW3Kx8bgCoojPDcOdsXy5ePfnBUFC1aREQkBJWVKRwYgFoojLChwfZFRoZDx8+dO/yGAPBzCiO0v6uMj3foePtheDvqeaWlpZs3b96yZUtTUxP3WNTr3r17X331laKbKIzw6VPbF2FhDh0fEWH7YugkPrjb/fv3s7OzV61aVVxcvH///rS0tLfeequ/v597XOrS39+/a9eu2bNnb926tbq62vEbKoxw7FjbF11dDh3f2Wn74pevnJWVyh4aRiKEMJvNaWlpp06dIqKUlJSYmBir1VpYWDhjxoyTJ09yD1AtiouL582bt3379o6Ojg0bNowZM0bBjYUiM2cKIkEk6uocOv7dd23H/+c/P/v9ykoRFCRWrRIXLyobAAxRUVGx/NkZsujo6D179gghrFbrhx9+GB4eLn8/Nzf3xo0b3CMNZLW1tRs3bpTf7dmzZx84cEDpPSiM8Le/tUW1b59Dx8+fbzu+svJnv79/vxg3ThCJ4GDx/vuitVXZMFTv9u3b+fn5QUFBRDR58uSCgoLBwcGhB3R3dxuNxujoaCKKjIzU6/WPHz/mGm2gamtr0+v1YWFhRBQfH280Gnt7e524H4UR7txpi+r990c/+M4dERIiiERkpOjrG/6n7e1CrxdhYYJIxMUJo1E49RdQm97eXpPJFBMTQ0RhYWE6ne5X6mpubtZqtRqNhoiSk5PNZrPVavXmaAPV4OCg2WweP348EQUFBWm12nv37jl9bwojrK8XGo0gEgkJYtRn1k8/tRX7u9+98Ji6OrFpk+2w9HRRXKxsPCpjsVimTZtmf595/fp1R25VXl6+bNkyeausrKwzZ854epyB7dixY5mZmfL7uXr16kuXLrl4hwojFEKsX29r5g9/+LXDbtwQ0dG2I8+eHeU+S0rEvHm2g9euFdXVikcV6GpqatatWyd/8BkZGYcPH1Z0c6vVajabk5KSiEij0Wi12rt373poqAGssbFRq9XKn0JqaqrZbHbL3SqP8MoVERlpC+ZvfxMDAyMcU1srpk+3HfP73zt0t319wmQSY8cKIhEaKnQ68eiR4rEFoocPH+p0uuDgYCJKSEgwmUwDI37PHfDkyRODwRAREUFEY8aMMRgMPT097h1toPLot055hEKI//5XBAfbGsvMFP/4h7h0Sdy7J27eFN99J7ZtE+Hhtj9duFB0dCi45wcPhE5nu/PERGEyjRy5OvT19RUUFIwbN46IQkND8/PzW91xBuvq1at5eXny6XzmzJlFRUWu32cAs1qtRUVFqamp8k1EXl7erVu33PsQTkUohPj6axEXZyvtRb9yc0f/3Dii8+fFypW2O3nlFVFa6uQg/VlJScm8ZxclWLt27U8//eTe+z969OjLL78s73/NmjWuf7AJSOXl5fZJoKysrNOnT3viUZyNUAjx8KH485+fzxzaf0VGivXrhcIPLSOwWMS0ac97Vs1kV319fW5urvzBz5o1y3OvVP39/QUFBfIUX0hISH5+/v379z30WH5n1EkgN3IhQruGBnHypPjf/8TBg+L8edHdPcIxFouoqFB8z93dwmgUMTG2tvV6J19a/UR7e7ter5fz7NHR0QaD4enTp55+0La2Np1OFxIS4uJkV8CQU6wOTgK5hTsiHFVHh0hKEhqNyMsTjY2Kb97cLLRa29TI5MnCbBYBN9kl550mTpxon3dqaWnx5gBqa2s3bNjgyrKPwDBsEsg7i428EmFnp9DrbWdrYmKE0SiceIIvLxfLltnenWZliQCa7Dp+/PiCBQvkDz4nJ+fChQtcI7FYLDNmzLB/EK2pqeEaifdduHBh5cqV8u++YMGC48ePe+2hvRKhdO2ayMuzVZSaKpyYY7FahdkskpIEkfOvq76kqanJvqIlJSXFF1a09PX1mUym2NhYeUpWp9N1KDq/7YcePHjgrkkg53gxQunoUZGZaUtx9WrhxEm5J0+EwSAiIgSRGDNGGAzCDye7urq6DAZDZGQkEUVFRRkMhu4RP0szaW1ttf+7HDdunPf/XXqHfMYZO3as/Rmnvb3d+8PweoRCiMFBYTaL8eMFkQgKElqtcOKk3K1bQqt16XWViZx3mjp1qn3e6ebNm9yDGllVVdVrr70m36EtXLjwxIkT3CNyp2GTQNV867Q4IpTa2p4v4I6Pd3IB98/Xu9X7/Hq3ysrKFStWyB/8okWLTp48yT2i0VksFvmUIc9VNDQ0cI/IVXV1dfZJoPT09GLuFct8EUq1tWLjRltFs2cLJ07KPXtdbVixQp5X9M3Jrjt37tjnnSZNmuTReSe36+rqsm+MioqK0uv1nZ2d3INyxtBJoLi4OKPR6IVJoFFxRyiVlIiMjOcLuC9fVnwPDx/+n14vJ7sSEhJ2797d39/vgYE6Q24+CoBTHT54GslxchJowoQJXJNAv8I3IhTPFnDHxrqygNv1Pc5uZ7FYpk+fbn8vd+3aNe4RuercuXOvvvqq/BstWbLk7KhbZHzADz/8MH/+fPsk0EUfu56Dz0Qotba6voC7pKRk7rNLLa5du/ayE6+r7nDlypX169fLYcyZM+fgwYMsw/AE9qUFjpObj3z81dvHIpSqqkR29vN9GMpPyv3y1PMjL26MkpuP7O+NTSaT77w3dqPOzk6DwSA/X8ndPb7w+cpOTgLJzUdyEshn9235ZISSxSLS0p4v4FZ+Um7oJGxiYqIXJrvkkmi5+UglS6Lr6+vtG6M8utzccXISaMqUKb4/CST5cIRCiK4uYTTaduhHRQm9Xig/KVdVVZWdne2Fya4jR47YNwe9/vrrP/74o4ceyAcdOXLkpZdesv/d3b7xynEVFRVDJ4FOnTrFNRLH+XaEUlPT8wXcycnOLeC2WCxpaWkemuzCNlkx0rsAt2xBdpz/TgL5Q4TSuXNi6VLbu9MlS0a/bs0vDJ3sklcBdH2yS171wGc/F3kfy+fhoZNAcvORf00C+U+EQojBQfHvf4sJE+R6txN//asT15lz11UAh54hxKWThhl2ZvjQoUOee6xhk0AOXoHOp/hVhFJnpzAYemfNig0Pd/rFp6ysbOnSpU5Pdrl4c5XwdB7eTN2j/DBCIYQQDfX1mzZtcmX5n3wpU3oVQFxOVxEPvVEMsEkgf41Qcv2knOMf6jzxkVIl3HjKhP30jyf4d4TCTT+VUU9vevTkqkq4PnngOxMh7uX3EUpueX8y4kSf16YZ1cDpaXQfXBLgRgESoeT6J3W53i0+Pl6ud1u8eLE3F9yohKIFZT6+OM4tAipCyfWTci0tLfZr/nh/6alKjLq02o+WibsoACMUrp2U++STT+Q1J4lozZo1XJswVOJFm4z8ccOU0wIzQknpSblvvvkmMTFR/uCTk5O///57rw1VzQYGBr744gt5ai04OPjtt99+88035U9hypQphYWFAT8JFMgRSsMu6/Kik3ItLS1RUVHyhMHmzZu7urq8PE6Vs194IiQkRKPR+PVFNJQK/AiFYyflvv76a/lMXF9fzzJIEEKUl5cTUURERKOfX1FWkSBSARnelStX5Hm2ffv2zZ07d8eOHT09PcOODA0NnTVrFssggYjS09OJKCwsTP6vyFRCFRFKUVFRO3bsuHr1qlar7enp+fjjj9PT0/fu3SuE4B4aqJqKIpRSUlL27t177Nix+fPnNzc3v/vuu6tXr7548aK8FoY8oQrgTaqLUFq1atX58+flNfBKS0sXLVq0a9cuIpKXxAPwJpVGSERBQUHvvPNOXV3d9u3bg4ODi4uLiai/v597XKA66o1QiouL++yzz6qrq3NycogoNDSUe0SgOmqPUEpPT//888+5RwEqhQgBmCFCAGaIEIAZIgRghggBmCFCAGaIEIAZIgRghggBmCFCAGaIEIAZIgRghggBmCFCAGaIEIAZIgRghggBmCFCAGaIEIAZIgRghggBmCFCAGaIEIAZIgRghggBmCFCAGaIEIAZIgRghggBmCFCAGaIEIAZIgRghggBmCFCAGaIEIAZIgRghggBmCFCAGaIEIAZIgRghggBmCFCAGaIEIAZIgRghggBmCFCAGaIEIAZIgRghggBmCFCAGaIEIAZIgRghggBmCFCAGaIEIAZIgRghggBmCFCAGaIEIAZIgRghggBmCFCAGaIEIAZIrRpbGwkoqamJu6BqFpXV5f9v+qBCG16e3vt/wUug4ODRGS1WrkH4lWIEIAZIrQJCgoiot7e3t27d3OPRaUGBgY++ugjItJoNNxj8SpEaJObmzt58mQhxAcffJCamnr69GnuEanLl19+GRcXV1hYSESbN2/mHo53CXims7Nzy5Yt8mk4JCREp9M9fvyYe1CBr7m5WavVyn+NwcHB+fn5g4OD3IPyKkQ4XFVV1bJly+S708mTJxcUFKjt34TXdHd3G43GmJgYIoqMjMzJybl37x73oBggwpFVVFQsX75cPj0vXrz49OnT3CMKNBaLJS0tTX6Hc3Nzb9y4wT0iNojwhaxWa1FR0ZQpU4hIo9Hk5eXdunWLe1CB4Pz58ytXrpT5vfLKK6WlpdwjYoYIR/HkyRODwRAREUFEUVFRBoOhp6eHe1D+6sGDBzqdLjg4mIgSExNNJtPAwAD3oPghQoc0NjbaTx6kpqaazWbuEfmZvr4+k8k0duxYIgoNDdXpdI8ePeIelK9AhAocO3YsMzNTprhq1aqLFy9yj8g/lJSUzJ07V37f1q5de/nyZe4R+RZEqMzg4KDZbJ4wYQIRBQUFabVadZ7Qc1BdXd2mTZtkfunp6d9++y33iHwRInRGW1ubXq8PCwsjori4OKPR2Nvbyz0o34JvkeMQofPwND8ivFlQChG6atgHnurqau4RcRr6sXn16tX42OwIROgGOPUncALZBYjQbVQ7CTZ0KnXMmDGYSlUKEbqZqpaDYFGRWyBCj1DDwsjy8nIsr3ULROgpw7YI6PX6gNkYdfv27fz8fGw0cRdE6Flys5zco5icnGw2m61WK/egnNfb22symeQzS1hYGLZcugUi9Iby8vJly5bJd25ZWVlnzpzhHpEzLBbLtGnT7O+xr1+/zj2iAIEIvcRqtZrN5qSkJHkOQ6vV3r17l3tQjqqpqVm3bp3MLyMj4/Dhw9wjCiiI0Kv87mz+w4cP7fMuCQkJ6pl38SZEyODq1at5eXnyhWXGjBlFRUXcIxqBXIEQFxcnVyDk5+e3trZyDyowIUI2R48eta/wWrNmzaVLl7hH9FxJScm8efOwFs87ECGn/v7+goKC8ePH29c6379/n3dIdXV1ubm5Mr9Zs2YVFxfzjkcNECG/trY2nU4XEhJCRPHx8Vy7ftrb2/V6fXh4uH3z0dOnT70/DBVChL6itrZ248aN8iVo9uzZBw4c8NpD/3LzUUtLi9ceHRChbykpKcnIyLB/GKupqfH0Ix4/fnz+/PnyEXNyci5cuODpR4RhEKHPkaclY2NjPb0xqqmpyb6aJyUlxd9X8/gvROijWltbPbcxqqura9h1HLu7u91156AUIvRpVVVV2dnZ8r3iwoULT5w44eIdys1HU6dOtW8+unnzpluGCk5DhH5g2MaohoYG5+6nsrJyxYoV8n4WLVp06tQptw4TnIQI/UNXV5fRaIyOjpZvIPV6fWdnp+M3v3Pnjn3z0aRJk7D5yKcgQn/ixMYouflInuaRm486Ojq8M1pwECL0P2VlZUuXLpXvKpcsWXL27NkXHWmxWKZPn47NRz4OEfolOb0+ceJE+8ao2traoQeUlZWtX79e5jdnzpxDhw5xDRVGhQj9mNwYJReayan2jo6Oa9eu2Sff5eaj/v5+7pHCr9EIIQj8WX19/bp1627evElEISEh8owLEb3xxhuFhYXx8fHM44PRBHEPAFyVnp7e0NCwc+fO8PBwOaGfkJCwf//+7777DgX6BbwSBo7u7u49e/bExsa+99573GMBBRAhADO8HQVghggBmCFCAGaIEIAZIgRghggBmCFCAGaIEIAZIgRghggBmCFCAGaIEIAZIgRghggBmCFCAGaIEIAZIgRghggBmCFCAGaIEIAZIgRghggBmCFCAGaIEIAZIgRghggBmCFCAGaIEIAZIgRghggBmCFCAGaIEIAZIgRghggBmCFCAGaIEIAZIgRghggBmCFCAGaIEIAZIgRghggBmCFCAGaIEIAZIgRghggBmCFCAGaIEIAZIgRghggBmCFCAGaIEIAZIgRghggBmCFCAGaIEIAZIgRghggBmCFCAGaIEIAZIgRghggBmCFCAGaIEIAZIgRghggBmCFCAGb/DyevWY5toAxAAAAAAElFTkSuQmCC;" vertex="1" parent="1">
          <mxGeometry x="-230" y="-490" width="85" height="85" as="geometry" />
        </mxCell>
        <mxCell id="nSMvHfx7BpTb2uHLrpXf-68" value="" style="shape=image;imageAspect=0;aspect=fixed;verticalLabelPosition=bottom;verticalAlign=top;align=left;fontFamily=Helvetica;fontSize=12;fontColor=default;fillColor=none;gradientColor=none;image=https://media.licdn.com/dms/image/D4D12AQGxvm9UwK5O4Q/article-cover_image-shrink_600_2000/0/1719209758488?e=2147483647&amp;v=beta&amp;t=MoLSFuGPzIGSd5D9yOznekI9xnleeSWsUw67590fFxA;clipPath=inset(22.93% 28.67% 35.71% 29.67%);" vertex="1" parent="1">
          <mxGeometry x="-210" y="-748.04" width="214.37" height="94.33789406305009" as="geometry" />
        </mxCell>
        <mxCell id="nSMvHfx7BpTb2uHLrpXf-64" value="" style="shape=image;verticalLabelPosition=bottom;labelBackgroundColor=default;verticalAlign=top;aspect=fixed;imageAspect=0;image=https://upload.wikimedia.org/wikipedia/commons/thumb/c/ca/Uniprot-logo.img.svg/1200px-Uniprot-logo.img.svg.png;" vertex="1" parent="1">
          <mxGeometry x="60" y="-850.83" width="220" height="100.83" as="geometry" />
        </mxCell>
        <mxCell id="nSMvHfx7BpTb2uHLrpXf-87" value="" style="shape=image;verticalLabelPosition=bottom;labelBackgroundColor=default;verticalAlign=top;aspect=fixed;imageAspect=0;image=data:image/png,iVBORw0KGgoAAAANSUhEUgAAASwAAAEsCAIAAAD2HxkiAAAXnklEQVR4nO3de1RU9foG8HeIcDIhMQXzUqY4IxcVElgakud4I5cooqmAGkkSiSYg3qUgb2mn1c1VmS3LcxIhO+nxsjSzi1aGVop3YBTz7mAyBhMMMMPM74/dmX51TPaG2fPuGZ7PX+X6zp5nuXz4bmb2frfKZrMRAPDx4A4A0NqhhADMUEIAZighADOUEIAZSgjADCUEYIYSAjBDCQGYoYQAzFBCAGYoIQAzlBCAGUoIwAwlBGCGEgIwQwkBmKGEAMxQQgBmKCEAM5QQgBlKCMAMJQRghhICMEMJAZihhADMUEIAZighADOUEIAZSgjADCUEYIYSAjBDCQGYoYQAzFBCAGYoIQAzlBCAGUoIwAwlBGCGEgIwQwkBmKGEAMxQQgBmKCEAM5QQgBlKCMAMJQRghhICMEMJAZihhADMUEIAZighADOUEIAZSgjADCUEYIYSAjBDCQGYoYQAzFBCAGYoIQAzlBCAGUoIwAwlBGCGEgIwQwkBmKGEAMxQQgBmKCEAM5QQgBlKCMDMkzsANF9DQ0NcXNzevXvtf+Ll5dWmTRvGSM5XX1/f0NBg/9+YmJjt27d7eXkxRpJKZbPZuDNAMyUmJhYWFnKnUJyEhISCggLuFBKghK7qp59+CggIsFqt6enpCxYsEP5QrVar1WreYE5WV1dXV1cn/PeaNWveeecdlUp19uzZXr168QYTDyV0VaGhocePH/f19TUYDNxZFKRjx46VlZWhoaHFxcXcWcTCBzMu6dSpUydOnCCi9evXc2dRlvfee4+Ijh8/fvz4ce4sYqGELmn+/Pk2my0+Pv6JJ57gzqIs8fHx48aNs9ls8+bN484iFk5HXc/OnTvHjh3r6+ur0+k6duzIHUdxDAaDRqOprKzcuXNnbGwsd5ymYSd0MQ0NDcLP+NzcXDTwtjp06JCTk0NEmZmZ9fX13HGahhK6mDfeeEOn0wUGBqanp3NnUa7Zs2eHhISUl5evXbuWO0vTcDrqSm7cuKHRaKqqqvbs2fP4449zx1G0zz//fMSIEd7e3jqdrnPnztxx7gQ7oStZunRpVVVVbGwsGtik4cOHjx492mg0vvDCC9xZmoCd0GUUFxdHRETcddddJ06c0Gq13HFcwLlz50JCQsxm8+HDh8PDw7nj/CXshC4jMzOzsbFxzpw5aKBIAQEBs2fPtlqtGRkZSt5ssBO6hsLCwsTERD8/P51Od99993HHcRlGo1Gj0ej1+sLCwsmTJ3PHuT3shC7AZDItWrSIiFauXCmmgZ988klqampFRYX80ZTO29t72bJlRDRv3rza2lruOH/BBoqXl5dHRKGhoRaLpcnFJpOpR48eRPTuu+86IZvyNTY2Cr8Qvvjii9xZbg8lVLrLly/fe++9RLR//34x64Uf/P379xfT2Fbi22+/ValU99xzz4ULF7iz3AZKqHSJiYlENHnyZDGLr1y5IjT2q6++kjmXi5k0aRIRJSUlcQe5DZRQ0b777jvhR/hPP/0kZv2UKVOIaOLEiTLncj2XLl1q27atSqX6+uuvubP8GUqoXI2NjREREUSUm5srZn1RUZFKpVKr1SIb29oI39qHhYU1NjZyZ/kDlFC5NmzYQETdunX79ddfm1xstVojIyOJKCcnxwnZXFFtbe1DDz1ERO+//z53lj9ACRWqurr6gQceIKLNmzeLWf/BBx8QUdeuXY1Go9zZXFd+fj4R+fv7//LLL9xZfocSKpQwNmbQoEFWq7XJxUajsUuXLkT04YcfOiGb67JardHR0US0cOFC7iy/QwmV6Ny5c23atPHw8Dh8+LCY9YsXLyaigQMHimlsK3fkyBEPDw8vL6+ysjLuLL9BCZVo7NixRJSSkiJmcXl5uVqtVqlUhw4dkjuYe5g+fToRxcXFcQf5DUqoOF988QUReXt7X7t2Tcz6+Ph4IkpOTpY5l/vQ6/XC1X+ffvopdxabDSVUGovF0rdvXyJas2aNmPVCY9u1a3f16lW5s7mT1atXE1FQUFBDQwN3FpRQYd58800i6tmzZ11dXZOLLRZLv379iGjVqlVOyOZO6uvre/fuTURr167lzoISKonBYLj//vuJ6D//+Y+Y9W+99RYRPfzwwyaTSe5s7mfbtm1E5Ovr+/PPP/MmQQkVZNasWUQ0dOhQMYsNBoMwbe2TTz6RO5i7iomJIaLZs2fzxkAJleL06dOenp7C9Aox6+fMmUNEf//73+UO5sZOnz599913i/87lwlKqBSSfiqfOXNG+Ndz/PhxuYO5N0lnHzJBCRVB6u8nwrS19PR0uYO5Pam/h8sBJeQn9ZO6HTt2KOQTBfcg6RNpOaCE/F566SXx31nV19drNBoiev31152QrTWwfze7evVqlgAoITO9Xu/j4yP+6o2XX36ZiAIDA5XwLbPbkHqVkmOhhMwkXcdYUVEhXG+1Z88emXO1OpKu13UslJCT1Cv6n376aSIaM2aM3MFaIal3rjgQSshG6r1tR48eveuuuxR1D46bkXQPpwOhhGw2bdok6S7vxx57jIjmzZsnd7BWyz7NID8/35nvixLyqK2tffDBB8XPOykoKCAiPz8/Rc1lcD/CXJ+uXbuKmevjKCghD0mTv+wTit577z0nZGvNpE64cwiUkIHUGZjCGPywsDAM1XYCqbNeWw4lZCBpGrR9DP6BAwfkDgYCSVPPWw4ldDapz0Vw8j8IsEl//kcLoYROJfUJQc4/NQKBpCdhtRBK6FTr168XhmrX1NQ0uZjlQwIQOPPDMJTQeaqrqzt37kxEhYWFYtZLGoMPDue0r4VQQufJzs4mokcffVTMBRlSx+CDHJxzgQRK6CRnz54VLk384YcfxKznuoQK/j/7pYKlpaXyvQtK6CSjR48motTUVDGLGS8mhj+ZMWMGEcXGxsr3FiihM+zbt0+4Xe369eti1jPeVgN/4oTbx1BC2ZnN5pCQECL6xz/+IWY97w2m8L/kvpEaJZTda6+9RkS9evUSOVSbd9QC/C+5R4qghPKqrKwUhnnt3LlTzHr2oUNwW7IO10IJ5fXss88S0fDhw8UsVsL4PfgrwpjJmTNnOvzIKKGMTp065enp6enpefLkSTHrlTCIFv6KfAOXUUIZjRgxgogyMjLELFbISHa4A5kePYASyuXf//43EXXo0OHmzZti1ivk4SRwBzI9hAcllEVdXV1AQAARvf3222LWK+cxXXBncjyODiWUxcqVK4koODjYbDY3uVhRD6yEO5PjwawooePZh2p/9tlnYtYr6tHN0KQvv/zSsY8oRwkd78knnySi8ePHi1ms1+uFq6JEjsEHJYiPjyei5ORkhxwNJXSwH3/8URiqrdPpxKyXNAYfFKK8vFytVqtUqkOHDrX8aCihI1mt1qioKCJasmSJmPVSx+CDcixevJiIBg4c2PJ7zVBCR/rXv/4lDNWuqqpqcrHUMfigKEajsUuXLkT04YcftvBQKKHD1NTUCEO1//nPf4pZn5+fL2kMPijNxo0bhXHdRqOxJcdBCR1m6dKlRDRgwABJQ7VFjsEHBbJarZGRkUSUk5PTkuOghI5x8eJFYaj2N998I2a9pDH4oFhFRUUqlUqtVp8/f77ZB0EJHWPChAlENG3aNDGLpY7BByWbOnUqET3xxBPNPgJK6ABfffUVEbVt2/bixYti1ksagw8Kd+XKlXbt2hHRvn37mncElLClLBZL//79iWjFihVi1h88eFDSGHxQvuXLl4u/SvF/oYQt9c477xBR9+7dRQ7VljQGH1yCyWTq0aMHEa1bt64ZL0cJW+TWrVudOnUioo8//ljMevsYfAzVdjNbtmwR7lyrrKyU+lqUsEUyMzOJaPDgwSKHaksagw+u5W9/+xsRTZ06VeoLUcLmKykpufvuuz08PH788Ucx6yWNwQeXc+TIEZVKJX6olx1K2HyjRo0iorS0NDGL7UO1RY7BB1cUGBgonJRKehVK2Ey7du0iIh8fH5FDtWNjY4loxowZcgcDRiUlJcJmmJeXJ/5V0kpI8Ecih2rr9fouXbr4+Pjo9XpJf+HgcsaMGUNEfn5+4l/iyf3PuFXw9/cvKysrLi729/fnzgKKo7Jhf2uWffv2jRw50sfHp6ysTPjME6CkpCQ4ONhmsy1btuz5558X+SqUsPlGjx69e/fuZ5555t133+XOAooQGBhYWlrq5+dXUVEh/lUoYfOdO3cuODjYYrF8//33AwYM4I4DzI4cORIREWGz2Xbv3i18ci6Sh3yZ3F5AQMCsWbOsVqswY5s7DjDLzs622WzTpk2T1EDCTthC1dXVWq1Wr9dv2bJl4sSJ3HGAzZYtWyZPntypUyedTte+fXtJr8VO2CI+Pj55eXlElJ2dXVtbyx0HeJhMpoULFxLRihUrpDaQUMKWS01NHTBgwOXLl1999VXuLMDjlVdeuXDhQmho6NNPP92Ml+N01AEOHjwYHR19zz33lJSUCLOeoPW4evWqVqutqanZv3//kCFDmnEE7IQOEBUVNWHChNraWmHWE7QqCxcurKmpmThxYvMaSNgJHeXy5ct9+vQxmUxff/314MGDueOAkxQVFUVFRbVp06akpES4r7cZsBM6Rvfu3efOnWuz2TIyMqxWK3cccAar1ZqZmWmz2ebPn9/sBhJ2Qgeqra0NDAy8dOnSxo0bk5OTueOA7DZu3Dh9+vSuXbuWlZXde++9zT4OSuhImzZtmjZtmr+/v06nE56OBu7q119/1Wq1165d27Rp05QpU1pyKJyOOtKUKVMGDx5cUVEhPHIQ3NjKlSuvXbs2cODApKSkFh4KO6GDHTlyJDIy0tPT89SpU8Lzd8H9nD9/Pjg4uL6+/tChQ8Ik/JbATuhgAwYMmDZtWkNDg3AJBbil7Ozsurq65OTkljeQsBPKoaKiQqPRVFdX7927d+TIkdxxwMG+/PLLYcOGtWvXrqysTHg6WgthJ3Q8f3//RYsWEVFWVpbFYuGOA47U2NiYlZVFREuXLnVIAwkllEl2dnbv3r3PnDkjTPsFt7Fu3boTJ0707NlTGDnrEDgdlcvWrVsnTJjQoUMHnU53//33c8cBB7h165ZGo7l58+bWrVvj4+MddVjshHIZP378yJEjDQbDsmXLuLOAY+Tm5t68eXPo0KEObCBhJ5TVmTNnhAc2FRcXh4SEcMeBFikpKenfv7/Vaj169Gi/fv0ceGTshDIKCgpKTU21WCwO/P0BuMydO9dsNqelpTm2gYSdUG4Gg0Gj0VRWVu7YsUMYCwuuaMeOHXFxcb6+vjqdrmPHjo49OHZCeXXo0EGYP5mVlVVfX88dB5qjoaFh/vz5RJSXl+fwBhJK6ASzZs0KCQkpLy9/8803ubNAc7z++us6nS4wMHDmzJlyHB+no87wxRdfDB8+3Nvbu6ys7IEHHuCOAxLcuHFDo9FUVVXt2bPn8ccfl+MtsBM6w7Bhw2JjY41G4wsvvMCdBaRZsmRJVVXVmDFjZGogYSd0mvLy8uDgYLPZfOjQoYiICO44IEpxcXF4eLinp+fJkyc1Go1M74Kd0El69er13HPP2QcicMcBUTIzM4UJ6/I1kLATOpPRaNRqtdevXy8oKEhISOCOA00oKChISkry8/PT6XT33XeffG+EndB5vL29hUvY5s+fX1NTwx0H7sRkMi1evJiIVq1aJWsDCSV0spSUlPDw8CtXrrzyyivcWeBO1qxZc/HixbCwsOnTp8v9Xjgddbbvvvtu8ODBarW6pKTkoYce4o4Dt3HlypU+ffrU1NQcOHDgsccek/vtsBM626OPPjpp0iT72Q4okPD7QkJCghMaSNgJWTj5By1I4vxTFeyEDLp16zZv3jz67yfg3HHgd/bvkBYsWOC0XxawE/IwmUyBgYEXL17csGFDSkoKdxz4zYYNG2bMmNGtW7fS0tKWDNWWBCVks3nz5ilTpjjhaygQyf5F7ubNmxMTE532vjgdZZOYmBgdHX3jxo1Vq1ZxZwEiouXLl1+/fn3QoEFOvpQCOyEn51yaCGIwXtyLnZBTWFjYU089Zb9nFBgJd11Pnz7d+ZfXYydkZr9d7dNPP42JieGO00rx3vCJnZCZn5+f8K19VlaW2WzmjtMaWSwWYah2Tk4Oyy3XKCG/rKwsjUZTUlKybt067iyt0dtvv33y5MlevXplZGSwBMDpqCJs37593LhxMg3zgjuwj8Pbvn372LFjWTJgJ1SEuLi4mJiYW7du5eXlcWdpXZ5//vnKysphw4ZxNZCwEyqHfcBzcXFx3759ueO0CsKIdJvNxvt3jp1QKQIDA9PS0hobGzGu22mEZ9elp6fz/tTDTqgg9of+bNu2bdy4cdxx3Ny2bdvGjx/v6+t79uxZ3sdmYSdUEF9f39zcXPrv05i547gz+/PMly9fzv7gOpRQWWbOnNm3b9/z58+/8cYb3Fnc2auvvnr27NmgoKC0tDTuLDgdVR7hkegY1y2fiooKjUZTXV29d+/ekSNHcsfBTqg8Q4cOjYuLMxqNS5cu5c7inhYtWlRdXT1u3DglNJCwEyrT+fPng4KCzGZzUVFRZGQkdxy3cvTo0YiICE9Pz1OnTvXu3Zs7DhF2QmXq2bOnMPkC47ody2azZWRkWK3WuXPnKqSBhJ1Qsex3eefn5yclJXHHcRP5+flTp0719/fX6XQ+Pj7ccX6DnVChvL29V65cSUQLFizAuG6HMJlMS5YsIaLVq1crp4GEEipZcnJyZGTk1atXX375Ze4s7uCll166dOnSI4888uSTT3Jn+QOcjipaUVFRVFSUWq0+c+ZMjx49uOO4sMuXL/fp08dkMh04cCA6Opo7zh9gJ1S0QYMGJSYmmkwm4fIOaLbs7Oza2tqkpCSlNZCwEyrf1atXtVptTU3N/v37hwwZwh3HJR08eDA6OlqtVpeWlj744IPccf4MO6HSde3adcGCBUSUmZnZ2NjIHcf1CE/5tNlsixcvVmADCTuhSzCZTEFBQRcuXFi/fn1qaip3HBezfv36tLS07t27l5aWtm3bljvObaCEruGjjz5KSEjw8/MrKytr3749dxyXUV1drdVq9Xr9Rx99NGnSJO44t4fTUdcwefLkIUOG3LhxY8WKFdxZXMmLL76o1+ujoqImTpzIneUvYSd0GceOHQsPD/fw8Dh58qRWq+WO4wLOnTsXEhJiNpsPHz4cHh7OHecvYSd0GaGhoSkpKWazOTs7mzuLa8jIyKivr58xY4aSG0jYCV2LfVz37t27R40axR1H0T7//PMRI0Z4e3vrdLrOnTtzx7kT7ISuxM/PLycnh4jmzp2Lcd13YLFYhHlZubm5Cm8goYQuZ86cOVqttrS09K233uLOolxr1649ffp0QEDA7NmzubM0DaejrmfXrl1jxoxp3769Tqfr1KkTdxzFMRgMvXv3NhgMu3btGj16NHecpmEndD2xsbGjRo365ZdfnnnmGe4sSpSSkmIwGIYPH+4SDSTshC7q9OnTffv2tdlsW7ZsUfI3YM4nTBNVqVTHjh3r168fdxxRUEJXFRYWduzYMV9fX4PBwJ1FQTp27FhZWRkWFnb06FHuLGJ5cgeAZtq6dWtAQMCtW7fS09PtNzqp1Wq1Ws0bzMnq6ursg5LXrFlTWVmpUqk+/vhj3lSSYCd0YYmJiYWFhdwpFCchIaGgoIA7hQQooQtraGiIi4vbu3ev/U+8vLzatGnDGMn56uvrGxoa7P8bExOzfft2Ly8vxkhSoYQAzPAVBQAzlBCAGUoIwAwlBGCGEgIwQwkBmKGEAMxQQgBmKCEAM5QQgBlKCMAMJQRghhICMEMJAZihhADMUEIAZighADOUEIAZSgjADCUEYIYSAjBDCQGYoYQAzFBCAGYoIQAzlBCAGUoIwAwlBGCGEgIwQwkBmKGEAMxQQgBmKCEAM5QQgBlKCMAMJQRghhICMEMJAZihhADMUEIAZighADOUEIAZSgjADCUEYIYSAjBDCQGYoYQAzFBCAGYoIQAzlBCAGUoIwAwlBGCGEgIwQwkBmKGEAMxQQgBmKCEAM5QQgBlKCMAMJQRghhICMEMJAZihhADMUEIAZighADOUEIAZSgjADCUEYIYSAjBDCQGY/R+S3IuZ78Aq+QAAAABJRU5ErkJggg==;rotation=-30;" vertex="1" parent="1">
          <mxGeometry x="-111" y="-639" width="75" height="75" as="geometry" />
        </mxCell>
        <mxCell id="nSMvHfx7BpTb2uHLrpXf-82" value="" style="shape=image;verticalLabelPosition=bottom;labelBackgroundColor=default;verticalAlign=top;aspect=fixed;imageAspect=0;image=data:image/png,iVBORw0KGgoAAAANSUhEUgAAASwAAAEsCAIAAAD2HxkiAAASUElEQVR4nO3da0xUZxrA8WcQURAURUWxXosKVWulWi/1VjX2IknbTWmT2ml2s5G0X3C77obdxITNNtlltzHOJpus9IPNlE12l5q4HW9t0Hq3itda1OJd8VJRQVFQBpl3P5zpyOIFB5jzzAz/X5qGwuHMW3v+Z2bOed+pwxgjAPTEaA8A6OyIEFBGhIAyIgSUESGgjAgBZUQIKCNCQBkRAsqIEFBGhIAyIgSUESGgjAgBZUQIKCNCQBkRAsqIEFBGhIAyIgSUESGgjAgBZUQIKCNCQBkRAsqIEFBGhIAyIgSUESGgjAgBZUQIKCNCQBkRAsqIEFBGhIAyIgSUESGgjAgBZUQIKCNCQBkRAsqIEFBGhIAyIgSUESGgjAgBZUQIKCNCQBkRAsqIEFBGhIAyIgSUESGgjAgBZUQIKCNCQBkRAsqIEFBGhIAyIgSUESGgjAgBZUQIKCNCQBkRAsqIEFBGhIAyIgSUESGgjAgBZUQIKCNCQBkRAsqIEFAWG9zmf/mLiMjo0fLGG4/c5uJF+ec/RUTmzpWJEx++jdcrO3fKtm1SWSm1tZKYKGlpMn26zJwpCQnBDQmIdCYoIkbE/Oxnj9tmxw7/ZsuWPeSnPp/59FMzaJB/mxZ/paSYTz4xXm9wowIiWZDPhO3U2Ci//KUUF/v/MSNDJk+WPn2kpkYOHpTvvpPr1+W3v5VvvpGSEklMtHVsgBJ7I/z97/0FZmTIp5/KjBn/99N9+2TRIjl0SDZskEWL5F//snVsgBIbL8yUlcny5SIi6emybVvLAkVk4kTZskWefVZE5N//lv/+176xAXpsjHD5cvH5RET+8Q/p1+/h2/TqJZ99Jg6HiMiyZfaNDdBjV4R378rq1SIiGRkyb97jtszKkunTRUR27JDKSjvGBqiyK8L9+6WhQURk/vzWN37lFf8Xu3eHcEhAeGjThRmvV65ff+RPa2sf8s0ffvB/MWZM6/u33haKyLFjwQ4NiDhtinDtWunbN7hfqa72f5GS0vrGgW1qaoJ7FDyC1+v98MMPa2trFy5c+MZjJlqg3aqrq7dv3/76668/+a/Y+J7Q0r176xvHx/u/qK8P1Xg6k2XLlvXq1WvlypWrVq168803MzIyjh8/rj2oKOTz+T7//POMjIy33347qD/hNj0Tzp8vf/vbI3968KC8+27Lb/bs6f/i9u3W93/rlv+L5OTgB4f7Tp8+vXjx4rVr14pIbGzswIEDKysrKyoqxo8f/8knn3zwwQexsfbeKI5eGzdu/Oijj8rLy0Vk7ty5DusK/xMKboJNm6etFRf7v+lytf4o//mPf+O//jW44eEnt2/fLigo6N69u4jExcXNnTu3pqbGGLN27doBAwZY/+lHjx69bt067ZFGvJMnT+bk5Fh/pIMHD3a73cHuwa4Iv//e/82f/7z1R/nd7/wbl5YGNzwY4/P5SkpKhgwZIiIOhyMnJ+fcuXMttiktLc3MzLSOm3nz5h05ckRlqJGu+ZmuR48eBQUFd+7cacN+7Iqwqcn06WNETGqqaWxs5VEyM42IiYszN28GN7xOr6ysbNq0aVZdEydO3Llz56O29Hq9LperV69eItK1a9e8vLwbN27YOdSI5vP53G639ZrCOtOdP3++zXuzcRXFr37l//5nnz3u19es8W/27rvBja1zu3jxYm5ubkxMjIikpaUVFRU1NTW1+lvXrl3Ly8vr0qWLiKSkpLhcrnv37tkw2ohWVlY2depU60w3adKkXbt2tXOHNkZ46pRJSPCvVzp69OG/e+6cGTzYiJjYWHPwoP+bDQ1m6lTjchmOj4dpaGhwuVxJSUnW27+8vLza2tqg9rB///4ZP03lzcrK2rZtW4iGGukuXLjgdDqtiy5paWlut9vn87V/t/auJ/z73/0/6tvXrFxpGhru/+jePfPFF+app/wbFBTc/5Hb7f9mVpbZvj24AUc7j8czfPhwq5/s7OzTp0+3Z1fDhg0L7OrMmTMdN8yIV19fX1hYaJ3p4uPj8/Pzgz3TPYbti3r/9CfjcPg3SEoys2aZnBwzZ45JSbm/tPc3vzEtTjAejxk2zP/T7GzD8WHMwYMHZ82aZTWTmZn51VdftX+fdXV1hYWFiYmJgUPt1q1b7d9tpOvAM91D2R6hMWbLFjNlysNX1o8fb9avf/hv1debwkKTmGhETHy8yc83HXcqiizXr18PvJHr06dPh7+Ra/6ia9CgQR31oisSHThwYObMmVZ+EyZM2Lp1aygeJcgIv/7afP21OXTocdvU1Pg3O3v2cZudOWNWrjR//KP59a/NH/5gPv3UVFS0PoALF4zT6X8uHTTIuN0tnzOjmnVJMzk52bqkmZube/Xq1RA91p49e6ZMmWIdfy+88MK3334bogcKT3ZesgoywjCxZ8/959JJk0y7L09FhNLS0jE/TX+fN29eeXl5qB+xqamp+YV4p9N5+fLlUD+oOvtv3kRmhMYYn8+43WbAACNiHA7jdJroPT4qKiqys7Ot/EaOHLlmzRo7H926Jd2tW7fALem7d+/aOQA72X+mMxEcoeX2bVNQYLp1MyKmRw9TUGDaNGUhbNXU1OTn51sBJCcnFxYWagVw4sSJwOSs9PT0kpISlWGETkVFxYIFC6x/wVGjRtl5povwCC0nTpicHP+r0/R0ExXHh/VSsH///iISExPjdDp//PFH7UGZjRs3jhs3zjpS586de/jwYe0RdQDrTBcXFxc40zU0v3kWelERoWXTJjNunD/FOXNMJB8fmzdvHj9+vHWsz5o162Bg3kIYaGxsLCoq6tu3r4jExsbm5uZWVVVpD6qNHjzTXblyxf5hRFGExpjGRlNUZPr188+5yc01kXZ8VFZWBm4PPPXUU2F7e8C6TWKthLJukzS2OiU4zDQ/082ePfvQ46/5h1J0RWiprjZ5eSY21oiY3r2Ny9X6lPEwUFdXF5iSn5CQUFBQUF9frz2oVhw7duyVnz4QKCMjY/2j7vGGmfPnzzudzvYsPupY0Rih5dgx8+qr/leno0c/cg5AGHhw8dHZx99iDTMej2fEiBGBCSUnT57UHtEjPXima9vio44VvRFaPB7z9NP357uF3/Gxd+/eF1980TqCn3/++R07dmiPqC2sSeQ9e/YM3Fu7GWbL0J5kmaWWaI/QGHP3rvnzn01SkhG5PHVqx069bY9Lly4FFh8NHDjwCRcfhbOw/Tfau3dv82WW4Xam6wQRWi5d8v3iFy8PH24dHytXrlQ8Ppo/b1iLj8LteaM99u3b1/y5fbvqwpe2LbO0WaeJ0BhjzP79+6dbH+8tkpWVpXJ8tHgHderUKfvHEGrWa7+hQ4cqvst9cJll2J7pOleEFo/HYx0fNi+ca3EtccOGDfY8rhbrKkh8fLz913sj60zXGSM0/79wLiEhIdQL56Lgrlqb2Xzn8+jRoy+//HLHLrMMtU4aocWG4+PB+SWhW3wUzrZs2fLcc89ZbUyePHn37t0d/hChXmYZOp06Qsvu3bsnT54cOD46cOHcxo0bx44dG5hp+f3333fUniORNUcsNTW1w2fDer3ewJku1MssQ4EIjQnB8XH8+PHAmoORI0dG35qDNmu+LiQxMbH9C6NaLD6KxDMdEd5369atwMK5Nh8fzXcS9avv2qxDTlJRc6Yjwpba/J82dC+3olWbn8Q6/OlUFxE+XLBv55q/seyEn8jSZsG+nYvKMx0RPtITXtiMlMVH4ewJL2zacIlVBRG24sHjI3CLz+abjVHvMbf4ovtMR4RP5OjRoy0mu2hNu4l6LSa7lJeXa027sQ0RBmHVqlWBT2K2hOGU/ChQX1//8ccf9+jRQ0Ss/BwOx8KFCysrK7WHFhJEGJw7d+4sXbo0MTExKSlJdylG1Ltw4cKsWbN69+6dlpbW/v/zUThzGGMEwaiqqkpNTe3Xr19VVZX2WKJccXHx+++//9577xUXF2uPJYRitAcAdHZECCgjQkAZEQLKiBBQRoSAMiIElBEhoIwIAWVECCgjQkAZEQLKiBBQRoSAMiIElBEhoIwIAWVECCgjQkAZEQLKiBBQRoSAMiIElBEhoIwIAWVECCgjQkAZEQLKiBBQRoSAMiIElBEhoIwIAWVECCgjQkAZEQLKiBBQRoSAMiIElBEhoIwIAWVECCgjQkAZEQLKiBBQRoSAMiIElBEhoIwIAWVECCgjQkAZEQLKiBBQRoSAMiIElBEhoIwIAWVECCgjQkAZEQLKiBBQRoSAMiIElBEhoIwIg1ZbWysit27d0h5I9KuoqAj8PYoRYdC8Xm/g7wipa9euicj169e1BxJaRAgoI8Kgde3aVUR8Pt8777zD82HolJWVffHFFyKSkJCgPZbQIsKgjRw5csqUKSJSUlKSnJxcXFysPaJoU19fP3/+/MmTJ1dXVzscjuXLl2uPKMQM2mTp0qWxsbHWn2F2dvbp06e1RxQlPB7PsGHDrD/Y1NTU7du3a48o5Iiw7W7cuLFkyZKkpCQRiYuLy8vLq62t1R5UBNu/f/+MGTOs/CZMmLBixQrtEdmECNvr4sWLubm5MTExIpKWllZUVNTU1KQ9qAhz9erVvLy8Ll26iEhKSorL5bp37572oOxDhB2jrKxs2rRp1ll84sSJO3fu1B5RZPB6vS6Xq2fPniLStWvXvLy8GzduaA/KbkTYYXw+X0lJyZAhQ0TE4XDk5OScO3dOe1BhrbS0NDMz0zpzzZs378iRI9oj0kGEHez27dsFBQXdu3cXkR49ehQUFNy5c0d7UGHnhx9+eO2116z8Ro8evW7dOu0RaSLCkDh//rzT6bQOssGDB7vdbu0RhYvq6ur8/Py4uDgR6d27d2FhYUNDg/aglBFhCH3zzTfPPvusleJLL7303XffaY9IU2NjY1FRUb9+/UQkJibG6XRWVVVpDyosEGFoNTU1ud3u/v37B468K1euaA9KwaZNmzgfPQoR2qEzvwY7ceJETk6Old+QIUN4Zf4gIrRP86sRo0aNWrt2rfaIQotrVE+ICO1WWlr6zDPPRPd1eZ/P53a7BwwYYN2tcTqdly9f1h5U+CJCBdYd6l69ekXlHeqysrKpU6daZ5lJkybt2rVLe0ThjgjVXLt2Lcrmal24cMHpdDocDmsGn9vt9vl82oOKAESorMWs5a1bt2qPqC3q6+sLCwutuezx8fH5+fnMZX9yRBgWmq/fyc7OPnPmjPaIguDxeIYPH86qrjYjwnBhPZkkJiZG0JPJgQMHZs6cGelP4+qIMLw0f1s1aNCgsH1bFX1vaBURYTjas2eP9QkaYXiBMbov7aogwjAVnrfaSktLx4wZE7jJWV5erj2iaECEYc2adNKtWzf1SScVFRULFiwITPdZs2aNyjCiEhFGgObTL9PT00tKSux89JqamsDE1+Tk5E418dUeRBgxNm3aNG7cOCvFOXPmHD58ONSPyBIQexBhJGm+JC82NjY3Nzd0S/I2b948fvx4q/nZs2cfOnQoRA8EIow81dXVeXl51qee9u7d2+VyNTY2duD++VgAmxFhpDp27Nirr74a+JiW9evXt3+fdXV1gcVHCQkJLD6yBxFGNo/H8/TTTwemjJ08ebJt++Gj4hQRYcR78KM7b968GdQe9u7d2/xDU3fs2BGioeKhiDBKXLp0KTc315pH1rdv3yecR8bHh4cDIowq+/btmz59uvWclpWV9Zj/m0pDQ0Pg+dP6H2kE+/yJjkKE0cZ6dzd06NDAG8WzZ8+22Mbj8YwYMSKwwalTp1SGCgsRRqe6urrAwqi4uLgZM2ZYdxRXr15t3WYUkczMzA0bNmiPFMZhjBFEqXPnzi1evPjLL78UkdjY2NTU1IsXL4pI9+7dly9fvmjRIus9JHQRYfRbsWLFkiVL6uvrrX8cO3bs6tWr09PTdUeFACLsFLxe7+LFi+/evfvWW28FFkMgTBAhoCxGewBAZ0eEgDIiBJQRIaCMCAFlRAgoI0JAGRECyogQUEaEgDIiBJQRIaCMCAFlRAgoI0JAGRECyogQUEaEgDIiBJQRIaCMCAFlRAgoI0JAGRECyogQUEaEgDIiBJQRIaCMCAFlRAgoI0JAGRECyogQUEaEgDIiBJQRIaCMCAFlRAgoI0JAGRECyogQUEaEgDIiBJQRIaCMCAFlRAgoI0JAGRECyogQUEaEgDIiBJQRIaCMCAFlRAgoI0JAGRECyogQUEaEgDIiBJQRIaCMCAFlRAgoI0JAGRECyogQUEaEgDIiBJQRIaCMCAFlRAgoI0JAGRECyogQUPY/NXkH379pZm8AAAAASUVORK5CYII=;" vertex="1" parent="1">
          <mxGeometry x="-100" y="-490" width="90" height="90" as="geometry" />
        </mxCell>
        <mxCell id="nSMvHfx7BpTb2uHLrpXf-96" value="&lt;font style=&quot;font-size: 8px;&quot;&gt;EC: X.Y.Z.W&lt;/font&gt;" style="edgeLabel;html=1;align=center;verticalAlign=middle;resizable=0;points=[];fontFamily=Helvetica;fontSize=12;fontColor=default;fillColor=none;gradientColor=none;labelBackgroundColor=none;" vertex="1" connectable="0" parent="1">
          <mxGeometry x="-115.99694459480781" y="-587.0010404395246" as="geometry">
            <mxPoint x="-7" y="-28" as="offset" />
          </mxGeometry>
        </mxCell>
        <mxCell id="nSMvHfx7BpTb2uHLrpXf-73" value="" style="shape=image;verticalLabelPosition=bottom;labelBackgroundColor=default;verticalAlign=top;aspect=fixed;imageAspect=0;image=data:image/png,iVBORw0KGgoAAAANSUhEUgAAASwAAAEsCAIAAAD2HxkiAAAV+klEQVR4nO3da0xUZxoH8HeG4SoXRbwAKiqg4hVRwVu9Yq3KhzYp7qepSdOdtLvN2G2qpNk2o00/YJu1U3ez7jSp3Wl2a0LTpDtGbQp4RUVEK17wjgKioFyUiwgj8+6HdxxwpDAznDPPmZn/L6SZyrk8Cv8z75zzvOeoOOcMAOioqQsACHQIIQAxhBCAGEIIQAwhBCCGEAIQQwgBiCGEAMQQQgBiCCEAMYQQgBhCCEAMIQQghhACEEMIAYghhADEEEIAYgghADGEEIAYQghADCEEIIYQAhBDCAGIIYQAxBBCAGIIIQAxhBCAGEIIQAwhBCCGEAIQQwgBiCGEAMQQQgBiCCEAMYQQgBhCCEAMIQQghhACEEMIAYghhADEEEIAYgghADGEEIAYQghADCEEIIYQAhBDCAGIIYQAxBBCAGIIIQAxhBCAGEIIQExDXUB/rFbW1MQaG1lYGBs9mkVHUxcEICM33wnHjrV/mUwuLb9tm335jIzBF/7tN7Z1K0tPZ6GhLD6ezZrFUlNZTAyLjmavv85272YdHe5VC+AL3AxhQ4P9y8U8tLbal3/wYKDFamrYH/7A5s1jX37JKioY5y98t62N/e9/7E9/YikpzGRy/i6Aj1PAcLSigq1bx+7f7/2TmBiWlsZGjWIdHez+fXb1qj149fXs3XfZmTPsX/9iGgVUDiAF6l/lqiq2YgV79Mj+v0uWsG3b2PLlLDi4d5m6OrZnD9uxw/72++23zGZje/Z4v1gAOZCeHX32jGm1vQn89FN2/DjLzn4hgYyxxET26aesooIlJdn/5Lvv2I8/erNSAPmQhvA//2EnT9pfv/ce++wzplL97sLJyay4mA0bZv/fDz5gVqvsFQLIjzSEf/+7/UV8PNuxY/Dlk5PZZ5/ZX9+7x376Sa7CALyILoQXL7Jz5+yvN21iUVEurfXHP/a+Gf7733LUBeBldCE8caL39caNrq4VFcU2bLC/PnWK2WwSVwXgdXQhLC21vwgNZTNnurHiggX2F62trLJS4qoAvM7TSxStrezevcEXG+CafnW1/UVqqvPp0IH1TWx1tXsBBlAeT0O4fTvbvn1Ie25utr8YMcK9Ffsu39IypBrAi6qqqhoaGrKystRqTBt4Ad0/R2ur/YWLp2Qc+vZzO64xgoK1trbm5OSkpKQsXrw4Jibm22+/pa5IWTx9J5w4kcXHD77YnTsv9KP1FRpqf9Hd7d6uu7p6X4eHu7cueN1HH3309ddfP3v2jDGmUqna29vfeeed/Pz8H3/8MT09nbo6ZeBuYcz+9be/ubT8X/5iXz4x0flbCxfav5WZ6V4NR470lvHTT+6tC15UWVn56quvil+z0NDQHTt21NfXL1myxPEnBoOhs7OTukx6dMPR2Fj7i7o691bsu7xjI6Akzc3NmzdvnjVr1q+//hoVFZWbm9va2rp169YxY8aUlJQcP358xowZXV1d27dvnzJlyvfff09dLzG6EM6ZY39RVzfIRCcnjkv8KlXvRkAZrFbrN998M3Xq1F27dqlUKp1OV1VVVVBQEBIS4lhm6dKlly5dOnTo0OzZs2trazdt2rRq1aoLFy4Qlk3MvTdOCYejP//s4ahywQL7WtOmubEWyK+wsHDm8ytGq1evvnjx4sDL9/T0mM3mUaNGMcbUarVWq21oaPBOqYpCF8KmJh4WZv/u66+7WsDly701bN7seuEgq+vXr+fm5or4paamFhQUuL5uc3NzXl6eeKscMWJEfn5+V1eXfKUqEF0IOeebNtm/GxTEy8td2uCbb9pXUan41atuVA7yaGtrMxgMoaGhjLHIyEiDwfD06VMPtnP16tX169eLGE+dOnX//v2Sl6pYpCH87TceFGRfID2dP3o0yNb++9/eApzePEtK+D/+wa1W1/4aIAExmBwzZoxjMFlfXz/EbRYWFk6fPl1EMTs7+/Lly5KUqnCkIeSc//WvvducP59XVfW/mM3Gd+/mGo19ydhYXlfX+92eHj5/PmeMT53KA+kISujIkSOOq3xZWVmlpaVSbbm7u9toNMbExDDGgoOD9Xr9o0GPzj6OOoRdXXz16t7NhoXxP/+ZFxVx8QG9s5PfvMlNJp6Z2btMaCi3WJy3Y7Hw5GT7AtnZvLLSvb8XuKy2tlar1apUKsbYuHHjzGazzWaTfC+NjY16vT4oKIgxNnLkSKPR+OzZM8n3ohDUIeScP33KN27s3bLjS6Xq5w9jYnhxcf/b6e7mRiOPjuaM8eBgrtfzx4/d+9vBgDo6OgwGQ3h4OGMsIiIiLy+vra1N1j2ePXv2lVdeEe+3GRkZx44dk3V3VBQQQqGwkM+c2U/qHF9qNddqXxiF9uvhQ67X2z9qxsVxo5H77xHUa2w2W0FBQVJSEmNMpVLl5ubeuXPHa3u3WCwTJ04UUczJybl9+7bXdu0dKu7WbTw/+cT+Yv16tnjx4MsfPGifvBsTw7ZsGWThnh52+jT75RdWXs4aGlhjIwsPZ6NGsaQklp3N1q51qVtVOHeObd7MSkoYYywjg339NVu61NV14UVnz5794IMPSkpKGGPz5s0zGo1Lvf6P2dnZuWvXrs8//7y9vT08PFyv13/yySeRkZFeLkMu1EcBOVksPCnJ/kaak8P97ggqt3v37ul0OjHzKD4+3mQy0X4wu3v3ruPjaGJiokwfR73Pr0PIOe/o4Pn5PDKSM8YjInheHpf5Y4x/EKcoo6Oj2fNTlI8V8wH79OnTCxcuFG8hmZmZJ0+epK5oqPw9hEJtLddq7Wd6xo3jZjP3iyOoTCwWS3Jysvgtz8nJuXnzJnVFzmw2m9lsHjt2LGNMpVJptdr79+9TF+W5wAihUFrKs7Lso9OsLH7qFHVBinPlypV169aJ+E2bNu3AgQPUFQ2kvb3d0awzbNgwj5t1yAVSCDnnPT3cbOZjxvSebh1yk4d/aGpq0uv1Go2GMTZixAij0Wj1kfajGzduONpWU1JS3GpbVYgAC6HQ1sYNBh4ayhnjkZHcYOC+eQSVhNVqNZlMYiqDRqPR6XQPHjygLsptxcXFs2bNElEUE6OoK3JDQIZQuH6d5+baR6epqdwHj6BDV1RU5Lu/u05892gSwCEUiop6mwRWr+aDTYHzG34wiutXc3Ozz42rAz6EnHOrlZtMPC6OM8Y1Gq7T8YcPqWuSkd+czxiAb51hQgifa2rq7XeLjeVGo/9NjPKzM/uDUv61FgEhfFFlJV+7tvf2GQcPUhckGadr3KcC4wqNkrsOHBDC/lgsfPLk3n63W7eoCxoSf+32cp3ovxMTo5TQf+cEIfwdnZ3888/5sGFiluOJL7+Ue9qOHJ48eZKfny8ancPDw70w+UjJysvLHa3nGRkZx48fp67IDiEcUF0d1+mepqREBAeLI2hPTw91Ta7y+xlAHug7J0v8s3hzTtbvQQgHd+n06czMTPFjk/ZWDjIJkLmwHvP+7OSBIYQuEUfQCRMmsOezWqurq6mL6kdA3RViiLxznw5XIIRuEEfQsLAwcQRV1KMUAvD+SJIoLS3NysqiHeYghG6rqanRarXixzZ+/HglnGwMzDsFSkWOeze6BSH00OHDh+c8fxLGihUrzp8/T1JGIN8zV1pS3cXYAwih58QRdPTo0YziUQq4e7wchnI/f48hhEPV0tLiCMPw4cPz8/PlPoLiOSpyc/fJNkOEEErj2rVrGzZsED+2KVOm7Nu3T6YdiSeKiR2tXLmyoqJCph0FuO7ubpPJFBcX55gY9VC2tn6EUEqFhYUzZsxwnCC5dOmShBt/+YSQhBuHfokbDohLPrGxsTJd8kEIJSbHpQIx+UhcGhGTj5RzaSQQVFZWrl27Vhz+0tLSDkrd1o8QykKqi+ZOk49yc3NramokrxZcYbFYJk+e7Oh3uyVdWz9CKKNz584tW7ZM/Njmzp179OhRt1YvKytbtGiRWH3BggUnTpyQqU5wUVdXl2NiVEhIiFQToxBC2VkslkmTJjmOoFW/9/i3Purq6hwdVQkJCb7VOO736urqnG5MPsSfDkLoDWJKUVRUlGNKUWtr6xCXBFpnzpxZ/PxxLPPnzy8pKfF4Uwih9zi9v73c7+bBeyYQcmrrX7ZsWVlZmQfbQQi9zemTnniUQt9Pj+np6e5+egRCoq1f9LsxxpYvX97S0uLWFhBCAj09PXv27BHnPNVq9cyZM8UHjNGjRyvtzgvgolOnTiUkJIgcajSaf/7zn66vixCSEVf/QkJCkpKSNBoNJh/5gZ07dzou57q+lpsPCQWpffjhh1999dW77767e/du6lpAAt3d3WJo6nqy1HLWA4OLjY1ljI0cOZK6EJCGaOV3C0IIQAwhBCCGEAIQQwgBiCGEAMQQQt9gs9neeOONN998k7oQkJ6GugBwic1m+/nnn8UERfAzeCcEIIYQAhBDCAGIIYQAxBBCAGIIIQAxhBCAGEIIQAwhBCCGEAIQQwgBiCGEAMQQQgBiCCEAMYQQgBhCCEAMIQQghhACEEMIAYghhADEEEIAYgghADGEEIAYQghADCEEIIYQAhBDCAGIIYQAxBBCAGIIIQAxhBCAGEIIQAwhBCCGEAIQQwgBiCGEAMQQQgBiCCEAMYQQgBhCCEAMIQQghhACEEMIAYghhADEEEIAYgghADGEEIAYQghADCEEIIYQAhBDCAGIIYQAxBBCAGIIIQAxhBCAGEIIQAwhBCCGEAIQQwgBiCGEAMQQQgBiCCEAMYQQgBhCCEAMIQQghhACEEMIAYghhADEEEIAYgghADGEEIAYQghATENdALhErVZv2bIlKCiIuhCQHkLoG9Rq9RdffEFdBcgCw1EAYgghADGEEIAYQghADCEEIIYQEquqqnL8F/xAdXW1u6sghGRqa2vfeuut7777LjExce/evWvWrKmsrKQuCjxntVrffvvtyZMnM8ZGjRrlxpocvK6tre3jjz8OCwtjjEVGRm7YsCE6OpoxFhISsmXLlsePH1MXCG774YcfwsPDRaZiYmL27dvn+roIoVfZbLaCgoIJEyYwxlQqVW5ubnV1Nee8sbFRr9eLhpiRI0cajcZnz55RFwsuqa2t1Wq1KpWKMRYUFKTT6Xp6etzaAkLoPWfOnFm8eLE4WM6fP//EiRNOC5w9e/aVV14RC8ydO/fo0aMkdYKLOjo6DAaDeAOMiIh47733mpqaPNgOQugNdXV1Op1OrVYzxhISEkwm0wAHS4vFMnHiRBHFnJyc27dve7FScIkY0SQlJTlGNHfu3PF4awihvLq6uoxGY1RUlPjIp9frW1tbB13ryZMn+fn5kZGRjLHw8PC8vLy2tjYvVAuuKC8vX7JkiThKzps37/jx40PcIEIoI4vFIs6Vife0W7duubX63bt3HR82EhMTzWazzWaTqVRwxb179xwjmvj4eJPJJMlHd4RQFpWVlWvXrhXxS0tL++WXXzze1OnTpxcuXCg2tWDBgpMnT0pYJ7iou7vbaDSKk9jBwcF6vV7Ck9gIocSampoc5zljY2MlOc9ps9nMZvPYsWPFJxCtVnv//n1JqgVXWCyW5ORkx4jm5s2b0m4fIZRMd3e3yWSKi4sTB0udTvfw4UMJt9/e3m4wGEJDQxljw4YNMxgMnZ2dEm4fXnblypXXXntNxG/atGkHDhyQYy8IoTQKCwtnzJghflrZ2dkXL16UaUc3btzIzc0VO0pJSSkoKJBpRwFOjGg0Go1jRGO1WmXaF0I4VNevX3ekIjU11TupKC4unjVrltjpqlWrLly44IWdBgir1eoY0Wg0Gp1O9+DBA1n3iBB6rqWlJS8vT4wPIyMjDQbD06dPvbZ38bsiehS987sSCIqKirx/dEMIPdHT02M2m8eMGcMYU6vVWq22vr6epJLm5mbHqGnEiBGyjpr8G+E4HyF025EjR9LT08VPKysrq7S0lLoifuXKlXXr1omSpk6dKtP5A3/18hkvb45oOELolr6tuuPGjVPa1XO5z6T7HzGiIb/2gxC6xKlV12AwPHnyhLqofsh6TdnP9O2CyMzMPHXqFFUlCOEgpG3V9Q7RXSUaBuLi4jAxyonS+gERwoFI3qrrTeXl5UuXLhXFZ2Rk+FbxMuno6FBgZzxC2L+XW3XdnampBH3fxsUHReW/jctHsXPEEEJn/vexqu/hPyIiQiGHf2/qO1s6IyPj2LFj1BW9ACF8gR+fYFT4qV2Z+MR9QxBCO++06pIrLS3NyspyXOQkPCUoNzGiiYmJcYxoHj16RF1U/xBCr7bqKoFy2n3kU1hYmJaW5uinv3z5MnVFAwnoEHq/VVc52traHG0i3m98lc/Vq1fXr1/vaB7av38/dUWDC9wQkrTqKg3JFBCZNDc35+XlhYSEiDba/Pz8rq4u6qJcEoghxJQ8J0VFRTNnzhT/IKtXr5ZvMqRMxABbTCgRA2zfGtEEVgjJW3UV6+WRubS3BZBPcXHx7NmzxRFk5cqVFRUV1BW5LVBCqJBWXYV7+QY5Sj5HdfPmTceIZvz48WazmboiDwVECJXTqusTKisr+16tOXjwIHVFzsSIRjzMww9ut+PnIVRaq64PGeJNU2XidOO53Nzcmpoa6qKGym9DqMxWXd8ibh/ueGIUeQdfWVnZokWLxHHBn27B6p8hVGyrri/q+yANql72viOahIQEPxvR+FsIFd6q67vOnDnTd1ZXSUmJd/YrHsshHuYhRjSuPMzDt/hPCH2iVdenvfxwRbknRlkslkmTJjlGNFVVVbLujoo/hNCHWnX9gLjThzgzKe70IceZyXPnzi1btkzEz+8f1ejzISwsLJw+fbqvtOr6jZqaGq1WK/7ZpZ0YFYAjGh8OoS+26vqZw4cPz5kzR/wIli9ffv78+aFsLWBHND4ZQt9t1fU/ohVp9OjRjr7NhoYGD7bj9DCPS5cuSV6qYvlYCF9u1fXsRw7S6vtEgOHDh+fn57velHvt2rUNGzaI+E2ZMmXfvn2ylqpAvhTCQ4cO+Xqrrn+7du1aTk6O63ES0RUjGhHdwBzR+EYIq6urHacBfLpVNxC4MrCUahDrH5QeQj9r1Q0QfU+xBAUFzZ07t+8VxZ07d4pvMcZWrFgxxNM5fkC5IfTLVt2A0tjY+P7774uwqVSqjRs3HjlyRFzrF2fUMKIRlBvCbdu2iZ/WokWLysrKqMsBD+3du9fxvucI5Jo1a1paWqhLUwrlhrC+vj4tLc1Hb30NTrZu3RocHMwYS0pKwiHViYpzzpSKcy4a58EPdHd3d3Z2Or0rAmNM0SEECARq6gIAAh1CCEAMIQQghhACEEMIAYghhADEEEIAYgghADGEEIAYQghADCEEIIYQAhBDCAGIIYQAxBBCAGIIIQAxhBCAGEIIQAwhBCCGEAIQQwgBiCGEAMQQQgBiCCEAMYQQgBhCCEAMIQQghhACEEMIAYghhADEEEIAYgghADGEEIAYQghADCEEIIYQAhBDCAGIIYQAxBBCAGIIIQAxhBCAGEIIQAwhBCCGEAIQQwgBiCGEAMQQQgBiCCEAMYQQgBhCCEAMIQQg9n9vRhLot6xucwAAAABJRU5ErkJggg==;" vertex="1" parent="1">
          <mxGeometry x="-230" y="-640" width="70" height="70" as="geometry" />
        </mxCell>
        <mxCell id="nSMvHfx7BpTb2uHLrpXf-106" style="edgeStyle=orthogonalEdgeStyle;rounded=0;orthogonalLoop=1;jettySize=auto;html=1;exitX=1;exitY=0.5;exitDx=0;exitDy=0;fontFamily=Helvetica;fontSize=12;fontColor=default;" edge="1" parent="1">
          <mxGeometry relative="1" as="geometry">
            <mxPoint x="-160" y="-446.74" as="sourcePoint" />
            <mxPoint x="-91" y="-446.74" as="targetPoint" />
          </mxGeometry>
        </mxCell>
        <mxCell id="nSMvHfx7BpTb2uHLrpXf-109" value="&lt;font style=&quot;font-size: 8px;&quot;&gt;EC: X.Y.Z.W&lt;/font&gt;" style="edgeLabel;html=1;align=center;verticalAlign=middle;resizable=0;points=[];fontFamily=Helvetica;fontSize=12;fontColor=default;fillColor=none;gradientColor=none;labelBackgroundColor=none;" vertex="1" connectable="0" parent="1">
          <mxGeometry x="-115.99694459480781" y="-430.00104043952456" as="geometry">
            <mxPoint x="-7" y="-28" as="offset" />
          </mxGeometry>
        </mxCell>
        <mxCell id="nSMvHfx7BpTb2uHLrpXf-124" value="" style="group" vertex="1" connectable="0" parent="1">
          <mxGeometry x="-610" y="-770" width="270" height="400" as="geometry" />
        </mxCell>
        <mxCell id="nSMvHfx7BpTb2uHLrpXf-20" value="" style="dashed=0;verticalAlign=top;fontStyle=0;whiteSpace=wrap;html=1;fillColor=#FFFFFF;" vertex="1" parent="nSMvHfx7BpTb2uHLrpXf-124">
          <mxGeometry width="270" height="400" as="geometry" />
        </mxCell>
        <mxCell id="nSMvHfx7BpTb2uHLrpXf-5" value="" style="shape=image;verticalLabelPosition=bottom;labelBackgroundColor=default;verticalAlign=top;aspect=fixed;imageAspect=0;image=data:image/png,iVBORw0KGgoAAAANSUhEUgAAAQEAAABaCAYAAAC40uN9AAAABHNCSVQICAgIfAhkiAAAABl0RVh0U29mdHdhcmUAZ25vbWUtc2NyZWVuc2hvdO8Dvz4AAAAldEVYdENyZWF0aW9uIFRpbWUARGkgMTIgTm92IDIwMjQgMTQ6MDg6MDAKdOTsAAAbRElEQVR4nO2dd3Qd1b3vPzNzqnq1ZEmWLLl3kHHBsQFj0zuEgBMCN1kPEyAh5pEKvHsDl7z7AryXcIF0TAiXZtMMFzAumGJsbOMmF8lNNla36pF0+pnZ7w8V61jtSDqyZJ39WUtrac3s2bPPlO/+7b1/v98olhseF/QRpcuNXW4dEAOuseuGnr3zh1hp1+cZlLOHfqY+nT60woNzP/tSdBCuacj3c4CVDrRkDwXVkM8mkUhGJFIEJJIIR4qARBLhSBGQSCIcKQISSYQjRUAiiXCkCEgkEY4UAYkkwpEiIJFEOFIEJJIIR4qARBLhSBGQSCIcKQISSYQjRUAiiXCkCEgkEY4UAYkkwpEiIJFEOFIEJJIIR4qARBLhSBGQSCIcKQISSYQjRUAiiXCkCEgkEY4UAYkkwpEiIJFEOFIEJJIIR4qARBLhSBGQSCIc01A3IGJRzGRPHMeVM7NZMDGdSenxZCXaibZoKH4vjmYP9Y2NHCquYPvhEjbtLGZPgz7UrZaMQJQh/SqxMBC6v/VwFTRz7+fptcpA+9GKpnVRYoi/SmyNZ8llC3jo2hlclGpGDfEkwt/E3m27eXr1dt4t9RHqTUtecjtH7svD2lILlR+/xpS/nsDXoUz4vkps4qaHHuTlCwerbxFUb1zF5D8XB7W/DdP4xWx/Yj4TurrtPVeLYei43W5O1dSy93AZW/Yd5q0dlVT3prtnXidTHn/8y63cEdu2Q1C29jVmrTyJP+QGRcpXiYXBnDg3Hz9YwP6n1vLCsuOk4AZh9LtK3efhgfw6/n7bMR7IryVZ8YSxwQNFIXXqfF77v/fw3g/zuWRU6AIAoJhjOW/hRbz85F28dX0mySEfGywXdnsVN0V7ztlxoM1axY3R7vC2XwFV04iOiSF3bA43Xr6AJx+6iwPP385TC5OJGlDlgihrJddGDd9rPmTt0t1OLp3aSGZGOQBzzy/kwUtrEUb/TF5fTSkguPu2rczLL+Lu27by6FUViEDo+jt4mJhy2U189m9LuCHD3L0oCwM9YCB66OYVaypX3Hk7n/wgg9GDYqpIWlCwJY/lngfuZMu948npq3VxDjFkcwJGwI/LE3z6S+YdRXycgnLGsKC/LFlYgFiTMThmfcio5F16I+/fM4mMMyRX+B2c3L+THV/vpvDkKerrG3H6QbHYiUtMZUzueCZOn82883JJMHf4FYqV8Vd/h/ebXuTS1Q4az+4P6hPCCODzh2suQ+AL9MFSFAI94KO3QxRVw2TSULsa0ipW8hZfzweB17jihQrK+m+oDluGRAQUAN3PV8UxLO+wPS7OwbwknR2NBiihGynemlLUbkbJwhjauxY7+WL+6+4zBEAEqC9az2uvfMDeaoM6XxTHPXYq9dE4DRWfALVCx1p0gKT1O8kalc5dt93KbfMzsbU9p0oUk2+6gv/Y9SoPHDMxXKcMjW/W8MST6ykPYwO9YlSIJZv48vmHeflggJ6fAgXVbCMxNYO8yeezYPEiZqRZT3ceioXspdfxXMFfWLZNYTgNMsPBkIiAMHREwMe2WhWvx47V5m7fd+E4J9t3WVsmCkNEs9rRPS5yLIFO9c1LNvi6OazNDx1bNo/cN59Z1g7bhIfja5/n2TVHOOWNZbsznjK9cw9kCAW3bqFMt1BW4mLH7//Jpu/ezp9uyMXeWlyxjuM7d4xn1W9P8FmgUxXDBiOQyIf1cQz4NvTLpFMpbs5mh1/pvYJTfqIKN5O0bjfL7/0BP74gBVPbIWoiF90wgSt2H2aNb7iO7vvHkPwapdXsyrX6OHRsdNC+WRMaoI/zApotBgC7alBxKiFoX6xVDGiysf9onHfj5fwoUz396AkfZZ/+lefXHOEbZyofNCZQ2oUAdIWhC1b/1/v8r93ODjaPgn3qAn44zjXAyStJCyouw0Zpk86/PrOGf5QGgq61Kfc8rs5sJmYIWzgYDIkICEVFMVvw+gLsOJAWtG9ufiHCMMI2jo+xDM1wQEmYwq+uGoXltAIQKNvAP986SIkrhU0uG96+Viqa+dvLOyjSOzyapmwWXZzIBK3PK72SnvBW8+SH3+DtcFkVLZO8sb5OczvnOkP2c1SzlZLmAF8eje60b2mGjuhH7x3QDRqb7EHbxqZ6hmBeQGHipXO4Mua0lAmjhs2r13HMHcsWp73f48pAyQFePKx36KFUUqdNZFG0b9guQZ2rVB8u42jHR0cxExunkWoaWYI7ZKsDqtmK7mrqcl5g/oRmNlZZUbTQHmvFZGn5R+gUlyYyc9pgtLgPaKP53uL0ICvAd3g9Hxf5OepMoXYgdYtGNu6uRp8yuv3mKekTmJn0JXFNVhr69HyqJGTlcNPCadyUP4Zp6TEk2jQMr5vaugb2HS1hw9a9vL67FscInBXvDdHsof6M62noAayKAYycNcMhE4G2F3eMJcChY6OZOa24fd+i2SXM3R/L9noDRTWhqL1ccEVBsUZTpttIiA1eMMvNdCJ2JZ7VZUJT9gSuSe8gYMJL4ZadVPviOOAfaEsER7Zu4emoGGZY9JbfJTw4bF5GKYIGEWL91iRu/t51/OGqTJLP1NqoaLKiosnKyuSqi+fyr8W7+Pmzm3i1dDj4XJw9lBgb8R0vp3DjaPSiD/Gic7jptwgIQweht4zfVRVUDUXtQ3WKghaTyJzMAONyqoJ2ZWWWs/LhcsrKM1i9Po/NxXaK3GYURQ0SBCEMMHRStADfvSjA1Yv2k5lREVTX0kUFLCtM4PWjMSim8Pgf9PLDyD0vl/EddEv4j7L3oItybwLOMJxBLz/EE6+6mGb1deiPLLhCfTajc/nNQ9/lwfHW3ocQikr8uNn8+bFosh57lydPjixTuCdSxmcxoaOW+0s4XiLwGFIEQPczN9HPv//LQTIzyik8lMfHX2W0vKwureVF7UEQhBEgVfXzP69t4LqlO7stl5lRzoq7ylkBbN81hfVfp7Kh2EqNYUYIg8lROncurOOSeUeJi3N0W88jyz8n7715/PaLRFSzrV8/OXQsnDchNejCGuWHOdZsodQbvodH6FHsd/VjTcCSxZU/voZvtwmACNBccZRDJyqpdwmiktLIyM4jO9nWwa1ZQY2fzC+WT2THY0VsGrA1cw5gTud/XJVz2i8DgbtoO3sdZmqGq1NGP+mXCBiG3i4AAFMmFTNlUjErgMJDebz9WRYbjtuo1k2gqKiq1j6RJQJelqT7+cWywvbjQ2FufiFz8wt5BNjwxUziov3MzS8M+fhl128jLWkm//7fadQo9j75IfQJLYVZ2aYOBqPAVVZKtc/GKaEMUlRS6MTOuZlbVQ0Fgat0K2tefYfNx5pw6laq/GacAqwmjanzLuOBO5YwLrrdOwnbxIXcN3UXO/ZGD3zNfzhjTuS2H93Aihyt/XYJ/0k2vv81tb4EyqUl0OKFp2ldzxRNmVTMI5OK21/WbYUJ7YIgDJ0Vcxq5+7atXR7r9dh5/G/zuXLuKebMPI7N7uqy3NJFBT22r6IijVc+msgtS46Tm1Pavv3ShQWMTs3j0VfyOOyPGhwhMMUxNii6x6CmqgZvwDIMXhwFVdMAgfPIezz3/EccaopmtzOTY34tyKtu6/qv+KhCY/2jl5DT5jGjpjB5qoWJB2DXMHZO6heqmZTUFGbPmMSd1+ZzTaalfagkjHr2vv4Ca79ROeSJxt1jRece/bMEvB4efmE6T90TIDm5pttySxcVsHQR/KQxnk+3jWdCdj1TJhV3WfbrPZP4+Rs5mP0uvvomCeebGSzJDnDN/EoWzAmtxz9yLJvn3p3AnlMKFt3DusMT+eW1ySxZuLe9zJRJxbz4s1pWPDeHHQ4bihbeuVE1IZZ0LVgEmhzNOIy4kMN/Bxvh3MdbKz+iqCmeTxxx1HY5mahSfmA3v919IX+ZY2vtERXiE2NINzejBMwh/R4153oefeYafinOjGfsO3r1Lm751Wd8HbI5HsuCe3/HmuUKek9BWaqG1WLGop1pqAmMpmI+eWUl7+xq4IQrnQOBkWUFQH8tAZ8LR4ObhY9N5+YJCtfMr2T2jBNBy3wdiYtzcP1l3Y/9//Tqt3hxdxSNTY0kqT5qfQBO3mq2UlCWing3k0vGebl8XlnQKkIbX2ybxjMfZlDtEThdLprcLavwiuLhifdTqKyZx/du3BbUnj/8eAfPvj6rdcLQ0p/L0CWK1UJM0Iyyjtvtw2Now0QEDMo2rWFLjZ2djfHUiB5GKMLLV4U1BOZk0TKlqmC2mIlSW5y5Qvk9imrGHmXG3nvR3lvucrM0rp7j9YmhLbMqCiarvZ8efgKjYR9vPPsCn5TAkebR7PWbeolBODfplwioZiv767xAI2sPwK4TsbhWzee6KYFuX9SuqKhI45EXZ3DSodPYUI8QRtDNFX4vh2u8KIpKZaOFD4tyuHBMDr/9yaagep75MIP91U6Er+XljzFBc6Bl9aC8tp6/bY6lvG4R931nD9ExTUCLEDyy/HP460W8fiwubBaBYjZjDdqio+sK/lCX7gabwAm++qqMek86x3t9ogUNTd5OL7umDNGroAjMijhLTlEKasJMbv/140zauJkVb+xH9w8PGQ83/bqeptik9v+bA1DsCFBZ7+CdnS5++vc0LvnFEl5YdSEVFWnd1vHBJ/l89z9nsbfCTUmtA1QVS1I6luQMTDEJKObTvbMQBk1uDyZfE1vKOy/zLRrnBlQ0ezTW5Az88RlBx1c0NPH6boOf/Oc8XK7gfuGR5Z9j6GFc/9b1MzLIaGgaPZqjZxOj9ghHay0c81pC6tUMYQwTC2ZoUEzx5F9xNZ88dQO/nGQd6nndQaF/3Z+qYU3OxN9cj+E9PXlX4xXg9QJeVn6msHLLeNLjpvPot09y/swjQVWs251IhcOF8LlRrVGYY5MQrYFFqj0W1R4Luh/d48TwuhF6gG+aDXLtAYpPZJI3tqy9rgun1/KXPVmYrKeXzCzxo/A3VmP4Wjz0nV4f++qj8Ps0OkXb9JTFo48Inz944kjRsNm0YePSq1eVU+G3UR1yZz6wx14//ha/eXIdp8JkPAg9rg+FG/n8mV/zSmFos5iKyUpUbDKZ46aSv3AxCyanYFUAFEzJk3n4YTMJT7zNr4+MrDXC/jsLKQqm2CSUmER0nxvD5+lCENxY8bPx6/ROInD+WCfrTtjQYhJQ7bFd9jaKZsYUnQDRCeiuRgJOB36/n03bs4NEYG5+IWmrxwSPExUFc8IoAk116B4XqTF2LsoOEJ8Q7E/w3vrZLc5OYUJ3NFNjCGifHFSJjY9tfZiGGoHf5cKrm3Ccxe7dCCTx3pCFEmscbcoMLZQYUE4JLMeLSPh0P4uWXs/vvp9PauvqiBKVxz33zWTnr3fypme4yPrAGfAvEYqCao3CFJeMNSWrkynvDQgOVlo7HZc1yoWiaS09fghotpZAo7Jmf9dBR7meLlOTmWKTUDQTfpOVH1xzrNP+jQUJ4V0h8DZS0tRxg0pqWirRamBYmJJ+XwDdUEfkBFc4ECh4DTNVPjtvfriRO9eUcnoqQMGUuZB7F/hIHspGhpmwyplQFFR7LOaEtPaxfa2P9iChjsyd9Q2KpoX+YqgaimZqT0biaIgP2j0j19mSaVgYp/+gxdTXLMxLMxifdzLomMJDeWyoMPXN3bk39Fr2l+pBcehRWWPItYRTBMxc99MHaVj1Kxytfw3/uI5rQvKKNtBFd3mYJMEYbHl/Bx82d4wnjmLaBRnMGqIQ9cFg8GwatbWX1zRiVUFZZVLQ7rg4B/OSjT6FDKvWFiEZZ/Fy4EhG0L5L5h1lSbqfxamu9r+JZhe6z4Nms3P7xZ29E9/+fEzvwUl9RbjYc8wR1NOqmROZmhggNJsnBLQkZuVYMWsqptY/zXGCafE1ZIXrHBIAhOsk7xf5g0TdlpHJeTb3iIkjHPQoQtVkZpTJR8Gh9KBxPMC4FB/bHaGnElPNVgzFictQ2XMkiQVzTu+Li3PwzEMbQ25XU1MCrxZZ0azhDioy2L/3G6pvTCa9LQ2YaTyzz7Mw6qTAEYalQiU+k/kZQc4IeMpKOBUwDwOvxBGG8FFyyoXA0m7JKdExxJr9xClQP6SNCw+DPruhaGbcfp0dhzvP6s7IdfYplZhisqBGx7Mg2+Cu6/cMqF1vfDS1dS4g/CN1z6EjrG/saEJamLTwPC60h8cIT501njmmDu0WOiXFJbj14eCaPPIwhAgePqkKmqJjGSFjqsEXAZOFkuYAh2o6Gx3jx9QjjJavEAmjlyhtYWDofu7J9/L4/Z8RHTOwoNy1B6JRw+wy3I73BC9vbugwJFAwjV3MHXN0Eno4LCSUBL596ViigzyTSzlY6KDObx62WYfPXUxkJkcFvSiiuYkmY8hjwcLGoIuAaraiWLp2Gp06uZit/7aN/31ZFUtGudH9HtD9nRKDCkNH93v5P1fW8NM7N3dZV1VlSqfJx+547b15FLm0PqU17xsBtq7bzb6OHmZqAvO/czHLEgY2oWTJncldk4KjFAMnd7G72kS5f7i4Jo8grFksnmwJut6+8jJOBVTCGBk+pAzunEBr7315jsoTd2/rskhbXMH1l0FpWQZf7BzD+v2xbKvT2kOQU7UAf1x+tNvgo01fzuT+N0d1mUtw/iiFuDNSCKwvUzFZwhcv0BV66S4e+yKfNy9NaFVaBVPaxTx6fzV7nzrMFl8/niAtmbvvmsO0jjNSwkvR5h1U+uyUhJi5WBIqKuOXzufbCR2HXj6OHjyKy7DSJBgR5sDgiYARwAj4WTG3qdvQ4TPJyixnWWY5y65vEYSPNudw4pSN+2451G3ugadXLmL1QQtmVz2eLnxztxw//b9NU/AqZszxKRBGB6EuEV7WvfYpG2bfwOVtOaoUlcTzb+H1B9/hxt8fYldXX9XsDjWGK394M49Nswb1Skb1l3y8o54KTwZNPRwu6SsaY+Ys5Z/LsoOGXoZjJ5/uauaUP56REk0ddhFQAEP3k6oF+N0dJcw9P/TEHx3Jyizn7tu6Tzri9dh59tUL+OiQBYfDgejF9TfWBE0BgTUlpcesR+HEqD3I/Svz+OqnM0huS9OjaKTMvYUNTxfwH3/+lN8fbO51HG9JHstPll/NI7MTgj0PjQa2v7mWQ+5YDnhMcigQBjRbDFMm5nLdpRdwz4VpJAVNBng4tm4t+512joygD5CE921oNf+XpPt5YvlOYmMbuixWWjaap16fyuXn17Mw/1gnV97e8Hrs3Pv/vkVhnaCh2YklOeP0p9ENHaG3anSHF8arqtg0M+Ks2m+Css3ruCMngXduyu6QqkrBljmL3zw+meWHjrB6cxHv7aukuLaZGreOQCEqIYlp48awdP507vxWDtlnOl0KP+WbXuKNAifHnaOpYngSznwCLRjsXvVPbvywPoRJ0NDyCbShmsxEW7RuvhYtaCxYxT82VVPlyaBiuESFhoHwiUCI5v+mL2dy/+pUUnQHh8tN/OzdfC5M17hlfh1LFxR2m5OgjdKy0az463RqnF4cHoE58YxIRVU77QB0xn0akp5SePnsldUs813FylunkNgh4YiiWMmcPJ0Vk6ezAkAIfD4/AZMZu6b0EOfvp2rbSzz/VhEV7lF87R2+bivhzCfQgk5OfCWLrSobvb0kNhlQPoEOCIOGA2/zpxe3UOpNZpsntIQq5wrhEQHdT4pJ79X8f3rlIlYVKFg9DTgRVLkNwMHek1BRa+Jn787n5gn0mKTk+8/NoNHlwYOGKbYPEWVDifDw8ap3uLqskpfuvpgJcd24SysKFquFnqYshb+W/R/8g5fWHqHMncymZht9mVoYCSgIzGfFGhcITyV71r/F6rX7KHEnsbk5ZsT5YgxcBITAMHT++C/dz963me/Hq504mr2gqqhmOxgeMAyaA9DsCAAOPi1S2FKcQJVYwMZf7mf06GBDN9kiqHKbMdnPvS/C7f1yCwv3f82K6y7me5fPITtGDXlwIgKNnNz9GR99sIE9FQFKXWlsdVlH3BdyhxIhdHxuJ67mRmrKijlcdJDdOws42ahR5kljpzuKrrNentsolhse77NlE+SwagRYkubt1mW36MhY7n1hArrLQZUrgGaPxhSd2J47QPjc6B5XUBgyQFaMiR9dJrj1mh1B2//w0kL+fiAOVQvB3bfr7rb34/pcsg8ogOJnTBzcmD+eBVPGk5udQVpKEvHRNixmDXQ/XncTDXU1VJWVcOJoIfsKiihtFNT5YtjniqNED7UrFFht1dwcc9rX3e1O4x2nrd2ZqbfLZLFWc3OMq/14j3cU7zTbg5yhOp4vO+Yki6yDaTAr1LozWOfubJarpnqujnUQ1++bp6ALFY/QcOk2qvw2yrzR1HX3c7o4j4KLufFV5KkdtnjT+W+XLcTozUF4RnsoOHARCPiYmxRg5cMbOpX74JN8fv5eIvH+Buq8AlNr7oAu6xSiJS+B143hdZFiVbggL6GTuGz4YiYr3stANXUOT+6xoT1vDP3wgdKxUkUnyewmy+wlxeQnVg1gVwWaIkAo6ELDbZhw6GZqfHbK/DYaBiHd9QAvU8iFB9zyPlTQddFBuKNdisAgVDrQkj0UHPBwQAjBtlqVTV/OZPG3WlKBe9xRPPfabFYVKFjcDdQJBXNCKoq5+xe3LS+Bao0i0Ag1XhfrSzu3fO6sbxDvpg+02cMDoVHni6He19XQZuTMPkuGNwMWAQWICzTz47fTmffZKGKtgoIaDWvAiaPZjWK2YIlLgT6E7KpmC4bXRYzwdUol1haCvMOhhz8MWCKJQAY8x6qaLNQ6PeiNdRw55aSizk1FfSN1zW40ezSW+FF9EgAA1dLi55uktYQgn8nMTE+n+AKJRNI/wpJezJI0GlSVU81e9lZ5wNBx2ZPRYk4nD+0TrZN+Hn+gyxDkBTNq+5SMRCKRdE94/ARUDUvyaDBa5xhVZcAJfFWLlQqXly1lnZs4N78Q8coYhDAG75uCEkmEELY3SIgWq0AoAxcAAKX168GVrgBVlSmd9i/N0OWQQCIJA8O2G1VbVxJyzG72FGV22j89y9Vr0JBEIumdYSsCbcuJih7g831JnQsIpCUgkYSBYSsC0DIvUO81eOe4mdKy0UH79pcN0qfFJZII4+wE1vcT1Wyj3ullcnQd339uBnecPxa7VWfb0diW7EBhzxQskUQew1oETFFx6B4nRQ0BRtlq2Vhgotxjp9Ljwxw94JSdEomEYS4CArAkpuN3VHPK4+VUpR9F1bEkdUgiIpFIBsSwFgGg/cOi7euO8uWXSMLK8BeBNuTLL5EMCnJ6XSKJcKQISCQRjhQBiSTCkSIgkUQ4UgQkkghHioBEEuFIEZBIIhwpAhJJhCNFQCKJcP4/Gvcww5Ud+xsAAAAASUVORK5CYII=;" vertex="1" parent="nSMvHfx7BpTb2uHLrpXf-124">
          <mxGeometry width="270" height="94.55" as="geometry" />
        </mxCell>
        <mxCell id="nSMvHfx7BpTb2uHLrpXf-33" value="" style="group" vertex="1" connectable="0" parent="nSMvHfx7BpTb2uHLrpXf-124">
          <mxGeometry x="40" y="110" width="220" height="155" as="geometry" />
        </mxCell>
        <mxCell id="nSMvHfx7BpTb2uHLrpXf-38" value="" style="dashed=0;verticalAlign=top;fontStyle=0;whiteSpace=wrap;html=1;fillColor=none;" vertex="1" parent="nSMvHfx7BpTb2uHLrpXf-33">
          <mxGeometry x="-20" y="-3.75" width="220" height="133.75" as="geometry" />
        </mxCell>
        <mxCell id="nSMvHfx7BpTb2uHLrpXf-29" value="" style="shape=image;verticalLabelPosition=bottom;labelBackgroundColor=default;verticalAlign=top;aspect=fixed;imageAspect=0;image=data:image/png,iVBORw0KGgoAAAANSUhEUgAAASwAAAEsCAIAAAD2HxkiAAAV+klEQVR4nO3da0xUZxoH8HeG4SoXRbwAKiqg4hVRwVu9Yq3KhzYp7qepSdOdtLvN2G2qpNk2o00/YJu1U3ez7jSp3Wl2a0LTpDtGbQp4RUVEK17wjgKioFyUiwgj8+6HdxxwpDAznDPPmZn/L6SZyrk8Cv8z75zzvOeoOOcMAOioqQsACHQIIQAxhBCAGEIIQAwhBCCGEAIQQwgBiCGEAMQQQgBiCCEAMYQQgBhCCEAMIQQghhACEEMIAYghhADEEEIAYgghADGEEIAYQghADCEEIIYQAhBDCAGIIYQAxBBCAGIIIQAxhBCAGEIIQAwhBCCGEAIQQwgBiCGEAMQQQgBiCCEAMYQQgBhCCEAMIQQghhACEEMIAYghhADEEEIAYgghADGEEIAYQghADCEEIIYQAhBDCAGIIYQAxBBCAGIIIQAxhBCAGEIIQExDXUB/rFbW1MQaG1lYGBs9mkVHUxcEICM33wnHjrV/mUwuLb9tm335jIzBF/7tN7Z1K0tPZ6GhLD6ezZrFUlNZTAyLjmavv85272YdHe5VC+AL3AxhQ4P9y8U8tLbal3/wYKDFamrYH/7A5s1jX37JKioY5y98t62N/e9/7E9/YikpzGRy/i6Aj1PAcLSigq1bx+7f7/2TmBiWlsZGjWIdHez+fXb1qj149fXs3XfZmTPsX/9iGgVUDiAF6l/lqiq2YgV79Mj+v0uWsG3b2PLlLDi4d5m6OrZnD9uxw/72++23zGZje/Z4v1gAOZCeHX32jGm1vQn89FN2/DjLzn4hgYyxxET26aesooIlJdn/5Lvv2I8/erNSAPmQhvA//2EnT9pfv/ce++wzplL97sLJyay4mA0bZv/fDz5gVqvsFQLIjzSEf/+7/UV8PNuxY/Dlk5PZZ5/ZX9+7x376Sa7CALyILoQXL7Jz5+yvN21iUVEurfXHP/a+Gf7733LUBeBldCE8caL39caNrq4VFcU2bLC/PnWK2WwSVwXgdXQhLC21vwgNZTNnurHiggX2F62trLJS4qoAvM7TSxStrezevcEXG+CafnW1/UVqqvPp0IH1TWx1tXsBBlAeT0O4fTvbvn1Ie25utr8YMcK9Ffsu39IypBrAi6qqqhoaGrKystRqTBt4Ad0/R2ur/YWLp2Qc+vZzO64xgoK1trbm5OSkpKQsXrw4Jibm22+/pa5IWTx9J5w4kcXHD77YnTsv9KP1FRpqf9Hd7d6uu7p6X4eHu7cueN1HH3309ddfP3v2jDGmUqna29vfeeed/Pz8H3/8MT09nbo6ZeBuYcz+9be/ubT8X/5iXz4x0flbCxfav5WZ6V4NR470lvHTT+6tC15UWVn56quvil+z0NDQHTt21NfXL1myxPEnBoOhs7OTukx6dMPR2Fj7i7o691bsu7xjI6Akzc3NmzdvnjVr1q+//hoVFZWbm9va2rp169YxY8aUlJQcP358xowZXV1d27dvnzJlyvfff09dLzG6EM6ZY39RVzfIRCcnjkv8KlXvRkAZrFbrN998M3Xq1F27dqlUKp1OV1VVVVBQEBIS4lhm6dKlly5dOnTo0OzZs2trazdt2rRq1aoLFy4Qlk3MvTdOCYejP//s4ahywQL7WtOmubEWyK+wsHDm8ytGq1evvnjx4sDL9/T0mM3mUaNGMcbUarVWq21oaPBOqYpCF8KmJh4WZv/u66+7WsDly701bN7seuEgq+vXr+fm5or4paamFhQUuL5uc3NzXl6eeKscMWJEfn5+V1eXfKUqEF0IOeebNtm/GxTEy8td2uCbb9pXUan41atuVA7yaGtrMxgMoaGhjLHIyEiDwfD06VMPtnP16tX169eLGE+dOnX//v2Sl6pYpCH87TceFGRfID2dP3o0yNb++9/eApzePEtK+D/+wa1W1/4aIAExmBwzZoxjMFlfXz/EbRYWFk6fPl1EMTs7+/Lly5KUqnCkIeSc//WvvducP59XVfW/mM3Gd+/mGo19ydhYXlfX+92eHj5/PmeMT53KA+kISujIkSOOq3xZWVmlpaVSbbm7u9toNMbExDDGgoOD9Xr9o0GPzj6OOoRdXXz16t7NhoXxP/+ZFxVx8QG9s5PfvMlNJp6Z2btMaCi3WJy3Y7Hw5GT7AtnZvLLSvb8XuKy2tlar1apUKsbYuHHjzGazzWaTfC+NjY16vT4oKIgxNnLkSKPR+OzZM8n3ohDUIeScP33KN27s3bLjS6Xq5w9jYnhxcf/b6e7mRiOPjuaM8eBgrtfzx4/d+9vBgDo6OgwGQ3h4OGMsIiIiLy+vra1N1j2ePXv2lVdeEe+3GRkZx44dk3V3VBQQQqGwkM+c2U/qHF9qNddqXxiF9uvhQ67X2z9qxsVxo5H77xHUa2w2W0FBQVJSEmNMpVLl5ubeuXPHa3u3WCwTJ04UUczJybl9+7bXdu0dKu7WbTw/+cT+Yv16tnjx4MsfPGifvBsTw7ZsGWThnh52+jT75RdWXs4aGlhjIwsPZ6NGsaQklp3N1q51qVtVOHeObd7MSkoYYywjg339NVu61NV14UVnz5794IMPSkpKGGPz5s0zGo1Lvf6P2dnZuWvXrs8//7y9vT08PFyv13/yySeRkZFeLkMu1EcBOVksPCnJ/kaak8P97ggqt3v37ul0OjHzKD4+3mQy0X4wu3v3ruPjaGJiokwfR73Pr0PIOe/o4Pn5PDKSM8YjInheHpf5Y4x/EKcoo6Oj2fNTlI8V8wH79OnTCxcuFG8hmZmZJ0+epK5oqPw9hEJtLddq7Wd6xo3jZjP3iyOoTCwWS3Jysvgtz8nJuXnzJnVFzmw2m9lsHjt2LGNMpVJptdr79+9TF+W5wAihUFrKs7Lso9OsLH7qFHVBinPlypV169aJ+E2bNu3AgQPUFQ2kvb3d0awzbNgwj5t1yAVSCDnnPT3cbOZjxvSebh1yk4d/aGpq0uv1Go2GMTZixAij0Wj1kfajGzduONpWU1JS3GpbVYgAC6HQ1sYNBh4ayhnjkZHcYOC+eQSVhNVqNZlMYiqDRqPR6XQPHjygLsptxcXFs2bNElEUE6OoK3JDQIZQuH6d5+baR6epqdwHj6BDV1RU5Lu/u05892gSwCEUiop6mwRWr+aDTYHzG34wiutXc3Ozz42rAz6EnHOrlZtMPC6OM8Y1Gq7T8YcPqWuSkd+czxiAb51hQgifa2rq7XeLjeVGo/9NjPKzM/uDUv61FgEhfFFlJV+7tvf2GQcPUhckGadr3KcC4wqNkrsOHBDC/lgsfPLk3n63W7eoCxoSf+32cp3ovxMTo5TQf+cEIfwdnZ3888/5sGFiluOJL7+Ue9qOHJ48eZKfny8ancPDw70w+UjJysvLHa3nGRkZx48fp67IDiEcUF0d1+mepqREBAeLI2hPTw91Ta7y+xlAHug7J0v8s3hzTtbvQQgHd+n06czMTPFjk/ZWDjIJkLmwHvP+7OSBIYQuEUfQCRMmsOezWqurq6mL6kdA3RViiLxznw5XIIRuEEfQsLAwcQRV1KMUAvD+SJIoLS3NysqiHeYghG6rqanRarXixzZ+/HglnGwMzDsFSkWOeze6BSH00OHDh+c8fxLGihUrzp8/T1JGIN8zV1pS3cXYAwih58QRdPTo0YziUQq4e7wchnI/f48hhEPV0tLiCMPw4cPz8/PlPoLiOSpyc/fJNkOEEErj2rVrGzZsED+2KVOm7Nu3T6YdiSeKiR2tXLmyoqJCph0FuO7ubpPJFBcX55gY9VC2tn6EUEqFhYUzZsxwnCC5dOmShBt/+YSQhBuHfokbDohLPrGxsTJd8kEIJSbHpQIx+UhcGhGTj5RzaSQQVFZWrl27Vhz+0tLSDkrd1o8QykKqi+ZOk49yc3NramokrxZcYbFYJk+e7Oh3uyVdWz9CKKNz584tW7ZM/Njmzp179OhRt1YvKytbtGiRWH3BggUnTpyQqU5wUVdXl2NiVEhIiFQToxBC2VkslkmTJjmOoFW/9/i3Purq6hwdVQkJCb7VOO736urqnG5MPsSfDkLoDWJKUVRUlGNKUWtr6xCXBFpnzpxZ/PxxLPPnzy8pKfF4Uwih9zi9v73c7+bBeyYQcmrrX7ZsWVlZmQfbQQi9zemTnniUQt9Pj+np6e5+egRCoq1f9LsxxpYvX97S0uLWFhBCAj09PXv27BHnPNVq9cyZM8UHjNGjRyvtzgvgolOnTiUkJIgcajSaf/7zn66vixCSEVf/QkJCkpKSNBoNJh/5gZ07dzou57q+lpsPCQWpffjhh1999dW77767e/du6lpAAt3d3WJo6nqy1HLWA4OLjY1ljI0cOZK6EJCGaOV3C0IIQAwhBCCGEAIQQwgBiCGEAMQQQt9gs9neeOONN998k7oQkJ6GugBwic1m+/nnn8UERfAzeCcEIIYQAhBDCAGIIYQAxBBCAGIIIQAxhBCAGEIIQAwhBCCGEAIQQwgBiCGEAMQQQgBiCCEAMYQQgBhCCEAMIQQghhACEEMIAYghhADEEEIAYgghADGEEIAYQghADCEEIIYQAhBDCAGIIYQAxBBCAGIIIQAxhBCAGEIIQAwhBCCGEAIQQwgBiCGEAMQQQgBiCCEAMYQQgBhCCEAMIQQghhACEEMIAYghhADEEEIAYgghADGEEIAYQghADCEEIIYQAhBDCAGIIYQAxBBCAGIIIQAxhBCAGEIIQAwhBCCGEAIQQwgBiCGEAMQQQgBiCCEAMYQQgBhCCEAMIQQghhACEEMIAYghhADEEEIAYgghADGEEIAYQghATENdALhErVZv2bIlKCiIuhCQHkLoG9Rq9RdffEFdBcgCw1EAYgghADGEEIAYQghADCEEIIYQEquqqnL8F/xAdXW1u6sghGRqa2vfeuut7777LjExce/evWvWrKmsrKQuCjxntVrffvvtyZMnM8ZGjRrlxpocvK6tre3jjz8OCwtjjEVGRm7YsCE6OpoxFhISsmXLlsePH1MXCG774YcfwsPDRaZiYmL27dvn+roIoVfZbLaCgoIJEyYwxlQqVW5ubnV1Nee8sbFRr9eLhpiRI0cajcZnz55RFwsuqa2t1Wq1KpWKMRYUFKTT6Xp6etzaAkLoPWfOnFm8eLE4WM6fP//EiRNOC5w9e/aVV14RC8ydO/fo0aMkdYKLOjo6DAaDeAOMiIh47733mpqaPNgOQugNdXV1Op1OrVYzxhISEkwm0wAHS4vFMnHiRBHFnJyc27dve7FScIkY0SQlJTlGNHfu3PF4awihvLq6uoxGY1RUlPjIp9frW1tbB13ryZMn+fn5kZGRjLHw8PC8vLy2tjYvVAuuKC8vX7JkiThKzps37/jx40PcIEIoI4vFIs6Vife0W7duubX63bt3HR82EhMTzWazzWaTqVRwxb179xwjmvj4eJPJJMlHd4RQFpWVlWvXrhXxS0tL++WXXzze1OnTpxcuXCg2tWDBgpMnT0pYJ7iou7vbaDSKk9jBwcF6vV7Ck9gIocSampoc5zljY2MlOc9ps9nMZvPYsWPFJxCtVnv//n1JqgVXWCyW5ORkx4jm5s2b0m4fIZRMd3e3yWSKi4sTB0udTvfw4UMJt9/e3m4wGEJDQxljw4YNMxgMnZ2dEm4fXnblypXXXntNxG/atGkHDhyQYy8IoTQKCwtnzJghflrZ2dkXL16UaUc3btzIzc0VO0pJSSkoKJBpRwFOjGg0Go1jRGO1WmXaF0I4VNevX3ekIjU11TupKC4unjVrltjpqlWrLly44IWdBgir1eoY0Wg0Gp1O9+DBA1n3iBB6rqWlJS8vT4wPIyMjDQbD06dPvbZ38bsiehS987sSCIqKirx/dEMIPdHT02M2m8eMGcMYU6vVWq22vr6epJLm5mbHqGnEiBGyjpr8G+E4HyF025EjR9LT08VPKysrq7S0lLoifuXKlXXr1omSpk6dKtP5A3/18hkvb45oOELolr6tuuPGjVPa1XO5z6T7HzGiIb/2gxC6xKlV12AwPHnyhLqofsh6TdnP9O2CyMzMPHXqFFUlCOEgpG3V9Q7RXSUaBuLi4jAxyonS+gERwoFI3qrrTeXl5UuXLhXFZ2Rk+FbxMuno6FBgZzxC2L+XW3XdnampBH3fxsUHReW/jctHsXPEEEJn/vexqu/hPyIiQiGHf2/qO1s6IyPj2LFj1BW9ACF8gR+fYFT4qV2Z+MR9QxBCO++06pIrLS3NyspyXOQkPCUoNzGiiYmJcYxoHj16RF1U/xBCr7bqKoFy2n3kU1hYmJaW5uinv3z5MnVFAwnoEHq/VVc52traHG0i3m98lc/Vq1fXr1/vaB7av38/dUWDC9wQkrTqKg3JFBCZNDc35+XlhYSEiDba/Pz8rq4u6qJcEoghxJQ8J0VFRTNnzhT/IKtXr5ZvMqRMxABbTCgRA2zfGtEEVgjJW3UV6+WRubS3BZBPcXHx7NmzxRFk5cqVFRUV1BW5LVBCqJBWXYV7+QY5Sj5HdfPmTceIZvz48WazmboiDwVECJXTqusTKisr+16tOXjwIHVFzsSIRjzMww9ut+PnIVRaq64PGeJNU2XidOO53Nzcmpoa6qKGym9DqMxWXd8ibh/ueGIUeQdfWVnZokWLxHHBn27B6p8hVGyrri/q+yANql72viOahIQEPxvR+FsIFd6q67vOnDnTd1ZXSUmJd/YrHsshHuYhRjSuPMzDt/hPCH2iVdenvfxwRbknRlkslkmTJjlGNFVVVbLujoo/hNCHWnX9gLjThzgzKe70IceZyXPnzi1btkzEz+8f1ejzISwsLJw+fbqvtOr6jZqaGq1WK/7ZpZ0YFYAjGh8OoS+26vqZw4cPz5kzR/wIli9ffv78+aFsLWBHND4ZQt9t1fU/ohVp9OjRjr7NhoYGD7bj9DCPS5cuSV6qYvlYCF9u1fXsRw7S6vtEgOHDh+fn57velHvt2rUNGzaI+E2ZMmXfvn2ylqpAvhTCQ4cO+Xqrrn+7du1aTk6O63ES0RUjGhHdwBzR+EYIq6urHacBfLpVNxC4MrCUahDrH5QeQj9r1Q0QfU+xBAUFzZ07t+8VxZ07d4pvMcZWrFgxxNM5fkC5IfTLVt2A0tjY+P7774uwqVSqjRs3HjlyRFzrF2fUMKIRlBvCbdu2iZ/WokWLysrKqMsBD+3du9fxvucI5Jo1a1paWqhLUwrlhrC+vj4tLc1Hb30NTrZu3RocHMwYS0pKwiHViYpzzpSKcy4a58EPdHd3d3Z2Or0rAmNM0SEECARq6gIAAh1CCEAMIQQghhACEEMIAYghhADEEEIAYgghADGEEIAYQghADCEEIIYQAhBDCAGIIYQAxBBCAGIIIQAxhBCAGEIIQAwhBCCGEAIQQwgBiCGEAMQQQgBiCCEAMYQQgBhCCEAMIQQghhACEEMIAYghhADEEEIAYgghADGEEIAYQghADCEEIIYQAhBDCAGIIYQAxBBCAGIIIQAxhBCAGEIIQAwhBCCGEAIQQwgBiCGEAMQQQgBiCCEAMYQQgBhCCEAMIQQg9n9vRhLot6xucwAAAABJRU5ErkJggg==;" vertex="1" parent="nSMvHfx7BpTb2uHLrpXf-33">
          <mxGeometry x="-10" y="20" width="70" height="70" as="geometry" />
        </mxCell>
        <mxCell id="nSMvHfx7BpTb2uHLrpXf-54" value="" style="shape=image;verticalLabelPosition=bottom;labelBackgroundColor=default;verticalAlign=top;aspect=fixed;imageAspect=0;image=data:image/png,iVBORw0KGgoAAAANSUhEUgAAASwAAAEsCAIAAAD2HxkiAAAU6ElEQVR4nO3dWVCUV/rH8afZQUAWFxRQ3FA0QaNiXIKoseLGmPGCi0zspDIXVMqp6jg1lfRUzUy1SS7si/lXWjMzCWPV1LRXBCtTpolLghpxZ3NJEAEXFFBRFEQEZOvzvzhtSwiGfnt7uvv9fcpKUfp29xH89vKec95ohBAEAHyCuAcAoHaIEIAZIgRghggBmCFCAGaIEIAZIgRghggBmCFCAGaIEIAZIgRghggBmCFCAGaIEIAZIgRghggBmCFCAGaIEIAZIgRghggBmCFCAGaIEIAZIgRghggBmCFCAGaIEIAZIgRghggBmCFCAGaIEIAZIgRghggBmCFCAGaIEIAZIgRghggBmCFCAGaIEIAZIgRghggBmCFCAGaIEIAZIgRghggBmCFCAGaIEIAZIgRghggBmCFCAGaIEIAZIgRghggBmCFCAGaIEIAZIgRghggBmCFCAGaIEIAZIgRghggBmCFCAGaIEIAZIgRghggBmCFCAGaIEIAZIgRghggBmIW4egePH9OpU9TcTO3tFB5OiYmUmUmZmaTRuGN4AIHPhQjLyshgoKNHaWBg+B8lJdG2bfTHP1J0tCuDA1ADjRBC8Y2EoL/8hYxGGnrb+Hh6+pR6ep7/zpQpdPAgzZvnhmECBC6nPhP+6U+0cycJQRoNbd1KpaXU309tbdTdTXfu0L/+RcnJRESNjZSdTXV17h0xQIBR/kp48CDl5pIQFB5ORUW0efMIx3R20m9+Q6WlRERZWXT6NIWGumGwAIFI4SuhEPTRR7Z3oX//+8gFElFMDFkslJpKRFRRQUVFrg0SIJApjPD4cbp8mYho5kzatu3XjoyNpU8/tX39z386NTYAVVAY4eHDti+2bqWg0W6bl2c7O3ruHLW3Kx8bgCoojPDcOdsXy5ePfnBUFC1aREQkBJWVKRwYgFoojLChwfZFRoZDx8+dO/yGAPBzCiO0v6uMj3foePtheDvqeaWlpZs3b96yZUtTUxP3WNTr3r17X331laKbKIzw6VPbF2FhDh0fEWH7YugkPrjb/fv3s7OzV61aVVxcvH///rS0tLfeequ/v597XOrS39+/a9eu2bNnb926tbq62vEbKoxw7FjbF11dDh3f2Wn74pevnJWVyh4aRiKEMJvNaWlpp06dIqKUlJSYmBir1VpYWDhjxoyTJ09yD1AtiouL582bt3379o6Ojg0bNowZM0bBjYUiM2cKIkEk6uocOv7dd23H/+c/P/v9ykoRFCRWrRIXLyobAAxRUVGx/NkZsujo6D179gghrFbrhx9+GB4eLn8/Nzf3xo0b3CMNZLW1tRs3bpTf7dmzZx84cEDpPSiM8Le/tUW1b59Dx8+fbzu+svJnv79/vxg3ThCJ4GDx/vuitVXZMFTv9u3b+fn5QUFBRDR58uSCgoLBwcGhB3R3dxuNxujoaCKKjIzU6/WPHz/mGm2gamtr0+v1YWFhRBQfH280Gnt7e524H4UR7txpi+r990c/+M4dERIiiERkpOjrG/6n7e1CrxdhYYJIxMUJo1E49RdQm97eXpPJFBMTQ0RhYWE6ne5X6mpubtZqtRqNhoiSk5PNZrPVavXmaAPV4OCg2WweP348EQUFBWm12nv37jl9bwojrK8XGo0gEgkJYtRn1k8/tRX7u9+98Ji6OrFpk+2w9HRRXKxsPCpjsVimTZtmf595/fp1R25VXl6+bNkyeausrKwzZ854epyB7dixY5mZmfL7uXr16kuXLrl4hwojFEKsX29r5g9/+LXDbtwQ0dG2I8+eHeU+S0rEvHm2g9euFdXVikcV6GpqatatWyd/8BkZGYcPH1Z0c6vVajabk5KSiEij0Wi12rt373poqAGssbFRq9XKn0JqaqrZbHbL3SqP8MoVERlpC+ZvfxMDAyMcU1srpk+3HfP73zt0t319wmQSY8cKIhEaKnQ68eiR4rEFoocPH+p0uuDgYCJKSEgwmUwDI37PHfDkyRODwRAREUFEY8aMMRgMPT097h1toPLot055hEKI//5XBAfbGsvMFP/4h7h0Sdy7J27eFN99J7ZtE+Hhtj9duFB0dCi45wcPhE5nu/PERGEyjRy5OvT19RUUFIwbN46IQkND8/PzW91xBuvq1at5eXny6XzmzJlFRUWu32cAs1qtRUVFqamp8k1EXl7erVu33PsQTkUohPj6axEXZyvtRb9yc0f/3Dii8+fFypW2O3nlFVFa6uQg/VlJScm8ZxclWLt27U8//eTe+z969OjLL78s73/NmjWuf7AJSOXl5fZJoKysrNOnT3viUZyNUAjx8KH485+fzxzaf0VGivXrhcIPLSOwWMS0ac97Vs1kV319fW5urvzBz5o1y3OvVP39/QUFBfIUX0hISH5+/v379z30WH5n1EkgN3IhQruGBnHypPjf/8TBg+L8edHdPcIxFouoqFB8z93dwmgUMTG2tvV6J19a/UR7e7ter5fz7NHR0QaD4enTp55+0La2Np1OFxIS4uJkV8CQU6wOTgK5hTsiHFVHh0hKEhqNyMsTjY2Kb97cLLRa29TI5MnCbBYBN9kl550mTpxon3dqaWnx5gBqa2s3bNjgyrKPwDBsEsg7i428EmFnp9DrbWdrYmKE0SiceIIvLxfLltnenWZliQCa7Dp+/PiCBQvkDz4nJ+fChQtcI7FYLDNmzLB/EK2pqeEaifdduHBh5cqV8u++YMGC48ePe+2hvRKhdO2ayMuzVZSaKpyYY7FahdkskpIEkfOvq76kqanJvqIlJSXFF1a09PX1mUym2NhYeUpWp9N1KDq/7YcePHjgrkkg53gxQunoUZGZaUtx9WrhxEm5J0+EwSAiIgSRGDNGGAzCDye7urq6DAZDZGQkEUVFRRkMhu4RP0szaW1ttf+7HDdunPf/XXqHfMYZO3as/Rmnvb3d+8PweoRCiMFBYTaL8eMFkQgKElqtcOKk3K1bQqt16XWViZx3mjp1qn3e6ebNm9yDGllVVdVrr70m36EtXLjwxIkT3CNyp2GTQNV867Q4IpTa2p4v4I6Pd3IB98/Xu9X7/Hq3ysrKFStWyB/8okWLTp48yT2i0VksFvmUIc9VNDQ0cI/IVXV1dfZJoPT09GLuFct8EUq1tWLjRltFs2cLJ07KPXtdbVixQp5X9M3Jrjt37tjnnSZNmuTReSe36+rqsm+MioqK0uv1nZ2d3INyxtBJoLi4OKPR6IVJoFFxRyiVlIiMjOcLuC9fVnwPDx/+n14vJ7sSEhJ2797d39/vgYE6Q24+CoBTHT54GslxchJowoQJXJNAv8I3IhTPFnDHxrqygNv1Pc5uZ7FYpk+fbn8vd+3aNe4RuercuXOvvvqq/BstWbLk7KhbZHzADz/8MH/+fPsk0EUfu56Dz0Qotba6voC7pKRk7rNLLa5du/ayE6+r7nDlypX169fLYcyZM+fgwYMsw/AE9qUFjpObj3z81dvHIpSqqkR29vN9GMpPyv3y1PMjL26MkpuP7O+NTSaT77w3dqPOzk6DwSA/X8ndPb7w+cpOTgLJzUdyEshn9235ZISSxSLS0p4v4FZ+Um7oJGxiYqIXJrvkkmi5+UglS6Lr6+vtG6M8utzccXISaMqUKb4/CST5cIRCiK4uYTTaduhHRQm9Xig/KVdVVZWdne2Fya4jR47YNwe9/vrrP/74o4ceyAcdOXLkpZdesv/d3b7xynEVFRVDJ4FOnTrFNRLH+XaEUlPT8wXcycnOLeC2WCxpaWkemuzCNlkx0rsAt2xBdpz/TgL5Q4TSuXNi6VLbu9MlS0a/bs0vDJ3sklcBdH2yS171wGc/F3kfy+fhoZNAcvORf00C+U+EQojBQfHvf4sJE+R6txN//asT15lz11UAh54hxKWThhl2ZvjQoUOee6xhk0AOXoHOp/hVhFJnpzAYemfNig0Pd/rFp6ysbOnSpU5Pdrl4c5XwdB7eTN2j/DBCIYQQDfX1mzZtcmX5n3wpU3oVQFxOVxEPvVEMsEkgf41Qcv2knOMf6jzxkVIl3HjKhP30jyf4d4TCTT+VUU9vevTkqkq4PnngOxMh7uX3EUpueX8y4kSf16YZ1cDpaXQfXBLgRgESoeT6J3W53i0+Pl6ud1u8eLE3F9yohKIFZT6+OM4tAipCyfWTci0tLfZr/nh/6alKjLq02o+WibsoACMUrp2U++STT+Q1J4lozZo1XJswVOJFm4z8ccOU0wIzQknpSblvvvkmMTFR/uCTk5O///57rw1VzQYGBr744gt5ai04OPjtt99+88035U9hypQphYWFAT8JFMgRSsMu6/Kik3ItLS1RUVHyhMHmzZu7urq8PE6Vs194IiQkRKPR+PVFNJQK/AiFYyflvv76a/lMXF9fzzJIEEKUl5cTUURERKOfX1FWkSBSARnelStX5Hm2ffv2zZ07d8eOHT09PcOODA0NnTVrFssggYjS09OJKCwsTP6vyFRCFRFKUVFRO3bsuHr1qlar7enp+fjjj9PT0/fu3SuE4B4aqJqKIpRSUlL27t177Nix+fPnNzc3v/vuu6tXr7548aK8FoY8oQrgTaqLUFq1atX58+flNfBKS0sXLVq0a9cuIpKXxAPwJpVGSERBQUHvvPNOXV3d9u3bg4ODi4uLiai/v597XKA66o1QiouL++yzz6qrq3NycogoNDSUe0SgOmqPUEpPT//888+5RwEqhQgBmCFCAGaIEIAZIgRghggBmCFCAGaIEIAZIgRghggBmCFCAGaIEIAZIgRghggBmCFCAGaIEIAZIgRghggBmCFCAGaIEIAZIgRghggBmCFCAGaIEIAZIgRghggBmCFCAGaIEIAZIgRghggBmCFCAGaIEIAZIgRghggBmCFCAGaIEIAZIgRghggBmCFCAGaIEIAZIgRghggBmCFCAGaIEIAZIgRghggBmCFCAGaIEIAZIgRghggBmCFCAGaIEIAZIgRghggBmCFCAGaIEIAZIgRghggBmCFCAGaIEIAZIgRghggBmCFCAGaIEIAZIrRpbGwkoqamJu6BqFpXV5f9v+qBCG16e3vt/wUug4ODRGS1WrkH4lWIEIAZIrQJCgoiot7e3t27d3OPRaUGBgY++ugjItJoNNxj8SpEaJObmzt58mQhxAcffJCamnr69GnuEanLl19+GRcXV1hYSESbN2/mHo53CXims7Nzy5Yt8mk4JCREp9M9fvyYe1CBr7m5WavVyn+NwcHB+fn5g4OD3IPyKkQ4XFVV1bJly+S708mTJxcUFKjt34TXdHd3G43GmJgYIoqMjMzJybl37x73oBggwpFVVFQsX75cPj0vXrz49OnT3CMKNBaLJS0tTX6Hc3Nzb9y4wT0iNojwhaxWa1FR0ZQpU4hIo9Hk5eXdunWLe1CB4Pz58ytXrpT5vfLKK6WlpdwjYoYIR/HkyRODwRAREUFEUVFRBoOhp6eHe1D+6sGDBzqdLjg4mIgSExNNJtPAwAD3oPghQoc0NjbaTx6kpqaazWbuEfmZvr4+k8k0duxYIgoNDdXpdI8ePeIelK9AhAocO3YsMzNTprhq1aqLFy9yj8g/lJSUzJ07V37f1q5de/nyZe4R+RZEqMzg4KDZbJ4wYQIRBQUFabVadZ7Qc1BdXd2mTZtkfunp6d9++y33iHwRInRGW1ubXq8PCwsjori4OKPR2Nvbyz0o34JvkeMQofPwND8ivFlQChG6atgHnurqau4RcRr6sXn16tX42OwIROgGOPUncALZBYjQbVQ7CTZ0KnXMmDGYSlUKEbqZqpaDYFGRWyBCj1DDwsjy8nIsr3ULROgpw7YI6PX6gNkYdfv27fz8fGw0cRdE6Flys5zco5icnGw2m61WK/egnNfb22symeQzS1hYGLZcugUi9Iby8vJly5bJd25ZWVlnzpzhHpEzLBbLtGnT7O+xr1+/zj2iAIEIvcRqtZrN5qSkJHkOQ6vV3r17l3tQjqqpqVm3bp3MLyMj4/Dhw9wjCiiI0Kv87mz+w4cP7fMuCQkJ6pl38SZEyODq1at5eXnyhWXGjBlFRUXcIxqBXIEQFxcnVyDk5+e3trZyDyowIUI2R48eta/wWrNmzaVLl7hH9FxJScm8efOwFs87ECGn/v7+goKC8ePH29c6379/n3dIdXV1ubm5Mr9Zs2YVFxfzjkcNECG/trY2nU4XEhJCRPHx8Vy7ftrb2/V6fXh4uH3z0dOnT70/DBVChL6itrZ248aN8iVo9uzZBw4c8NpD/3LzUUtLi9ceHRChbykpKcnIyLB/GKupqfH0Ix4/fnz+/PnyEXNyci5cuODpR4RhEKHPkaclY2NjPb0xqqmpyb6aJyUlxd9X8/gvROijWltbPbcxqqura9h1HLu7u91156AUIvRpVVVV2dnZ8r3iwoULT5w44eIdys1HU6dOtW8+unnzpluGCk5DhH5g2MaohoYG5+6nsrJyxYoV8n4WLVp06tQptw4TnIQI/UNXV5fRaIyOjpZvIPV6fWdnp+M3v3Pnjn3z0aRJk7D5yKcgQn/ixMYouflInuaRm486Ojq8M1pwECL0P2VlZUuXLpXvKpcsWXL27NkXHWmxWKZPn47NRz4OEfolOb0+ceJE+8ao2traoQeUlZWtX79e5jdnzpxDhw5xDRVGhQj9mNwYJReayan2jo6Oa9eu2Sff5eaj/v5+7pHCr9EIIQj8WX19/bp1627evElEISEh8owLEb3xxhuFhYXx8fHM44PRBHEPAFyVnp7e0NCwc+fO8PBwOaGfkJCwf//+7777DgX6BbwSBo7u7u49e/bExsa+99573GMBBRAhADO8HQVghggBmCFCAGaIEIAZIgRghggBmCFCAGaIEIAZIgRghggBmCFCAGaIEIAZIgRghggBmCFCAGaIEIAZIgRghggBmCFCAGaIEIAZIgRghggBmCFCAGaIEIAZIgRghggBmCFCAGaIEIAZIgRghggBmCFCAGaIEIAZIgRghggBmCFCAGaIEIAZIgRghggBmCFCAGaIEIAZIgRghggBmCFCAGaIEIAZIgRghggBmCFCAGaIEIAZIgRghggBmCFCAGaIEIAZIgRghggBmCFCAGaIEIAZIgRghggBmCFCAGaIEIAZIgRghggBmCFCAGaIEIAZIgRghggBmCFCAGb/DyevWY5toAxAAAAAAElFTkSuQmCC;" vertex="1" parent="nSMvHfx7BpTb2uHLrpXf-33">
          <mxGeometry x="60" y="12.5" width="85" height="85" as="geometry" />
        </mxCell>
        <mxCell id="nSMvHfx7BpTb2uHLrpXf-56" value="," style="text;html=1;align=center;verticalAlign=middle;resizable=0;points=[];autosize=1;strokeColor=none;fillColor=none;" vertex="1" parent="nSMvHfx7BpTb2uHLrpXf-33">
          <mxGeometry x="50" y="40" width="30" height="30" as="geometry" />
        </mxCell>
        <mxCell id="nSMvHfx7BpTb2uHLrpXf-57" value=". . ." style="text;html=1;align=center;verticalAlign=middle;resizable=0;points=[];autosize=1;strokeColor=none;fillColor=none;" vertex="1" parent="nSMvHfx7BpTb2uHLrpXf-33">
          <mxGeometry x="145" y="40" width="40" height="30" as="geometry" />
        </mxCell>
        <mxCell id="nSMvHfx7BpTb2uHLrpXf-58" value="" style="shape=curlyBracket;whiteSpace=wrap;html=1;rounded=1;flipH=1;labelPosition=right;verticalLabelPosition=middle;align=left;verticalAlign=middle;rotation=90;" vertex="1" parent="nSMvHfx7BpTb2uHLrpXf-33">
          <mxGeometry x="118" y="23" width="20" height="130" as="geometry" />
        </mxCell>
        <mxCell id="nSMvHfx7BpTb2uHLrpXf-36" value="&lt;div&gt;&lt;pre style=&quot;font-size: 9.8pt;&quot;&gt;&lt;font face=&quot;Courier New&quot; style=&quot;background-color: rgb(255, 255, 255);&quot; color=&quot;#1e1f22&quot;&gt;expand_chebi&lt;/font&gt;&lt;/pre&gt;&lt;/div&gt;" style="text;whiteSpace=wrap;html=1;" vertex="1" parent="nSMvHfx7BpTb2uHLrpXf-33">
          <mxGeometry x="80" y="83" width="140" height="70" as="geometry" />
        </mxCell>
        <mxCell id="nSMvHfx7BpTb2uHLrpXf-42" value="" style="dashed=0;verticalAlign=top;fontStyle=0;whiteSpace=wrap;html=1;fillColor=none;" vertex="1" parent="nSMvHfx7BpTb2uHLrpXf-124">
          <mxGeometry x="20" y="260" width="225" height="120" as="geometry" />
        </mxCell>
        <mxCell id="nSMvHfx7BpTb2uHLrpXf-34" value="" style="shape=image;verticalLabelPosition=bottom;labelBackgroundColor=default;verticalAlign=top;aspect=fixed;imageAspect=0;image=data:image/png,iVBORw0KGgoAAAANSUhEUgAAASwAAAEsCAIAAAD2HxkiAAASiElEQVR4nO3da0xUZxrA8WcQURAURUWxXosKVWulWi/1VjX2IknbTWmT2ml2s5G0X3C77obdxITtNtlltzGyySYrfrCZssnuUhO3460NWu9W8VqLWrwrXioqKCrKIPPuhzMdWbzgwMx5Zob/L01D4XDmrT3/MzPnvO/UYYwRAHpitAcAdHRECCgjQkAZEQLKiBBQRoSAMiIElBEhoIwIAWVECCgjQkAZEQLKiBBQRoSAMiIElBEhoIwIAWVECCgjQkAZEQLKiBBQRoSAMiIElBEhoIwIAWVECCgjQkAZEQLKiBBQRoSAMiIElBEhoIwIAWVECCgjQkAZEQLKiBBQRoSAMiIElBEhoIwIAWVECCgjQkAZEQLKiBBQRoSAMiIElBEhoIwIAWVECCgjQkAZEQLKiBBQRoSAMiIElBEhoIwIAWVECCgjQkAZEQLKiBBQRoSAMiIElBEhoIwIAWVECCgjQkAZEQLKiBBQRoSAMiIElBEhoIwIAWVECCiLDWzzv/xFRGTkSHnjjUduc+GC/POfIiKzZ8v48Q/fxuORHTtk61apqpK6OklMlLQ0mTpVpk+XhITAhgREOhMQESNifvazx22zfbtvsyVLHvJTr9csX24GDPBt0+KvlBTz6afG4wlsVEAkC/CZsJ0aG+WXv5SSEt8/ZmTIxInSq5fU1sqBA/Ldd3Ltmvz2t/LNN1JaKomJto4NUGJvhL//va/AjAxZvlymTfu/n+7dKwsWyMGDsn69LFgg//qXrWMDlNh4Yaa8XJYuFRFJT5etW1sWKCLjx8vmzfLssyIi//63/Pe/9o0N0GNjhEuXitcrIvKPf0ifPg/fpkcP+ewzcThERJYssW9sgB67Irx7V1atEhHJyJA5cx63ZVaWTJ0qIrJ9u1RV2TE2QJVdEe7bJw0NIiJz57a+8Suv+L7YtSuEQwLCQ5suzHg8cu3aI39aV/eQb/7wg++LUaNa37/1tlBEjh4NdGhAxGlThGvWSO/egf1KTY3vi5SU1jf2b1NbG9ij4BE8Hs+HH35YV1c3f/78Nx4z0QLtVlNTs23bttdff/3Jf8XG94SWrl1b3zg+3vdFfX2oxtORLFmypEePHitWrFi5cuWbb76ZkZFx7Ngx7UFFIa/X+/nnn2dkZLz99tsB/Qm36Zlw7lz5298e+dMDB+Tdd1t+s3t33xe3brW+/5s3fV8kJwc+ONx36tSphQsXrlmzRkRiY2P79+9fVVVVWVk5duzYTz/99IMPPoiNtfdGcfTasGHDRx99VFFRISKzZ892WFf4n1BgE2zaPG2tpMT3zaKi1h/lP//xbfzXvwY2PPzk1q1bBQUFXbt2FZG4uLjZs2fX1tYaY9asWdOvXz/rP/3IkSPXrl2rPdKId+LEiZycHOuPdODAgS6XK9A92BXh99/7vvnzn7f+KL/7nW/jsrLAhgdjvF5vaWnpoEGDRMThcOTk5Jw9e7bFNmVlZZmZmdZxM2fOnMOHD6sMNdI1P9N169atoKDgzp07bdiPXRE2NZlevYyISU01jY2tPEpmphExcXHmxo3AhtfhlZeXT5kyxapr/PjxO3bseNSWHo+nqKioR48eItK5c+e8vLzr16/bOdSI5vV6XS6X9ZrCOtOdO3euzXuzcRXFr37l+/5nnz3u11ev9m327ruBja1ju3DhQm5ubkxMjIikpaUVFxc3NTW1+ltXr17Ny8vr1KmTiKSkpBQVFd27d8+G0Ua08vLyyZMnW2e6CRMm7Ny5s507tDHCkydNQoJvvdKRIw//3bNnzcCBRsTExpoDB3zfbGgwkyeboiLD8fEwDQ0NRUVFSUlJ1tu/vLy8urq6gPawb9++aT9N5c3Kytq6dWuIhhrpzp8/73Q6rYsuaWlpLpfL6/W2f7f2rif8+999P+rd26xYYRoa7v/o3j3zxRfmqad8GxQU3P+Ry+X7ZlaW2bYtsAFHO7fbPXToUKuf7OzsU6dOtWdXQ4YM8e/q9OnTwRtmxKuvry8sLLTOdPHx8fn5+YGe6R7D9kW9f/qTcTh8GyQlmRkzTE6OmTXLpKTcX9r7m9+YFicYt9sMGeL7aXa24fgw5sCBAzNmzLCayczM/Oqrr9q/z9u3bxcWFiYmJvoPtZs3b7Z/t5EuiGe6h7I9QmPM5s1m0qSHr6wfO9asW/fw36qvN4WFJjHRiJj4eJOfb4J3Koos165d87+R69WrV9DfyDV/0TVgwIBgveiKRPv3758+fbqV37hx47Zs2RKKRwkwwq+/Nl9/bQ4efNw2tbW+zc6cedxmp0+bFSvMH/9ofv1r84c/mOXLTWVl6wM4f944nb7n0gEDjMvV8jkzqlmXNJOTk61Lmrm5uVeuXAnRY+3evXvSpEnW8ffCCy98++23IXqg8GTnJasAIwwTu3fffy6dMMG0+/JURCgrKxv10/T3OXPmVFRUhPoRm5qaml+Idzqdly5dCvWDqrP/5k1kRmiM8XqNy2X69TMixuEwTqeJ3uOjsrIyOzvbym/48OGrV6+289GtW9JdunTx35K+e/eunQOwk/1nOhPBEVpu3TIFBaZLFyNiunUzBQWmTVMWwlZtbW1+fr4VQHJycmFhoVYAx48f90/OSk9PLy0tVRlG6FRWVs6bN8/6FxwxYoSdZ7oIj9By/LjJyfG9Ok1PN1FxfFgvBfv27SsiMTExTqfzxx9/1B6U2bBhw5gxY6wjdfbs2YcOHdIeURBYZ7q4uDj/ma6h+c2z0IuKCC0bN5oxY3wpzpplIvn42LRp09ixY61jfcaMGQf88xbCQGNjY3Fxce/evUUkNjY2Nze3urpae1Bt9OCZ7vLly/YPI4oiNMY0NpriYtOnj2/OTW6uibTjo6qqyn974Kmnngrb2wPWbRJrJZR1m6Sx1SnBYab5mW7mzJkHH3/NP5SiK0JLTY3JyzOxsUbE9OxpiopanzIeBm7fvu2fkp+QkFBQUFBfX689qFYcPXr0lZ8+ECgjI2Pdo+7xhplz5845nc72LD4KrmiM0HL0qHn1Vd+r05EjHzkHIAw8uPjozONvsYYZt9s9bNgw/4SSEydOaI/okR4807Vt8VFwRW+EFrfbPP30/flu4Xd87Nmz58UXX7SO4Oeff3779u3aI2oLaxJ59+7d/ffWboTZMrQnWWapJdojNMbcvWv+/GeTlGRELk2eHNypt+1x8eJF/+Kj/v37P+Hio3AWtv9Ge/bsab7MMtzOdB0gQsvFi95f/OLloUOt42PFihWKx0fz5w1r8VG4PW+0x969e5s/t29TXfjStmWWNuswERpjjNm3b99U6+O9RbKyslSOjxbvoE6ePGn/GELNeu03ePBgxXe5Dy6zDNszXceK0OJ2u63jw+aFcy2uJa5fv96ex9ViXQWJj4+3/3pvZJ3pOmKE5v8XziUkJIR64VwU3FVrM5vvfB45cuTll18O7jLLUOugEVpsOD4enF8SusVH4Wzz5s3PPfec1cbEiRN37doV9IcI9TLL0OnQEVp27do1ceJE//ERxIVzGzZsGD16tH+m5ffffx+sPUcia45Yampq0GfDejwe/5ku1MssQ4EIjQnB8XHs2DH/moPhw4dH35qDNmu+LiQxMbH9C6NaLD6KxDMdEd538+ZN/8K5Nh8fzXcS9avv2iwoJ6moOdMRYUtt/k8bupdb0arNT2JBfzrVRYQPF+jbueZvLDvgJ7K0WaBv56LyTEeEj/SEFzYjZfFROHvCC5s2XGJVQYStePD48N/is/lmY9R7zC2+6D7TEeETOXLkSIvJLlrTbqJei8kuFRUVWtNubEOEAVi5cqX/k5gtYTglPwrU19d/8skn3bp1ExErP4fDMX/+/KqqKu2hhQQRBubOnTuLFy9OTExMSkrSXYoR9c6fPz9jxoyePXumpaW1//98FM4cxhhBIKqrq1NTU/v06VNdXa09lihXUlLy/vvvv/feeyUlJdpjCaEY7QEAHR0RAsqIEFBGhIAyIgy+xYsXjxkzxu12aw8EkYEIg6+qqqqioqK2tlZ7IIgMRAgoI0JAGRECyogQUEaEgDIiBJQRIaCMCAFlRAgoI0JAGRECyogQUEaEgDIiBJQRIaCMCAFlRAgoI0JAGRECyogQUEaEgDIiBJQRIaCMCAFlRAgoI0JAGRECyogQUEaEgDIiBJQRIaCMCAFlRAgoI0JAGRECyogQUEaEgDIiBJQRIaCMCAFlRAgoI0JAGRECyogQUEaEgDIiBJQRIaCMCAFlRAgoI0JAGRECyogQUEaEgDIiBJQRIaCMCINvyJAh48aNS0lJ0R4IIgMRBt/HH3+8f//+7Oxs7YEgMhAhoIwIA1ZXVyciN2/e1B5I9KusrPT/PYoRYcA8Ho//7wipq1evisi1a9e0BxJaRAgoI8KAde7cWUS8Xu8777zD82HolJeXf/HFFyKSkJCgPZbQIsKADR8+fNKkSSJSWlqanJxcUlKiPaJoU19fP3fu3IkTJ9bU1DgcjqVLl2qPKMQM2mTx4sWxsbHWn2F2dvapU6e0RxQl3G73kCFDrD/Y1NTUbdu2aY8o5Iiw7a5fv75o0aKkpCQRiYuLy8vLq6ur0x5UBNu3b9+0adOs/MaNG7ds2TLtEdmECNvrwoULubm5MTExIpKWllZcXNzU1KQ9qAhz5cqVvLy8Tp06iUhKSkpRUdG9e/e0B2UfIgyO8vLyKVOmWGfx8ePH79ixQ3tEkcHj8RQVFXXv3l1EOnfunJeXd/36de1B2Y0Ig8br9ZaWlg4aNEhEHA5HTk7O2bNntQcV1srKyjIzM60z15w5cw4fPqw9Ih1EGGS3bt0qKCjo2rWriHTr1q2goODOnTvagwo7P/zww2uvvWblN3LkyLVr12qPSBMRhsS5c+ecTqd1kA0cONDlcmmPKFzU1NTk5+fHxcWJSM+ePQsLCxsaGrQHpYwIQ+ibb7559tlnrRRfeuml7777TntEmhobG4uLi/v06SMiMTExTqezurpae1BhgQhDq6mpyeVy9e3b13/kXb58WXtQCjZu3Mj56FGI0A4d+TXY8ePHc3JyrPwGDRrEK/MHEaF9ml+NGDFixJo1a7RHFFpco3pCRGi3srKyZ555Jrqvy3u9XpfL1a9fP+tujdPpvHTpkvagwhcRKrDuUPfo0SMq71CXl5dPnjzZOstMmDBh586d2iMKd0So5urVq1E2V+v8+fNOp9PhcFgz+Fwul9fr1R5UBCBCZS1mLW/ZskV7RG1RX19fWFhozWWPj4/Pz89nLvuTI8Kw0Hz9TnZ29unTp7VHFAC32z106FBWdbUZEYYL68kkMTExgp5M9u/fP3369Eh/GldHhOGl+duqAQMGhO3bquh7Q6uICMPR7t27rU/QCMMLjNF9aVcFEYap8LzVVlZWNmrUKP9NzoqKCu0RRQMiDGvWpJMuXbqoTzqprKycN2+ef7rP6tWrVYYRlYgwAjSffpmenl5aWmrno9fW1vonviYnJ3eoia/2IMKIsXHjxjFjxlgpzpo169ChQ6F+RJaA2IMII0nzJXmxsbG5ubmhW5K3adOmsWPHWs3PnDnz4MGDIXogEGHkqampycvLsz71tGfPnkVFRY2NjUHcPx8LYDMijFRHjx599dVX/R/Tsm7duvbv8/bt2/7FRwkJCSw+sgcRRja32/3000/7p4ydOHGibfvho+IUEWHEe/CjO2/cuBHQHvbs2dP8Q1O3b98eoqHioYgwSly8eDE3N9eaR9a7d+8nnEfGx4eHAyKMKnv37p06dar1nJaVlfWY/5tKQ0OD//nT+h9pBPr8iWAhwmhjvbsbPHiw/43imTNnWmzjdruHDRvm3+DkyZMqQ4WFCKPT7du3/Quj4uLipk2bZt1RXLVqlXWbUUQyMzPXr1+vPVIYhzFGEKXOnj27cOHCL7/8UkRiY2NTU1MvXLggIl27dl26dOmCBQus95DQRYTRb9myZYsWLaqvr7f+cfTo0atWrUpPT9cdFfyIsEPweDwLFy68e/fuW2+95V8MgTBBhICyGO0BAB0dEQLKiBBQRoSAMiIElBEhoIwIAWVECCgjQkAZEQLKiBBQRoSAMiIElBEhoIwIAWVECCgjQkAZEQLKiBBQRoSAMiIElBEhoIwIAWVECCgjQkAZEQLKiBBQRoSAMiIElBEhoIwIAWVECCgjQkAZEQLKiBBQRoSAMiIElBEhoIwIAWVECCgjQkAZEQLKiBBQRoSAMiIElBEhoIwIAWVECCgjQkAZEQLKiBBQRoSAMiIElBEhoIwIAWVECCgjQkAZEQLKiBBQRoSAMiIElBEhoIwIAWVECCgjQkAZEQLKiBBQRoSAMiIElBEhoIwIAWVECCgjQkDZ/wAulhnfSh1EFQAAAABJRU5ErkJggg==;" vertex="1" parent="nSMvHfx7BpTb2uHLrpXf-124">
          <mxGeometry x="40" y="290" width="70" height="70" as="geometry" />
        </mxCell>
        <mxCell id="nSMvHfx7BpTb2uHLrpXf-52" value="" style="shape=cross;whiteSpace=wrap;html=1;rotation=45;fillColor=#F51D3A;strokeColor=none;opacity=60;" vertex="1" parent="nSMvHfx7BpTb2uHLrpXf-124">
          <mxGeometry x="35" y="285" width="80" height="80" as="geometry" />
        </mxCell>
        <mxCell id="nSMvHfx7BpTb2uHLrpXf-45" style="edgeStyle=orthogonalEdgeStyle;rounded=0;orthogonalLoop=1;jettySize=auto;html=1;exitX=1;exitY=0.5;exitDx=0;exitDy=0;entryX=0;entryY=0.5;entryDx=0;entryDy=0;" edge="1" parent="1" source="nSMvHfx7BpTb2uHLrpXf-16" target="nSMvHfx7BpTb2uHLrpXf-38">
          <mxGeometry relative="1" as="geometry" />
        </mxCell>
        <mxCell id="nSMvHfx7BpTb2uHLrpXf-72" value="" style="dashed=0;verticalAlign=top;fontStyle=0;whiteSpace=wrap;html=1;fillColor=none;" vertex="1" parent="1">
          <mxGeometry x="-230" y="-639" width="220" height="263.75" as="geometry" />
        </mxCell>
        <mxCell id="nSMvHfx7BpTb2uHLrpXf-46" style="edgeStyle=orthogonalEdgeStyle;rounded=0;orthogonalLoop=1;jettySize=auto;html=1;exitX=1;exitY=0.5;exitDx=0;exitDy=0;entryX=0;entryY=0.5;entryDx=0;entryDy=0;" edge="1" parent="1" source="nSMvHfx7BpTb2uHLrpXf-10" target="nSMvHfx7BpTb2uHLrpXf-42">
          <mxGeometry relative="1" as="geometry" />
        </mxCell>
        <mxCell id="nSMvHfx7BpTb2uHLrpXf-125" style="edgeStyle=orthogonalEdgeStyle;rounded=0;orthogonalLoop=1;jettySize=auto;html=1;exitX=1;exitY=0.5;exitDx=0;exitDy=0;fontFamily=Helvetica;fontSize=12;fontColor=default;" edge="1" parent="1" source="nSMvHfx7BpTb2uHLrpXf-38" target="nSMvHfx7BpTb2uHLrpXf-72">
          <mxGeometry relative="1" as="geometry" />
        </mxCell>
        <mxCell id="nSMvHfx7BpTb2uHLrpXf-89" style="edgeStyle=orthogonalEdgeStyle;rounded=0;orthogonalLoop=1;jettySize=auto;html=1;exitX=1;exitY=0.5;exitDx=0;exitDy=0;fontFamily=Helvetica;fontSize=12;fontColor=default;" edge="1" parent="1" source="nSMvHfx7BpTb2uHLrpXf-73">
          <mxGeometry relative="1" as="geometry">
            <mxPoint x="-91" y="-605" as="targetPoint" />
          </mxGeometry>
        </mxCell>
        <mxCell id="nSMvHfx7BpTb2uHLrpXf-93" style="edgeStyle=orthogonalEdgeStyle;rounded=0;orthogonalLoop=1;jettySize=auto;html=1;exitX=1;exitY=0.5;exitDx=0;exitDy=0;fontFamily=Helvetica;fontSize=12;fontColor=default;" edge="1" parent="1">
          <mxGeometry relative="1" as="geometry">
            <mxPoint x="-30" y="-605.29" as="sourcePoint" />
            <mxPoint x="60" y="-605.29" as="targetPoint" />
          </mxGeometry>
        </mxCell>
        <mxCell id="nSMvHfx7BpTb2uHLrpXf-97" value="" style="shape=cross;whiteSpace=wrap;html=1;rotation=45;fillColor=#F51D3A;strokeColor=none;opacity=60;" vertex="1" parent="1">
          <mxGeometry x="-132" y="-473" width="21" height="24" as="geometry" />
        </mxCell>
        <mxCell id="nSMvHfx7BpTb2uHLrpXf-128" value="&lt;div align=&quot;center&quot;&gt;&lt;pre&gt;&lt;font color=&quot;#1e1f22&quot; style=&quot;background-color: rgb(255, 255, 255); font-size: 13px;&quot; face=&quot;Courier New&quot;&gt;X5WIT5,A0A772,...&lt;/font&gt;&lt;/pre&gt;&lt;/div&gt;" style="text;whiteSpace=wrap;html=1;align=center;verticalAlign=middle;" vertex="1" parent="1">
          <mxGeometry x="70" y="-640" width="140" height="70" as="geometry" />
        </mxCell>
        <mxCell id="nSMvHfx7BpTb2uHLrpXf-175" style="edgeStyle=orthogonalEdgeStyle;rounded=0;orthogonalLoop=1;jettySize=auto;html=1;exitX=1;exitY=0.5;exitDx=0;exitDy=0;fontFamily=Helvetica;fontSize=12;fontColor=default;" edge="1" parent="1" source="nSMvHfx7BpTb2uHLrpXf-128">
          <mxGeometry relative="1" as="geometry">
            <mxPoint x="-1020" y="-530" as="targetPoint" />
            <mxPoint x="210" y="-599" as="sourcePoint" />
            <Array as="points">
              <mxPoint x="350" y="-605" />
              <mxPoint x="350" y="-140" />
              <mxPoint x="-1019" y="-140" />
              <mxPoint x="-1019" y="-469" />
            </Array>
          </mxGeometry>
        </mxCell>
        <mxCell id="nSMvHfx7BpTb2uHLrpXf-178" value="" style="group" vertex="1" connectable="0" parent="1">
          <mxGeometry x="-1031.69" y="-240" width="562.63" height="110" as="geometry" />
        </mxCell>
        <mxCell id="nSMvHfx7BpTb2uHLrpXf-161" value="" style="shape=table;startSize=0;container=1;collapsible=0;childLayout=tableLayout;align=left;verticalAlign=top;fontFamily=Helvetica;fontSize=12;fontColor=default;fillColor=none;gradientColor=none;" vertex="1" parent="nSMvHfx7BpTb2uHLrpXf-178">
          <mxGeometry x="32.63" y="30" width="357.37" height="55" as="geometry" />
        </mxCell>
        <mxCell id="nSMvHfx7BpTb2uHLrpXf-162" value="" style="shape=tableRow;horizontal=0;startSize=0;swimlaneHead=0;swimlaneBody=0;strokeColor=inherit;top=0;left=0;bottom=0;right=0;collapsible=0;dropTarget=0;fillColor=none;points=[[0,0.5],[1,0.5]];portConstraint=eastwest;align=center;verticalAlign=middle;fontFamily=Courier New;fontSize=12;fontColor=default;" vertex="1" parent="nSMvHfx7BpTb2uHLrpXf-161">
          <mxGeometry width="357.37" height="35" as="geometry" />
        </mxCell>
        <mxCell id="nSMvHfx7BpTb2uHLrpXf-163" value="&lt;u&gt;smiles&lt;/u&gt;" style="shape=partialRectangle;html=1;whiteSpace=wrap;connectable=0;strokeColor=#000000;overflow=hidden;fillColor=#E6C9FF;top=1;left=1;bottom=1;right=1;pointerEvents=1;align=center;verticalAlign=middle;fontFamily=Courier New;fontSize=12;fontColor=#333333;labelBackgroundColor=none;labelBorderColor=none;gradientColor=none;" vertex="1" parent="nSMvHfx7BpTb2uHLrpXf-162">
          <mxGeometry width="99" height="35" as="geometry">
            <mxRectangle width="99" height="35" as="alternateBounds" />
          </mxGeometry>
        </mxCell>
        <mxCell id="nSMvHfx7BpTb2uHLrpXf-164" value="&lt;u&gt;rhea&lt;/u&gt;" style="shape=partialRectangle;html=1;whiteSpace=wrap;connectable=0;strokeColor=#000000;overflow=hidden;fillColor=#E6C9FF;top=1;left=1;bottom=1;right=1;pointerEvents=1;align=center;verticalAlign=middle;fontFamily=Courier New;fontSize=12;fontColor=#333333;labelBackgroundColor=none;labelBorderColor=none;gradientColor=none;" vertex="1" parent="nSMvHfx7BpTb2uHLrpXf-162">
          <mxGeometry x="99" width="40" height="35" as="geometry">
            <mxRectangle width="40" height="35" as="alternateBounds" />
          </mxGeometry>
        </mxCell>
        <mxCell id="nSMvHfx7BpTb2uHLrpXf-165" value="ecNumber" style="shape=partialRectangle;html=1;whiteSpace=wrap;connectable=0;strokeColor=#000000;overflow=hidden;fillColor=#E6C9FF;top=1;left=1;bottom=1;right=1;pointerEvents=1;align=center;verticalAlign=middle;fontFamily=Courier New;fontSize=12;fontColor=#333333;labelBackgroundColor=none;labelBorderColor=none;gradientColor=none;" vertex="1" parent="nSMvHfx7BpTb2uHLrpXf-162">
          <mxGeometry x="139" width="90" height="35" as="geometry">
            <mxRectangle width="90" height="35" as="alternateBounds" />
          </mxGeometry>
        </mxCell>
        <mxCell id="nSMvHfx7BpTb2uHLrpXf-166" value="protein" style="shape=partialRectangle;html=1;whiteSpace=wrap;connectable=0;strokeColor=#000000;overflow=hidden;fillColor=#E6C9FF;top=1;left=1;bottom=1;right=1;pointerEvents=1;align=center;verticalAlign=middle;fontFamily=Courier New;fontSize=12;fontColor=#333333;labelBackgroundColor=none;labelBorderColor=none;gradientColor=none;" vertex="1" parent="nSMvHfx7BpTb2uHLrpXf-162">
          <mxGeometry x="229" width="128" height="35" as="geometry">
            <mxRectangle width="128" height="35" as="alternateBounds" />
          </mxGeometry>
        </mxCell>
        <mxCell id="nSMvHfx7BpTb2uHLrpXf-168" value="" style="shape=tableRow;horizontal=0;startSize=0;swimlaneHead=0;swimlaneBody=0;strokeColor=inherit;top=0;left=0;bottom=0;right=0;collapsible=0;dropTarget=0;fillColor=none;points=[[0,0.5],[1,0.5]];portConstraint=eastwest;align=center;verticalAlign=middle;fontFamily=Courier New;fontSize=12;fontColor=default;" vertex="1" parent="nSMvHfx7BpTb2uHLrpXf-161">
          <mxGeometry y="35" width="357.37" height="20" as="geometry" />
        </mxCell>
        <mxCell id="nSMvHfx7BpTb2uHLrpXf-169" value="CC1=C(O)CCCC1" style="shape=partialRectangle;html=1;whiteSpace=wrap;connectable=0;strokeColor=inherit;overflow=hidden;fillColor=none;top=0;left=0;bottom=0;right=0;pointerEvents=1;align=center;verticalAlign=middle;fontFamily=Courier New;fontSize=12;fontColor=default;" vertex="1" parent="nSMvHfx7BpTb2uHLrpXf-168">
          <mxGeometry width="99" height="20" as="geometry">
            <mxRectangle width="99" height="20" as="alternateBounds" />
          </mxGeometry>
        </mxCell>
        <mxCell id="nSMvHfx7BpTb2uHLrpXf-170" value="..." style="shape=partialRectangle;html=1;whiteSpace=wrap;connectable=0;strokeColor=inherit;overflow=hidden;fillColor=none;top=0;left=0;bottom=0;right=0;pointerEvents=1;align=center;verticalAlign=middle;fontFamily=Courier New;fontSize=12;fontColor=default;" vertex="1" parent="nSMvHfx7BpTb2uHLrpXf-168">
          <mxGeometry x="99" width="40" height="20" as="geometry">
            <mxRectangle width="40" height="20" as="alternateBounds" />
          </mxGeometry>
        </mxCell>
        <mxCell id="nSMvHfx7BpTb2uHLrpXf-171" value="X.Y.Z.W" style="shape=partialRectangle;html=1;whiteSpace=wrap;connectable=0;strokeColor=inherit;overflow=hidden;fillColor=none;top=0;left=0;bottom=0;right=0;pointerEvents=1;align=center;verticalAlign=middle;fontFamily=Courier New;fontSize=12;fontColor=default;" vertex="1" parent="nSMvHfx7BpTb2uHLrpXf-168">
          <mxGeometry x="139" width="90" height="20" as="geometry">
            <mxRectangle width="90" height="20" as="alternateBounds" />
          </mxGeometry>
        </mxCell>
        <mxCell id="nSMvHfx7BpTb2uHLrpXf-172" value="&lt;font style=&quot;font-size: 10px;&quot;&gt;[X5WIT5, A0A772, ...]&lt;/font&gt;" style="shape=partialRectangle;html=1;whiteSpace=wrap;connectable=0;strokeColor=inherit;overflow=hidden;fillColor=none;top=0;left=0;bottom=0;right=0;pointerEvents=1;align=center;verticalAlign=middle;fontFamily=Courier New;fontSize=12;fontColor=default;" vertex="1" parent="nSMvHfx7BpTb2uHLrpXf-168">
          <mxGeometry x="229" width="128" height="20" as="geometry">
            <mxRectangle width="128" height="20" as="alternateBounds" />
          </mxGeometry>
        </mxCell>
        <mxCell id="nSMvHfx7BpTb2uHLrpXf-177" value="reaction_data.tsv" style="shape=partialRectangle;html=1;whiteSpace=wrap;connectable=0;strokeColor=inherit;overflow=hidden;fillColor=none;top=0;left=0;bottom=0;right=0;pointerEvents=1;align=center;verticalAlign=middle;fontFamily=Courier New;fontSize=12;fontColor=default;" vertex="1" parent="nSMvHfx7BpTb2uHLrpXf-178">
          <mxGeometry width="200" height="40" as="geometry">
            <mxRectangle width="60" height="40" as="alternateBounds" />
          </mxGeometry>
        </mxCell>
        <mxCell id="nSMvHfx7BpTb2uHLrpXf-194" value="" style="group" vertex="1" connectable="0" parent="1">
          <mxGeometry x="-1036" y="-360" width="562.63" height="110" as="geometry" />
        </mxCell>
        <mxCell id="nSMvHfx7BpTb2uHLrpXf-195" value="" style="shape=table;startSize=0;container=1;collapsible=0;childLayout=tableLayout;align=left;verticalAlign=top;fontFamily=Helvetica;fontSize=12;fontColor=default;fillColor=none;gradientColor=none;" vertex="1" parent="nSMvHfx7BpTb2uHLrpXf-194">
          <mxGeometry x="32.63" y="30" width="530" height="55" as="geometry" />
        </mxCell>
        <mxCell id="nSMvHfx7BpTb2uHLrpXf-196" value="" style="shape=tableRow;horizontal=0;startSize=0;swimlaneHead=0;swimlaneBody=0;strokeColor=inherit;top=0;left=0;bottom=0;right=0;collapsible=0;dropTarget=0;fillColor=none;points=[[0,0.5],[1,0.5]];portConstraint=eastwest;align=center;verticalAlign=middle;fontFamily=Courier New;fontSize=12;fontColor=default;" vertex="1" parent="nSMvHfx7BpTb2uHLrpXf-195">
          <mxGeometry width="530" height="35" as="geometry" />
        </mxCell>
        <mxCell id="nSMvHfx7BpTb2uHLrpXf-197" value="&lt;u&gt;smiles&lt;/u&gt;" style="shape=partialRectangle;html=1;whiteSpace=wrap;connectable=0;strokeColor=#000000;overflow=hidden;fillColor=#E6C9FF;top=1;left=1;bottom=1;right=1;pointerEvents=1;align=center;verticalAlign=middle;fontFamily=Courier New;fontSize=12;fontColor=#333333;labelBackgroundColor=none;labelBorderColor=none;gradientColor=none;" vertex="1" parent="nSMvHfx7BpTb2uHLrpXf-196">
          <mxGeometry width="100" height="35" as="geometry">
            <mxRectangle width="100" height="35" as="alternateBounds" />
          </mxGeometry>
        </mxCell>
        <mxCell id="nSMvHfx7BpTb2uHLrpXf-198" value="CID" style="shape=partialRectangle;html=1;whiteSpace=wrap;connectable=0;strokeColor=#000000;overflow=hidden;fillColor=#E6C9FF;top=1;left=1;bottom=1;right=1;pointerEvents=1;align=center;verticalAlign=middle;fontFamily=Courier New;fontSize=12;fontColor=#333333;labelBackgroundColor=none;labelBorderColor=none;gradientColor=none;" vertex="1" parent="nSMvHfx7BpTb2uHLrpXf-196">
          <mxGeometry x="100" width="40" height="35" as="geometry">
            <mxRectangle width="40" height="35" as="alternateBounds" />
          </mxGeometry>
        </mxCell>
        <mxCell id="nSMvHfx7BpTb2uHLrpXf-199" value="ChEBI" style="shape=partialRectangle;html=1;whiteSpace=wrap;connectable=0;strokeColor=#000000;overflow=hidden;fillColor=#E6C9FF;top=1;left=1;bottom=1;right=1;pointerEvents=1;align=center;verticalAlign=middle;fontFamily=Courier New;fontSize=12;fontColor=#333333;labelBackgroundColor=none;labelBorderColor=none;gradientColor=none;" vertex="1" parent="nSMvHfx7BpTb2uHLrpXf-196">
          <mxGeometry x="140" width="60" height="35" as="geometry">
            <mxRectangle width="60" height="35" as="alternateBounds" />
          </mxGeometry>
        </mxCell>
        <mxCell id="nSMvHfx7BpTb2uHLrpXf-200" value="related_results.CID" style="shape=partialRectangle;html=1;whiteSpace=wrap;connectable=0;strokeColor=#000000;overflow=hidden;fillColor=#E6C9FF;top=1;left=1;bottom=1;right=1;pointerEvents=1;align=center;verticalAlign=middle;fontFamily=Courier New;fontSize=12;fontColor=#333333;labelBackgroundColor=none;labelBorderColor=none;gradientColor=none;" vertex="1" parent="nSMvHfx7BpTb2uHLrpXf-196">
          <mxGeometry x="200" width="160" height="35" as="geometry">
            <mxRectangle width="160" height="35" as="alternateBounds" />
          </mxGeometry>
        </mxCell>
        <mxCell id="nSMvHfx7BpTb2uHLrpXf-201" value="related_result.ChEBI" style="shape=partialRectangle;html=1;whiteSpace=wrap;connectable=0;strokeColor=#000000;overflow=hidden;fillColor=#E6C9FF;top=1;left=1;bottom=1;right=1;pointerEvents=1;align=center;verticalAlign=middle;fontFamily=Courier New;fontSize=12;fontColor=#333333;labelBackgroundColor=none;labelBorderColor=none;gradientColor=none;" vertex="1" parent="nSMvHfx7BpTb2uHLrpXf-196">
          <mxGeometry x="360" width="170" height="35" as="geometry">
            <mxRectangle width="170" height="35" as="alternateBounds" />
          </mxGeometry>
        </mxCell>
        <mxCell id="nSMvHfx7BpTb2uHLrpXf-202" value="" style="shape=tableRow;horizontal=0;startSize=0;swimlaneHead=0;swimlaneBody=0;strokeColor=inherit;top=0;left=0;bottom=0;right=0;collapsible=0;dropTarget=0;fillColor=none;points=[[0,0.5],[1,0.5]];portConstraint=eastwest;align=center;verticalAlign=middle;fontFamily=Courier New;fontSize=12;fontColor=default;" vertex="1" parent="nSMvHfx7BpTb2uHLrpXf-195">
          <mxGeometry y="35" width="530" height="20" as="geometry" />
        </mxCell>
        <mxCell id="nSMvHfx7BpTb2uHLrpXf-203" value="CC1=C(O)CCCC1" style="shape=partialRectangle;html=1;whiteSpace=wrap;connectable=0;strokeColor=inherit;overflow=hidden;fillColor=none;top=0;left=0;bottom=0;right=0;pointerEvents=1;align=center;verticalAlign=middle;fontFamily=Courier New;fontSize=12;fontColor=default;" vertex="1" parent="nSMvHfx7BpTb2uHLrpXf-202">
          <mxGeometry width="100" height="20" as="geometry">
            <mxRectangle width="100" height="20" as="alternateBounds" />
          </mxGeometry>
        </mxCell>
        <mxCell id="nSMvHfx7BpTb2uHLrpXf-204" value="..." style="shape=partialRectangle;html=1;whiteSpace=wrap;connectable=0;strokeColor=inherit;overflow=hidden;fillColor=none;top=0;left=0;bottom=0;right=0;pointerEvents=1;align=center;verticalAlign=middle;fontFamily=Courier New;fontSize=12;fontColor=default;" vertex="1" parent="nSMvHfx7BpTb2uHLrpXf-202">
          <mxGeometry x="100" width="40" height="20" as="geometry">
            <mxRectangle width="40" height="20" as="alternateBounds" />
          </mxGeometry>
        </mxCell>
        <mxCell id="nSMvHfx7BpTb2uHLrpXf-205" value="..." style="shape=partialRectangle;html=1;whiteSpace=wrap;connectable=0;strokeColor=inherit;overflow=hidden;fillColor=none;top=0;left=0;bottom=0;right=0;pointerEvents=1;align=center;verticalAlign=middle;fontFamily=Courier New;fontSize=12;fontColor=default;" vertex="1" parent="nSMvHfx7BpTb2uHLrpXf-202">
          <mxGeometry x="140" width="60" height="20" as="geometry">
            <mxRectangle width="60" height="20" as="alternateBounds" />
          </mxGeometry>
        </mxCell>
        <mxCell id="nSMvHfx7BpTb2uHLrpXf-206" value="..." style="shape=partialRectangle;html=1;whiteSpace=wrap;connectable=0;strokeColor=inherit;overflow=hidden;fillColor=none;top=0;left=0;bottom=0;right=0;pointerEvents=1;align=center;verticalAlign=middle;fontFamily=Courier New;fontSize=12;fontColor=default;" vertex="1" parent="nSMvHfx7BpTb2uHLrpXf-202">
          <mxGeometry x="200" width="160" height="20" as="geometry">
            <mxRectangle width="160" height="20" as="alternateBounds" />
          </mxGeometry>
        </mxCell>
        <mxCell id="nSMvHfx7BpTb2uHLrpXf-207" value="..." style="shape=partialRectangle;html=1;whiteSpace=wrap;connectable=0;strokeColor=inherit;overflow=hidden;fillColor=none;top=0;left=0;bottom=0;right=0;pointerEvents=1;align=center;verticalAlign=middle;fontFamily=Courier New;fontSize=12;fontColor=default;" vertex="1" parent="nSMvHfx7BpTb2uHLrpXf-202">
          <mxGeometry x="360" width="170" height="20" as="geometry">
            <mxRectangle width="170" height="20" as="alternateBounds" />
          </mxGeometry>
        </mxCell>
        <mxCell id="nSMvHfx7BpTb2uHLrpXf-208" value="compounds_data.tsv" style="shape=partialRectangle;html=1;whiteSpace=wrap;connectable=0;strokeColor=inherit;overflow=hidden;fillColor=none;top=0;left=0;bottom=0;right=0;pointerEvents=1;align=center;verticalAlign=middle;fontFamily=Courier New;fontSize=12;fontColor=default;" vertex="1" parent="nSMvHfx7BpTb2uHLrpXf-194">
          <mxGeometry width="200" height="40" as="geometry">
            <mxRectangle width="60" height="40" as="alternateBounds" />
          </mxGeometry>
        </mxCell>
        <mxCell id="nSMvHfx7BpTb2uHLrpXf-209" value="" style="group" vertex="1" connectable="0" parent="1">
          <mxGeometry x="-650" y="-240" width="562.63" height="110" as="geometry" />
        </mxCell>
        <mxCell id="nSMvHfx7BpTb2uHLrpXf-210" value="" style="shape=table;startSize=0;container=1;collapsible=0;childLayout=tableLayout;align=left;verticalAlign=top;fontFamily=Helvetica;fontSize=12;fontColor=default;fillColor=none;gradientColor=none;" vertex="1" parent="nSMvHfx7BpTb2uHLrpXf-209">
          <mxGeometry x="32.63" y="30" width="267.37" height="55" as="geometry" />
        </mxCell>
        <mxCell id="nSMvHfx7BpTb2uHLrpXf-211" value="" style="shape=tableRow;horizontal=0;startSize=0;swimlaneHead=0;swimlaneBody=0;strokeColor=inherit;top=0;left=0;bottom=0;right=0;collapsible=0;dropTarget=0;fillColor=none;points=[[0,0.5],[1,0.5]];portConstraint=eastwest;align=center;verticalAlign=middle;fontFamily=Courier New;fontSize=12;fontColor=default;" vertex="1" parent="nSMvHfx7BpTb2uHLrpXf-210">
          <mxGeometry width="267.37" height="35" as="geometry" />
        </mxCell>
        <mxCell id="nSMvHfx7BpTb2uHLrpXf-212" value="&lt;span&gt;smiles&lt;/span&gt;" style="shape=partialRectangle;html=1;whiteSpace=wrap;connectable=0;strokeColor=#000000;overflow=hidden;fillColor=#E6C9FF;top=1;left=1;bottom=1;right=1;pointerEvents=1;align=center;verticalAlign=middle;fontFamily=Courier New;fontSize=12;fontColor=#333333;labelBackgroundColor=none;labelBorderColor=none;gradientColor=none;fontStyle=4" vertex="1" parent="nSMvHfx7BpTb2uHLrpXf-211">
          <mxGeometry width="100" height="35" as="geometry">
            <mxRectangle width="100" height="35" as="alternateBounds" />
          </mxGeometry>
        </mxCell>
        <mxCell id="nSMvHfx7BpTb2uHLrpXf-213" value="&lt;u&gt;rhea&lt;/u&gt;" style="shape=partialRectangle;html=1;whiteSpace=wrap;connectable=0;strokeColor=#000000;overflow=hidden;fillColor=#E6C9FF;top=1;left=1;bottom=1;right=1;pointerEvents=1;align=center;verticalAlign=middle;fontFamily=Courier New;fontSize=12;fontColor=#333333;labelBackgroundColor=none;labelBorderColor=none;gradientColor=none;" vertex="1" parent="nSMvHfx7BpTb2uHLrpXf-211">
          <mxGeometry x="100" width="36" height="35" as="geometry">
            <mxRectangle width="36" height="35" as="alternateBounds" />
          </mxGeometry>
        </mxCell>
        <mxCell id="nSMvHfx7BpTb2uHLrpXf-214" value="ecNumber" style="shape=partialRectangle;html=1;whiteSpace=wrap;connectable=0;strokeColor=#000000;overflow=hidden;fillColor=#E6C9FF;top=1;left=1;bottom=1;right=1;pointerEvents=1;align=center;verticalAlign=middle;fontFamily=Courier New;fontSize=12;fontColor=#333333;labelBackgroundColor=none;labelBorderColor=none;gradientColor=none;" vertex="1" parent="nSMvHfx7BpTb2uHLrpXf-211">
          <mxGeometry x="136" width="64" height="35" as="geometry">
            <mxRectangle width="64" height="35" as="alternateBounds" />
          </mxGeometry>
        </mxCell>
        <mxCell id="nSMvHfx7BpTb2uHLrpXf-215" value="protein" style="shape=partialRectangle;html=1;whiteSpace=wrap;connectable=0;strokeColor=#000000;overflow=hidden;fillColor=#E6C9FF;top=1;left=1;bottom=1;right=1;pointerEvents=1;align=center;verticalAlign=middle;fontFamily=Courier New;fontSize=12;fontColor=#333333;labelBackgroundColor=none;labelBorderColor=none;gradientColor=none;" vertex="1" parent="nSMvHfx7BpTb2uHLrpXf-211">
          <mxGeometry x="200" width="67" height="35" as="geometry">
            <mxRectangle width="67" height="35" as="alternateBounds" />
          </mxGeometry>
        </mxCell>
        <mxCell id="nSMvHfx7BpTb2uHLrpXf-216" value="" style="shape=tableRow;horizontal=0;startSize=0;swimlaneHead=0;swimlaneBody=0;strokeColor=inherit;top=0;left=0;bottom=0;right=0;collapsible=0;dropTarget=0;fillColor=none;points=[[0,0.5],[1,0.5]];portConstraint=eastwest;align=center;verticalAlign=middle;fontFamily=Courier New;fontSize=12;fontColor=default;" vertex="1" parent="nSMvHfx7BpTb2uHLrpXf-210">
          <mxGeometry y="35" width="267.37" height="20" as="geometry" />
        </mxCell>
        <mxCell id="nSMvHfx7BpTb2uHLrpXf-217" value="CC1=C(O)CCCC1" style="shape=partialRectangle;html=1;whiteSpace=wrap;connectable=0;strokeColor=inherit;overflow=hidden;fillColor=none;top=0;left=0;bottom=0;right=0;pointerEvents=1;align=center;verticalAlign=middle;fontFamily=Courier New;fontSize=12;fontColor=default;" vertex="1" parent="nSMvHfx7BpTb2uHLrpXf-216">
          <mxGeometry width="100" height="20" as="geometry">
            <mxRectangle width="100" height="20" as="alternateBounds" />
          </mxGeometry>
        </mxCell>
        <mxCell id="nSMvHfx7BpTb2uHLrpXf-218" value="..." style="shape=partialRectangle;html=1;whiteSpace=wrap;connectable=0;strokeColor=inherit;overflow=hidden;fillColor=none;top=0;left=0;bottom=0;right=0;pointerEvents=1;align=center;verticalAlign=middle;fontFamily=Courier New;fontSize=12;fontColor=default;" vertex="1" parent="nSMvHfx7BpTb2uHLrpXf-216">
          <mxGeometry x="100" width="36" height="20" as="geometry">
            <mxRectangle width="36" height="20" as="alternateBounds" />
          </mxGeometry>
        </mxCell>
        <mxCell id="nSMvHfx7BpTb2uHLrpXf-219" value="..." style="shape=partialRectangle;html=1;whiteSpace=wrap;connectable=0;strokeColor=inherit;overflow=hidden;fillColor=none;top=0;left=0;bottom=0;right=0;pointerEvents=1;align=center;verticalAlign=middle;fontFamily=Courier New;fontSize=12;fontColor=default;" vertex="1" parent="nSMvHfx7BpTb2uHLrpXf-216">
          <mxGeometry x="136" width="64" height="20" as="geometry">
            <mxRectangle width="64" height="20" as="alternateBounds" />
          </mxGeometry>
        </mxCell>
        <mxCell id="nSMvHfx7BpTb2uHLrpXf-220" value="..." style="shape=partialRectangle;html=1;whiteSpace=wrap;connectable=0;strokeColor=inherit;overflow=hidden;fillColor=none;top=0;left=0;bottom=0;right=0;pointerEvents=1;align=center;verticalAlign=middle;fontFamily=Courier New;fontSize=12;fontColor=default;" vertex="1" parent="nSMvHfx7BpTb2uHLrpXf-216">
          <mxGeometry x="200" width="67" height="20" as="geometry">
            <mxRectangle width="67" height="20" as="alternateBounds" />
          </mxGeometry>
        </mxCell>
        <mxCell id="nSMvHfx7BpTb2uHLrpXf-221" value="related_reaction_data.tsv" style="shape=partialRectangle;html=1;whiteSpace=wrap;connectable=0;strokeColor=inherit;overflow=hidden;fillColor=none;top=0;left=0;bottom=0;right=0;pointerEvents=1;align=center;verticalAlign=middle;fontFamily=Courier New;fontSize=12;fontColor=default;" vertex="1" parent="nSMvHfx7BpTb2uHLrpXf-209">
          <mxGeometry x="24" y="-1" width="200" height="40" as="geometry">
            <mxRectangle width="60" height="40" as="alternateBounds" />
          </mxGeometry>
        </mxCell>
      </root>
    </mxGraphModel>
  </diagram>
</mxfile>
